<svg viewBox="0 0 5320 5320" xmlns="http://www.w3.org/2000/svg" xml:space="preserve" style="fill-rule:evenodd;clip-rule:evenodd;stroke-linecap:round;stroke-linejoin:round;stroke-miterlimit:10"><path style="fill:none" d="M15724 6488h5456v5392h-5456z" transform="matrix(.97507 0 0 .98665 -15332.053 -6401.365)"/><path d="M1093 568c-21-21-14.6-63-14.6-63H521.5s4.5 48-16.5 69l296.8 119.1L1093 568Z" style="fill:#ffce00;fill-rule:nonzero;stroke:#000;stroke-width:8px" transform="matrix(3.52917 0 0 3.52917 -159.43 731.757)"/><path d="m1107.9 351.9 71-55 52 19 47 38 18.9.4-62.8 151.3c-56.4-14.6-102-26.7-102-26.7l-24.1-127Z" style="fill:#ff7300;fill-rule:nonzero;stroke:#000;stroke-width:8px" transform="matrix(3.52917 0 0 3.52917 -159.43 731.757)"/><path d="M1378.9 355.9s111 65 120 74 14 56 5 61c5 8 1 27 1 27-5 20-29 39-62 37-19.6-1.2-126-27.9-209-49.3l62.8-151.3 82.2 1.6Z" style="fill:#ffce00;fill-rule:nonzero;stroke:#000;stroke-width:8px" transform="matrix(3.52917 0 0 3.52917 -159.43 731.757)"/><path d="M1424.9 256.9c93 21 87 322 87 322l-59 3-35-19-12-303s-51-21 19-3Z" style="fill:#003866;fill-rule:nonzero;stroke:#000;stroke-width:8px" transform="matrix(3.52917 0 0 3.52917 -159.43 731.757)"/><path d="m1484.9 521.9 1 56" style="fill:none;fill-rule:nonzero;stroke:#000;stroke-width:8px" transform="matrix(3.52917 0 0 3.52917 -159.43 731.757)"/><path d="M1434.9 277.9s-7-10 0-21 42-20 57-56 10-65 10-65-115-10-136-10-7 40-16 47-27-2-35-17c-5 11-5 41-46 25-9 14 8 49 14 106 22 19 51 28 51 28l101-37Z" style="fill:#ffce00;fill-rule:nonzero;stroke:#000;stroke-width:8px" transform="matrix(3.52917 0 0 3.52917 -159.43 731.757)"/><path d="m1349.9 172.9 14 17M1491.9 200.9c-17 4-26-1-26-1" style="fill:none;fill-rule:nonzero;stroke:#000;stroke-width:8px" transform="matrix(3.52917 0 0 3.52917 -159.43 731.757)"/><path d="M1365.9 538.8c37.6 9 67.5 15.6 77 16.2 33 2 57-17 62-37 0 0 4-19-1-27 9-5 4-52-5-61s-120-74-120-74l-4 70s-23 17-20 37 23 34 23 34-18 20.9-12 41.8Z" style="fill:#ffce00;fill-rule:nonzero;stroke:#000;stroke-width:8px" transform="matrix(3.52917 0 0 3.52917 -159.43 731.757)"/><path d="M1434.9 277.9c6-1 29 93 29 93s-129 22-189 14c3-53 8-98 8-98s91 2 152-9Z" style="fill:#ff7300;fill-rule:nonzero;stroke:#000;stroke-width:8px" transform="matrix(3.52917 0 0 3.52917 -159.43 731.757)"/><path d="M1300.9 287.9s5 47-1 57-2 40-2 40M1328.9 287.9s3 47-4 52-1 45-1 45M1350.9 285.9s5 43-4 52 2 46 2 46M1376.9 284.9s6 43-8 51-1 46-1 46M1399.9 281.9s14 37-9 54c-10 13 6 43 6 43M1426.9 278.9s8 30 2 48c8 5 16 48 16 48M1411.9 331.9c-8 16 10 45 10 45" style="fill:none;fill-rule:nonzero;stroke:#000;stroke-width:8px" transform="matrix(3.52917 0 0 3.52917 -159.43 731.757)"/><path d="M1449.9 323.9c-107 20-171 17-171 17" style="fill:none;fill-rule:nonzero;stroke:#000;stroke-width:8px" transform="matrix(3.52917 0 0 3.52917 -159.43 731.757)"/><path d="M1382.9 394.9s-6-10-4-20c23-9 55 11 55 11s-3-19 17-15c26 3.6 42.1 28.1 47.1 44.8-8.1 3-21.9 5.8-39.1.2-14 11-44 5-44 5s-9.8 15.8-30.6 20.6c-14-19.2-33.6-39.5-34.4-48.6 17-7 33 2 33 2Z" style="fill:#fff;fill-rule:nonzero" transform="matrix(3.52917 0 0 3.52917 -159.43 731.757)"/><path d="M1414.9 420.9s30 6 44-5c17.2 5.5 31 2.7 39.1-.2 1.9 6.4 2.3 11.7.9 14.2-5 9-28 9-38 3-5 12-28 9-39 1 1 17-21 25-30 19-2.2-3.7-4.8-7.5-7.6-11.4 20.8-4.8 30.6-20.6 30.6-20.6Z" style="fill:red;fill-rule:nonzero" transform="matrix(3.52917 0 0 3.52917 -159.43 731.757)"/><path d="M1498.9 429.9c5-9-12-54-48-59-20-4-17 15-17 15s-32-20-55-11c-2 10 4 20 4 20s-16-9-33-2c1 11 29 38 42 60 9 6 31-2 30-19 11 8 34 11 39-1 10 6 33 6 38-3Z" style="fill:none;fill-rule:nonzero;stroke:#000;stroke-width:8px" transform="matrix(3.52917 0 0 3.52917 -159.43 731.757)"/><path d="M1433.9 385.9c11 8 28 35 27 47M1382.9 394.9c6 1 24 11 39 39" style="fill:none;fill-rule:nonzero;stroke:#000;stroke-width:8px" transform="matrix(3.52917 0 0 3.52917 -159.43 731.757)"/><g transform="matrix(3.52917 0 0 3.52917 -159.43 731.757)"><circle cx="1393.9" cy="226.9" r="52" style="fill:#0074ff;stroke:#000;stroke-width:8px"/><circle cx="1417.9" cy="218.7" r="26" style="fill:#0074ff;stroke:#000;stroke-width:8px"/><circle cx="1417.9" cy="218.7" r="11.5" style="fill:red;stroke:#000;stroke-width:8px"/></g><path d="M1442.9 112.9s18 9 36 1c9.5 4.5 18 1.2 23.7-2.6 2.4 11.1 2.6 20.9-.7 24.6-9 10-21-3-21-3s-18 17-37-4c-21 15-39-2-39-2s-4 21-16 19c-3.5-.6-9.9-6.5-17.5-14.2 8.6-3.2 21.1-9 31.5-18.8 21 9 40 0 40 0Z" style="fill:red;fill-rule:nonzero" transform="matrix(3.52917 0 0 3.52917 -159.43 731.757)"/><path d="M1374.9 78.9s10-18 43-4c12-14 37-5 37-5s9-10 24-4c9.4 3.8 19.6 26.5 23.7 45.4-5.7 3.8-14.2 7.1-23.7 2.6-18 8-36-1-36-1s-19 9-40 0c-10.4 9.8-22.9 15.7-31.5 18.8-5.3-5.3-11.1-11.4-17.1-17.2-14.9-14.4-30.4-26.6-30.4-30.6 14-15 51-5 51-5Z" style="fill:#fff;fill-rule:nonzero" transform="matrix(3.52917 0 0 3.52917 -159.43 731.757)"/><path d="M1404.9 126.9s-4 21-16 19c-5.9-1-20-17.3-34.6-31.4-14.9-14.4-30.4-26.6-30.4-30.6 14-15 51-5 51-5s10-18 43-4c12-14 37-5 37-5s9-10 24-4 32 60 23 70-21-3-21-3-18 17-37-4c-21 15-39-2-39-2Z" style="fill:none;fill-rule:nonzero;stroke:#000;stroke-width:8px" transform="matrix(3.52917 0 0 3.52917 -159.43 731.757)"/><path d="M1480.9 132.9s1-28-26-63M1443.9 128.9s2-22-26-54M1404.9 126.9s4-15-30-48" style="fill:none;fill-rule:nonzero;stroke:#000;stroke-width:8px" transform="matrix(3.52917 0 0 3.52917 -159.43 731.757)"/><path d="M1315.4 151c-.4 2.9-.6 4.9-.6 4.9-5 11-5 41-46 25 0 0-4.4-18.2-3.7-35.7 18.8 13.7 39.5 9.5 50.3 5.8Z" style="fill:red;fill-rule:nonzero" transform="matrix(3.52917 0 0 3.52917 -159.43 731.757)"/><path d="M1314.9 96.9c20-1 37 18 38 26-7 0-19 2-28 8-6.1 4.1-8.5 14.1-9.4 20.1-10.8 3.7-31.6 7.8-50.3-5.8.2-4.6.7-9.2 1.7-13.3 5-20 28-34 48-35Z" style="fill:#fff;fill-rule:nonzero" transform="matrix(3.52917 0 0 3.52917 -159.43 731.757)"/><path d="M1268.9 180.9c41 16 41-14 46-25 0 0 1-19 10-25s21-8 28-8c-1-8-18-27-38-26s-43 15-48 35 2 49 2 49Z" style="fill:none;fill-rule:nonzero;stroke:#000;stroke-width:8px" transform="matrix(3.52917 0 0 3.52917 -159.43 731.757)"/><g transform="matrix(3.52917 0 0 3.52917 -159.43 731.757)"><circle cx="1448.9" cy="519.9" r="26" style="fill:#0074ff;stroke:#000;stroke-width:8px"/><circle cx="1448.9" cy="519.9" r="11.5" style="fill:red;stroke:#000;stroke-width:8px"/></g><path d="M1377.9 496.9c15-19 53-22.8 59-2M1486.9 482.9s12 1 17 8" style="fill:none;fill-rule:nonzero;stroke:#000;stroke-width:8px" transform="matrix(3.52917 0 0 3.52917 -159.43 731.757)"/><path d="M1205.9 858.9s-41 70-94 110-79 42-79 42l-111-44-33-236 55-84 173-4 96 77 21 49-33 60 5 30Z" style="fill:#003866;fill-rule:nonzero;stroke:#000;stroke-width:8px" transform="matrix(3.52917 0 0 3.52917 -159.43 731.757)"/><path d="M958.9 797.9c4.5 0 24-11.3 45.4-21 21.4-9.8 44.6-18 52.6-20 16-4 31 2 42-14s-11-44-40-39c-9 3-17 19-34 27s-62 13-69 20-15 36-15 36 9 11 18 11Z" style="fill:#fff;fill-rule:nonzero;stroke:#000;stroke-width:8px" transform="matrix(3.52917 0 0 3.52917 -159.43 731.757)"/><path d="M1016.9 695.9s19 66 29 71 15 0 26 3 9 40 1 46-25 5-30 1c-9 22-29 11-32-4s-36-116-36-116M1104.9 891.9c15 0 24-17 36-13s23 14 8 32c7 9 1 26-15 32s-32-11-32-11l-82-22-21 7-21-45 3-32s8-16 22-12 8 28 16 40 71 24 86 24Z" style="fill:#fff;fill-rule:nonzero;stroke:#000;stroke-width:8px" transform="matrix(3.52917 0 0 3.52917 -159.43 731.757)"/><path d="M1079.9 854.9c-6 7-1 77-1 77s19 3 20 24-20 26-37 27c-7 13-19 12-31 11s-20-28-16-38 15-13 15-13 7-77-1-85-2-34-2-34 3-9 12-9 21 19 21 19 5-13 17-5 9 19 3 26Z" style="fill:#fff;fill-rule:nonzero;stroke:#000;stroke-width:8px" transform="matrix(3.52917 0 0 3.52917 -159.43 731.757)"/><path d="m1238.9 787.9-9 16-21 50s-14 28-35 36-69 1-87-18-18-75 3-99 65-25 65-25l84 40Z" style="fill:#fff;fill-rule:nonzero;stroke:#000;stroke-width:8px" transform="matrix(3.52917 0 0 3.52917 -159.43 731.757)"/><path d="m1184.9 793.9 18 8 27 2-21 50-44-30 1-18 9-11" style="fill:#9b0000;fill-rule:nonzero;stroke:#000;stroke-width:8px" transform="matrix(3.52917 0 0 3.52917 -159.43 731.757)"/><circle cx="1143.9" cy="849.9" r="14" style="fill:#fff;stroke:#000;stroke-width:8px" transform="matrix(3.52917 0 0 3.52917 -159.43 731.757)"/><circle cx="1143.9" cy="849.9" r="6.2" transform="matrix(3.52917 0 0 3.52917 -159.43 731.757)"/><path d="M1092.9 798.9s23 13 26 21-19 26-19 26M1193.9 860.9c-15 5-18 19-18 19M1159.9 741.9s-2 35-9 40-16 13-10 22 25.6 8.1 25.6 8.1-1.5-11.7 7.4-13.1" style="fill:none;fill-rule:nonzero;stroke:#000;stroke-width:8px" transform="matrix(3.52917 0 0 3.52917 -159.43 731.757)"/><path d="M1225.7 814.9c-1.7 3.6-3.8 6-3.8 6l-48-22s.8-4.2 2.2-8.1l49.6 24.1Z" style="fill:#fff;fill-rule:nonzero" transform="matrix(3.52917 0 0 3.52917 -159.43 731.757)"/><path d="M1179.9 784.9c6.7-2.7 10.4 1.5 12 7 5-6 18 1 19 9 6-4 18 0 17 7-.4 2.5-1.3 4.9-2.2 7l-49.6-24c.9-2.8 2.2-5.3 3.8-6Z" style="fill:red;fill-rule:nonzero" transform="matrix(3.52917 0 0 3.52917 -159.43 731.757)"/><path d="m1166.5 812 47.6 27.5s-1.2 4.1-3 7.8l-47.5-29.3c1.5-3.5 2.9-6 2.9-6Z" style="fill:#fff;fill-rule:nonzero" transform="matrix(3.52917 0 0 3.52917 -159.43 731.757)"/><path d="m1163.7 818 47.5 29.3c-1.3 2.6-2.8 5-4.4 5.5-7 2-10.2-2.5-11.2-8.2-5.6 5.5-17.8-2.8-18-10.9-6.4 3.4-17.9-1.8-16.2-8.7.5-2.5 1.4-4.9 2.3-7Z" style="fill:red;fill-rule:nonzero" transform="matrix(3.52917 0 0 3.52917 -159.43 731.757)"/><path d="m1221.9 820.9-48-22s2.3-12.5 6-14c6.7-2.7 10.4 1.5 12 7 5-6 18 1 19 9 6-4 18 0 17 7s-6 13-6 13ZM1166.5 812l47.6 27.5s-3.6 12.2-7.4 13.3c-7 2-10.2-2.5-11.2-8.2-5.6 5.5-17.8-2.8-18-10.9-6.4 3.4-17.9-1.8-16.2-8.7 1.7-6.8 5.2-13 5.2-13Z" style="fill:none;fill-rule:nonzero;stroke:#000;stroke-width:8px" transform="matrix(3.52917 0 0 3.52917 -159.43 731.757)"/><path d="M1465.9 620.9s39 15 51 58 17 144 2 170-62 28-76-5-14-101-14-101l-4-106 41-16Z" style="fill:#0074ff;fill-rule:nonzero;stroke:#000;stroke-width:8px" transform="matrix(3.52917 0 0 3.52917 -159.43 731.757)"/><path d="M1461.9 667.9s18 14 23 26 16 117 13 124-21 11-27 2-20-108-20-108l11-44Z" style="fill:#003866;fill-rule:nonzero;stroke:#000;stroke-width:8px" transform="matrix(3.52917 0 0 3.52917 -159.43 731.757)"/><path d="m1521.9 709.9-36-15M1526.9 745.9l-37-28M1527.9 778.9l-35-29M1525.9 813.9l-27-27M1514.9 851.9l-17-34M1490.9 866.9l-3-42M1460.9 862.9l11-38M1438.9 827.9l25-27M1432.9 787.9l25-25" style="fill:none;fill-rule:nonzero;stroke:#000;stroke-width:8px" transform="matrix(3.52917 0 0 3.52917 -159.43 731.757)"/><path d="M1397.9 805.9s22 32 68 54c32 15 59 57 48 79s-151 37-151 37-28 3-24-24c-24 1-42-16-56-14s-6 12-19 17-22 2-22 2-35-27-37-35 0-16 4-36 30-89 30-89l31-62 93 23 35 48Z" style="fill:#ffce00;fill-rule:nonzero;stroke:#000;stroke-width:8px" transform="matrix(3.52917 0 0 3.52917 -159.43 731.757)"/><path d="m1338.9 951.9 1-21M1388.9 910.9s-16 27-44 21-29-67-26-81 10-23 10-23" style="fill:none;fill-rule:nonzero;stroke:#000;stroke-width:8px" transform="matrix(3.52917 0 0 3.52917 -159.43 731.757)"/><path d="M1483.9 964.9c-25-13-38 6-38 6s-25-13-46 5c-25.3-9.9-37.5 3-39.7 5.6.5-2.2.7-3.6.7-3.6s3-19 17-23 22 7 22 7 10-16 21-18 22 6 22 6 9-8 19-10 19 7 19 7 3-11 13-16 19-3 24 3c1.4 1.7 2.9 9.2 2.8 18.7-9.8-2.3-27.1-3.6-36.8 12.3Z" style="fill:red;fill-rule:nonzero" transform="matrix(3.52917 0 0 3.52917 -159.43 731.757)"/><path d="M1342.9 1011.9c11.4-8.3 15.8-23.5 17.3-30.4 2.1-2.6 14.4-15.5 39.7-5.6 21-18 46-5 46-5s13-19 38-6c9.7-15.9 27-14.6 36.8-12.3-.2 23.5-9.6 60.1-50.8 57.3-15 8-42 4-42 4s-18 12-44 0c-20 13-44 0-41-2Z" style="fill:#fff;fill-rule:nonzero" transform="matrix(3.52917 0 0 3.52917 -159.43 731.757)"/><path d="M1517.9 933.9c5 6 10 80-48 76-15 8-42 4-42 4s-18 12-44 0c-20 13-44 0-41-2 15-11 18-34 18-34s3-19 17-23 22 7 22 7 10-16 21-18 22 6 22 6 9-8 19-10 19 7 19 7 3-11 13-16 19-3 24 3Z" style="fill:none;fill-rule:nonzero;stroke:#000;stroke-width:8px" transform="matrix(3.52917 0 0 3.52917 -159.43 731.757)"/><path d="M1383.9 1013.9c22-22 17-52 17-52M1427.9 1014.2c12-8.3 23-36.3 15-64.3M1469.9 1009.9c22-24 11-63 11-63" style="fill:none;fill-rule:nonzero;stroke:#000;stroke-width:8px" transform="matrix(3.52917 0 0 3.52917 -159.43 731.757)"/><path d="M1204.9 921.9c9-11 39 2 41 12 1.6 8-1.9 13.4-1.3 22.3-24.2-15-36.4-10-41.6-5.8-2.8-12.3-2.5-23.2 1.9-28.5Z" style="fill:red;fill-rule:nonzero" transform="matrix(3.52917 0 0 3.52917 -159.43 731.757)"/><path d="M1244.5 956.3c.1 2.3.5 4.8 1.3 7.7 4 14 35 43 35 43s-41 5-59-17c-9.3-11.4-15.9-26.2-18.9-39.4 5.2-4.4 17.5-9.3 41.6 5.7Z" style="fill:#fff;fill-rule:nonzero" transform="matrix(3.52917 0 0 3.52917 -159.43 731.757)"/><path d="M1245.9 933.9c2 10-4 16 0 30s35 43 35 43-41 5-59-17-26-57-17-68 39 2 41 12Z" style="fill:none;fill-rule:nonzero;stroke:#000;stroke-width:8px" transform="matrix(3.52917 0 0 3.52917 -159.43 731.757)"/><g transform="matrix(3.52917 0 0 3.52917 -159.43 731.757)"><circle cx="1397.9" cy="888.9" r="28" style="fill:#0074ff;stroke:#000;stroke-width:8px"/><circle cx="1397.9" cy="888.9" r="12.4" style="fill:red;stroke:#000;stroke-width:8px"/></g><path d="M1153.9 576.9c85-57 172-46 194-44s83 15 99 27 28 41 21 52c6 10 8 38-3 42s-44 23-44 23l-56-2-31-11-97-10s-168-20-83-77Z" style="fill:#ffce00;fill-rule:nonzero;stroke:#000;stroke-width:8px" transform="matrix(3.52917 0 0 3.52917 -159.43 731.757)"/><path d="M1467.9 611.9c-6-2-15-5-26-1M1383.9 615.9c-15 11-31 12-42 21s-8 27-8 27" style="fill:none;fill-rule:nonzero;stroke:#000;stroke-width:8px" transform="matrix(3.52917 0 0 3.52917 -159.43 731.757)"/><path d="M1347.9 532.9s-32 26-31 55 25 49 25 49M1514.9 675.9l-47-8" style="fill:none;fill-rule:nonzero;stroke:#000;stroke-width:8px" transform="matrix(3.52917 0 0 3.52917 -159.43 731.757)"/><path d="M1398.9 799.9s6 36-6 46-48 4-49-22 27-37 27-37l28 13Z" style="fill:#fff;fill-rule:nonzero;stroke:#000;stroke-width:8px" transform="matrix(3.52917 0 0 3.52917 -159.43 731.757)"/><path d="M1344.9 774.9s6 43-8 56-45 5-43-23c1-23 28-40 28-40l23 7Z" style="fill:#fff;fill-rule:nonzero;stroke:#000;stroke-width:8px" transform="matrix(3.52917 0 0 3.52917 -159.43 731.757)"/><path d="M1289.9 751.9s16 44-2 59c-24 18-57 2-53-22s28-42 28-42l27 5Z" style="fill:#fff;fill-rule:nonzero;stroke:#000;stroke-width:8px" transform="matrix(3.52917 0 0 3.52917 -159.43 731.757)"/><path d="M1368.9 849.9s7-24 2-26-14 21-14 21M1315.9 834.9s5-24 1-26-15 21-15 21M1263.9 818.9s5-26 0-28-15 22-15 22" style="fill:none;fill-rule:nonzero;stroke:#000;stroke-width:8px" transform="matrix(3.52917 0 0 3.52917 -159.43 731.757)"/><path d="m1285.9 646.9 167 38-9 39s-33 50-45 76c-3 1-151-56-151-56l20-88 18-9Z" style="fill:#ff7300;fill-rule:nonzero;stroke:#000;stroke-width:8px" transform="matrix(3.52917 0 0 3.52917 -159.43 731.757)"/><path d="m1400.9 755.9-16 37M1374.9 746.9l-15 38M1351.9 738.9l-15 37M1331.9 730.9l-14 36M1306.9 723.9l-14 35M1283.9 716.9l-11 31M1337.9 697.9l-70-20" style="fill:none;fill-rule:nonzero;stroke:#000;stroke-width:8px" transform="matrix(3.52917 0 0 3.52917 -159.43 731.757)"/><path d="M1440.9 677.9c-20-13-37-6-37-6s-16.1-11.4-35.7-9.5c2.6-13.2 14.5-22.1 35.7-10.5 23-8 38 9 38 9s18-13 23-7c2 2.4 1.1 12.9-1.5 25.1-5.8-3.6-13.6-6-22.5-1.1Z" style="fill:red;fill-rule:nonzero" transform="matrix(3.52917 0 0 3.52917 -159.43 731.757)"/><path d="m1367.9 663.9.3-1.5c19.6-2 35.7 9.5 35.7 9.5s17-7 37 6c8.9-4.9 16.7-2.6 22.5 1.1-3.9 18.2-11.7 40.1-19.5 44.9-13 8-29 4-32-8-15 8-28 2-36-7-14 4-32-1-38-11 9-8 28-20 30-34Z" style="fill:#fff;fill-rule:nonzero" transform="matrix(3.52917 0 0 3.52917 -159.43 731.757)"/><path d="M1464.9 653.9c5 6-8 62-21 70s-29 4-32-8c-15 8-28 2-36-7-14 4-32-1-38-11 9-8 28-20 30-34s14-24 36-12c23-8 38 9 38 9s18-13 23-7Z" style="fill:none;fill-rule:nonzero;stroke:#000;stroke-width:8px" transform="matrix(3.52917 0 0 3.52917 -159.43 731.757)"/><path d="M1411.9 715.9c32-26 30-55 30-55M1378.9 707.9c36-30 25-56 25-56" style="fill:none;fill-rule:nonzero;stroke:#000;stroke-width:8px" transform="matrix(3.52917 0 0 3.52917 -159.43 731.757)"/><circle cx="1392.9" cy="592.9" r="26" style="fill:#0074ff;stroke:#000;stroke-width:8px" transform="matrix(3.52917 0 0 3.52917 -159.43 731.757)"/><circle cx="1392.9" cy="592.9" r="11.5" style="fill:red;stroke:#000;stroke-width:8px" transform="matrix(3.52917 0 0 3.52917 -159.43 731.757)"/><path d="m1206.8 812.8 4.1-11.9M1187.2 803.7l4.7-11.8M1182.9 822.5l-5.4 11.3M1201.5 832.5l-6 12.2" style="fill:none;fill-rule:nonzero;stroke:#000;stroke-width:8px" transform="matrix(3.52917 0 0 3.52917 -159.43 731.757)"/><path d="m489.9 351.9-71-55-52 19-47 38-18.9.4 62.8 151.3c56.4-14.6 102-26.7 102-26.7l24.1-127Z" style="fill:#ff7300;fill-rule:nonzero;stroke:#000;stroke-width:8px" transform="matrix(3.52917 0 0 3.52917 -159.43 731.757)"/><path d="M218.9 355.9s-111 65-120 74-14 56-5 61c-5 8-1 27-1 27 5 20 29 39 62 37 19.6-1.2 126-27.9 209-49.3L301 354.3l-82.1 1.6Z" style="fill:#ffce00;fill-rule:nonzero;stroke:#000;stroke-width:8px" transform="matrix(3.52917 0 0 3.52917 -159.43 731.757)"/><path d="M172.9 256.9c-93 21-87 322-87 322l59 3 35-19 12-303s51-21-19-3Z" style="fill:#003866;fill-rule:nonzero;stroke:#000;stroke-width:8px" transform="matrix(3.52917 0 0 3.52917 -159.43 731.757)"/><path d="m112.9 521.9-1 56" style="fill:none;fill-rule:nonzero;stroke:#000;stroke-width:8px" transform="matrix(3.52917 0 0 3.52917 -159.43 731.757)"/><path d="M162.9 277.9s7-10 0-21-42-20-57-56-10-65-10-65 115-10 136-10 7 40 16 47 27-2 35-17c5 11 5 41 46 25 9 14-8 49-14 106-22 19-51 28-51 28l-101-37Z" style="fill:#ffce00;fill-rule:nonzero;stroke:#000;stroke-width:8px" transform="matrix(3.52917 0 0 3.52917 -159.43 731.757)"/><path d="m247.9 172.9-14 17M105.9 200.9c17 4 26-1 26-1" style="fill:none;fill-rule:nonzero;stroke:#000;stroke-width:8px" transform="matrix(3.52917 0 0 3.52917 -159.43 731.757)"/><path d="M231.9 538.8c-37.6 9-67.5 15.6-77 16.2-33 2-57-17-62-37 0 0-4-19 1-27-9-5-4-52 5-61s120-74 120-74l4 70s23 17 20 37-23 34-23 34 18 20.9 12 41.8Z" style="fill:#ffce00;fill-rule:nonzero;stroke:#000;stroke-width:8px" transform="matrix(3.52917 0 0 3.52917 -159.43 731.757)"/><path d="M162.9 277.9c-6-1-29 93-29 93s129 22 189 14c-3-53-8-98-8-98s-91 2-152-9Z" style="fill:#ff7300;fill-rule:nonzero;stroke:#000;stroke-width:8px" transform="matrix(3.52917 0 0 3.52917 -159.43 731.757)"/><path d="M296.9 287.9s-5 47 1 57 2 40 2 40M268.9 287.9s-3 47 4 52 1 45 1 45M246.9 285.9s-5 43 4 52-2 46-2 46M220.9 284.9s-6 43 8 51 1 46 1 46M197.9 281.9s-14 37 9 54c10 13-6 43-6 43M170.9 278.9s-8 30-2 48c-8 5-16 48-16 48M185.9 331.9c8 16-10 45-10 45" style="fill:none;fill-rule:nonzero;stroke:#000;stroke-width:8px" transform="matrix(3.52917 0 0 3.52917 -159.43 731.757)"/><path d="M147.9 323.9c107 20 171 17 171 17" style="fill:none;fill-rule:nonzero;stroke:#000;stroke-width:8px" transform="matrix(3.52917 0 0 3.52917 -159.43 731.757)"/><path d="M214.9 394.9s6-10 4-20c-23-9-55 11-55 11s3-19-17-15c-26 3.6-42.1 28.1-47.1 44.8 8.1 3 21.9 5.8 39.1.2 14 11 44 5 44 5s9.8 15.8 30.6 20.6c14-19.2 33.6-39.5 34.4-48.6-17-7-33 2-33 2Z" style="fill:#fff;fill-rule:nonzero" transform="matrix(3.52917 0 0 3.52917 -159.43 731.757)"/><path d="M182.9 420.9s-30 6-44-5c-17.2 5.5-31 2.7-39.1-.2-1.9 6.4-2.3 11.7-.9 14.2 5 9 28 9 38 3 5 12 28 9 39 1-1 17 21 25 30 19 2.2-3.7 4.8-7.5 7.6-11.4-20.8-4.8-30.6-20.6-30.6-20.6Z" style="fill:red;fill-rule:nonzero" transform="matrix(3.52917 0 0 3.52917 -159.43 731.757)"/><path d="M98.9 429.9c-5-9 12-54 48-59 20-4 17 15 17 15s32-20 55-11c2 10-4 20-4 20s16-9 33-2c-1 11-29 38-42 60-9 6-31-2-30-19-11 8-34 11-39-1-10 6-33 6-38-3Z" style="fill:none;fill-rule:nonzero;stroke:#000;stroke-width:8px" transform="matrix(3.52917 0 0 3.52917 -159.43 731.757)"/><path d="M163.9 385.9c-11 8-28 35-27 47M214.9 394.9c-6 1-24 11-39 39" style="fill:none;fill-rule:nonzero;stroke:#000;stroke-width:8px" transform="matrix(3.52917 0 0 3.52917 -159.43 731.757)"/><g transform="matrix(3.52917 0 0 3.52917 -159.43 731.757)"><circle cx="203.9" cy="226.9" r="52" style="fill:#0074ff;stroke:#000;stroke-width:8px"/><circle cx="179.9" cy="218.7" r="26" style="fill:#0074ff;stroke:#000;stroke-width:8px"/><circle cx="179.9" cy="218.7" r="11.5" style="fill:red;stroke:#000;stroke-width:8px"/></g><path d="M154.9 112.9s-18 9-36 1c-9.5 4.5-18 1.2-23.7-2.6-2.4 11.1-2.6 20.9.7 24.6 9 10 21-3 21-3s18 17 37-4c21 15 39-2 39-2s4 21 16 19c3.5-.6 9.9-6.5 17.5-14.2-8.6-3.2-21.1-9-31.5-18.8-21 9-40 0-40 0Z" style="fill:red;fill-rule:nonzero" transform="matrix(3.52917 0 0 3.52917 -159.43 731.757)"/><path d="M222.9 78.9s-10-18-43-4c-12-14-37-5-37-5s-9-10-24-4c-9.4 3.8-19.6 26.5-23.7 45.4 5.7 3.8 14.2 7.1 23.7 2.6 18 8 36-1 36-1s19 9 40 0c10.4 9.8 22.9 15.7 31.5 18.8 5.3-5.3 11.1-11.4 17.1-17.2 14.9-14.4 30.4-26.6 30.4-30.6-14-15-51-5-51-5Z" style="fill:#fff;fill-rule:nonzero" transform="matrix(3.52917 0 0 3.52917 -159.43 731.757)"/><path d="M192.9 126.9s4 21 16 19c5.9-1 20-17.3 34.6-31.4 14.9-14.4 30.4-26.6 30.4-30.6-14-15-51-5-51-5s-10-18-43-4c-12-14-37-5-37-5s-9-10-24-4-32 60-23 70 21-3 21-3 18 17 37-4c21 15 39-2 39-2Z" style="fill:none;fill-rule:nonzero;stroke:#000;stroke-width:8px" transform="matrix(3.52917 0 0 3.52917 -159.43 731.757)"/><path d="M116.9 132.9s-1-28 26-63M153.9 128.9s-2-22 26-54M192.9 126.9s-4-15 30-48" style="fill:none;fill-rule:nonzero;stroke:#000;stroke-width:8px" transform="matrix(3.52917 0 0 3.52917 -159.43 731.757)"/><path d="M282.3 151c.4 2.9.6 4.9.6 4.9 5 11 5 41 46 25 0 0 4.4-18.2 3.7-35.7-18.7 13.7-39.5 9.5-50.3 5.8Z" style="fill:red;fill-rule:nonzero" transform="matrix(3.52917 0 0 3.52917 -159.43 731.757)"/><path d="M282.9 96.9c-20-1-37 18-38 26 7 0 19 2 28 8 6.1 4.1 8.5 14.1 9.4 20.1 10.8 3.7 31.6 7.8 50.3-5.8-.2-4.6-.7-9.2-1.7-13.3-5-20-28-34-48-35Z" style="fill:#fff;fill-rule:nonzero" transform="matrix(3.52917 0 0 3.52917 -159.43 731.757)"/><path d="M328.9 180.9c-41 16-41-14-46-25 0 0-1-19-10-25s-21-8-28-8c1-8 18-27 38-26s43 15 48 35-2 49-2 49Z" style="fill:none;fill-rule:nonzero;stroke:#000;stroke-width:8px" transform="matrix(3.52917 0 0 3.52917 -159.43 731.757)"/><g transform="matrix(3.52917 0 0 3.52917 -159.43 731.757)"><circle cx="148.9" cy="519.9" r="26" style="fill:#0074ff;stroke:#000;stroke-width:8px"/><circle cx="148.9" cy="519.9" r="11.5" style="fill:red;stroke:#000;stroke-width:8px"/></g><path d="M219.9 496.9c-15-19-53-22.8-59-2M110.9 482.9s-12 1-17 8" style="fill:none;fill-rule:nonzero;stroke:#000;stroke-width:8px" transform="matrix(3.52917 0 0 3.52917 -159.43 731.757)"/><path d="M798.9 149.9s1-43 30-66c19.3 9 28.8 30.1 33.3 45.4-9.3-1.1-29.6-2.7-37.3 2.6-10 7-16 82-2 87 10.8 3.8 34.6 4.1 45 4.1l1 39.9 21-3-30 6-62-4 1-112Z" style="fill:red;fill-rule:nonzero;stroke:#000;stroke-width:8px" transform="matrix(3.52917 0 0 3.52917 -159.43 731.757)"/><path d="M822.9 218.9c-14-5-8-80 2-87 7.6-5.3 28-3.7 37.3-2.6 3 10.1 3.7 17.6 3.7 17.6v1.5c-9.2-.6-24.6-.9-28 2.5-5 5-5 14 1 22-5 5-6 20 0 26 3.9 3.9 18.5 3.2 28.4 2.2l.6 21.9c-10.4.1-34.2-.2-45-4.1Z" style="fill:#fff;fill-rule:nonzero;stroke:#000;stroke-width:8px" transform="matrix(3.52917 0 0 3.52917 -159.43 731.757)"/><path d="M838.9 198.9c-6-6-5-21 0-26-6-8-6-17-1-22 3.5-3.5 18.9-3.1 28-2.5l1.4 52.7c-9.9 1-24.5 1.7-28.4-2.2Z" style="fill:#fff;fill-rule:nonzero;stroke:#000;stroke-width:8px" transform="matrix(3.52917 0 0 3.52917 -159.43 731.757)"/><path d="M838.9 172.9h32" style="fill:none;fill-rule:nonzero;stroke:#000;stroke-width:8px" transform="matrix(3.52917 0 0 3.52917 -159.43 731.757)"/><path d="M898.9 80.9c15 5.8 24.6 23.9 30.7 43.1-12.2-2-29.3-3.1-36.7 4.9-12 13-14 86 1 91 9.3 3.1 22.9 3.9 31.8 4l-12.8 40-44-10-3-107s5-45 33-66Z" style="fill:red;fill-rule:nonzero;stroke:#000;stroke-width:8px" transform="matrix(3.52917 0 0 3.52917 -159.43 731.757)"/><path d="M892.9 128.9c7.4-8 24.5-6.9 36.7-4.9 2.5 7.9 4.4 16 5.9 23.4-6.7-.6-19.3-1.1-23.6 2.5-6 5 0 24 0 24s-10 13 1 22c6.3 5.1 14.5 5.4 20.4 4.7l-7.5 23.4c-8.9-.2-22.5-.9-31.8-4-15.1-5.1-13.1-78.1-1.1-91.1Z" style="fill:#fff;fill-rule:nonzero;stroke:#000;stroke-width:8px" transform="matrix(3.52917 0 0 3.52917 -159.43 731.757)"/><path d="M933.3 200.6c-5.9.7-14.1.5-20.4-4.7-11-9-1-22-1-22s-6-19 0-24c4.3-3.6 16.9-3.1 23.6-2.5 3.5 18 4.4 32.5 4.4 32.5l-6.6 20.7Z" style="fill:#fff;fill-rule:nonzero;stroke:#000;stroke-width:8px" transform="matrix(3.52917 0 0 3.52917 -159.43 731.757)"/><path d="m939.9 172.9-28 1" style="fill:none;fill-rule:nonzero;stroke:#000;stroke-width:8px" transform="matrix(3.52917 0 0 3.52917 -159.43 731.757)"/><path d="M1003.9 248.9c-23 15-36 66-84 82s-91 15-122 15-72 1-120-15-61-67-84-82c-20.7-13.5-220-12.4-259.3-12.1-.2 18 0 33 1.3 38.1 4 16 13 42 21 47s82 1 82 1l122 119 234 47 214-71 150-95s74 4 82-1 17-31 21-47c1.3-5.1 1.5-20 1.3-38.1-39.3-.3-238.6-1.4-259.3 12.1Z" style="fill:#ffce00;fill-rule:nonzero;stroke:#000;stroke-width:8px" transform="matrix(3.52917 0 0 3.52917 -159.43 731.757)"/><path d="M984.9 198.9c-23 15-34 61-56 79s-129 15-129 15-109 3-131-15-33-64-56-79c-22.1-14.4-259-11.3-276.9-11-.6 15.7-1.2 33.5-1.4 48.9 39.3-.3 238.6-1.4 259.3 12.1 23 15 36 66 84 82s89 15 120 15 74 1 122-15 61-67 84-82c20.7-13.5 220-12.4 259.3-12.1-.2-15.5-.8-33.2-1.4-48.9-17.9-.2-254.8-3.4-276.9 11Z" style="fill:#0074ff;fill-rule:nonzero;stroke:#000;stroke-width:8px" transform="matrix(3.52917 0 0 3.52917 -159.43 731.757)"/><path d="M445.9 110.9s9-22.1 29-24.5c20-2.5 79-9.5 96 13.5s9 53 9 53l-70 12-64-54Z" style="fill:#ffce00;fill-rule:nonzero;stroke:#000;stroke-width:8px" transform="matrix(3.52917 0 0 3.52917 -159.43 731.757)"/><path d="M436.8 105.2c-23.8.7-44.8 1.4-50.9-.2-15-4-15-23-17-29-10 2-24 8-29 25s-6 38-2 44 13 21 13 21l42 4 41.9-5.2c3.3-10.2 7.6-30.7 2-59.6Z" style="fill:#fff;fill-rule:nonzero" transform="matrix(3.52917 0 0 3.52917 -159.43 731.757)"/><path d="M520.9 108.9c-7.8-6-48.9-4.8-84.1-3.8 5.6 28.9 1.3 49.4-2 59.6l95.1-11.8s7-28-9-44Z" style="fill:red;fill-rule:nonzero" transform="matrix(3.52917 0 0 3.52917 -159.43 731.757)"/><path d="M337.9 144.9c-4-6-3-27 2-44s19-23 29-25c2 6 2 25 17 29s122-6 135 4c16 16 9 44 9 44l-137 17-42-4s-9-15-13-21Z" style="fill:none;fill-rule:nonzero;stroke:#000;stroke-width:8px" transform="matrix(3.52917 0 0 3.52917 -159.43 731.757)"/><path d="M1151.9 110.9s-9-22.1-29-24.5c-20-2.5-79-9.5-96 13.5s-9 53-9 53l70 12 64-54Z" style="fill:#ffce00;fill-rule:nonzero;stroke:#000;stroke-width:8px" transform="matrix(3.52917 0 0 3.52917 -159.43 731.757)"/><path d="M1161 105.2c23.8.7 44.8 1.4 50.9-.2 15-4 15-23 17-29 10 2 24 8 29 25s6 38 2 44-13 21-13 21l-42 4-41.9-5.2c-3.3-10.2-7.6-30.7-2-59.6Z" style="fill:#fff;fill-rule:nonzero" transform="matrix(3.52917 0 0 3.52917 -159.43 731.757)"/><path d="M1076.9 108.9c7.8-6 48.9-4.8 84.1-3.8-5.6 28.9-1.3 49.4 2 59.6l-95.1-11.8s-7-28 9-44Z" style="fill:red;fill-rule:nonzero" transform="matrix(3.52917 0 0 3.52917 -159.43 731.757)"/><path d="M1259.9 144.9c4-6 3-27-2-44s-19-23-29-25c-2 6-2 25-17 29s-122-6-135 4c-16 16-9 44-9 44l137 17 42-4s9-15 13-21Z" style="fill:none;fill-rule:nonzero;stroke:#000;stroke-width:8px" transform="matrix(3.52917 0 0 3.52917 -159.43 731.757)"/><circle cx="766.9" cy="318.4" r="23.5" style="fill:#ffce00;stroke:#000;stroke-width:8px" transform="matrix(3.52917 0 0 3.52917 -159.43 731.757)"/><circle cx="711.9" cy="315.4" r="23.5" style="fill:#ffce00;stroke:#000;stroke-width:8px" transform="matrix(3.52917 0 0 3.52917 -159.43 731.757)"/><circle cx="657.4" cy="298.4" r="23.5" style="fill:#ffce00;stroke:#000;stroke-width:8px" transform="matrix(3.52917 0 0 3.52917 -159.43 731.757)"/><circle cx="620.9" cy="246.9" r="23" style="fill:#ffce00;stroke:#000;stroke-width:7.67px" transform="matrix(3.52917 0 0 3.52917 -159.43 731.757)"/><circle cx="574.9" cy="216.4" r="23.5" style="fill:#ffce00;stroke:#000;stroke-width:8px" transform="matrix(3.52917 0 0 3.52917 -159.43 731.757)"/><circle cx="520.9" cy="214.4" r="23.5" style="fill:#ffce00;stroke:#000;stroke-width:8px" transform="matrix(3.52917 0 0 3.52917 -159.43 731.757)"/><circle cx="466.9" cy="211.4" r="23.5" style="fill:#ffce00;stroke:#000;stroke-width:8px" transform="matrix(3.52917 0 0 3.52917 -159.43 731.757)"/><circle cx="412.9" cy="210.9" r="23" style="fill:#ffce00;stroke:#000;stroke-width:8px" transform="matrix(3.52917 0 0 3.52917 -159.43 731.757)"/><circle cx="357.9" cy="211.4" r="23.5" style="fill:#ffce00;stroke:#000;stroke-width:8px" transform="matrix(3.52917 0 0 3.52917 -159.43 731.757)"/><path d="M387.9 292.9c25-11-2-52-52-18" style="fill:none;fill-rule:nonzero;stroke:#000;stroke-width:8px" transform="matrix(3.52917 0 0 3.52917 -159.43 731.757)"/><path d="M798.9 149.9s-1-43-30-66c-19.3 9-28.8 30.1-33.3 45.4 9.3-1.1 29.6-2.7 37.3 2.6 10 7 16 82 2 87-10.8 3.8-34.6 4.1-45 4.1l-1 39.9-21-3 30 6 62-4-1-112Z" style="fill:red;fill-rule:nonzero;stroke:#000;stroke-width:8px" transform="matrix(3.52917 0 0 3.52917 -159.43 731.757)"/><path d="M774.9 218.9c14-5 8-80-2-87-7.6-5.3-28-3.7-37.3-2.6-3 10.1-3.7 17.6-3.7 17.6v1.5c9.2-.6 24.6-.9 28 2.5 5 5 5 14-1 22 5 5 6 20 0 26-3.9 3.9-18.5 3.2-28.4 2.2l-.6 21.9c10.4.1 34.2-.2 45-4.1Z" style="fill:#fff;fill-rule:nonzero;stroke:#000;stroke-width:8px" transform="matrix(3.52917 0 0 3.52917 -159.43 731.757)"/><path d="M758.9 198.9c6-6 5-21 0-26 6-8 6-17 1-22-3.5-3.5-18.9-3.1-28-2.5l-1.4 52.7c9.9 1 24.5 1.7 28.4-2.2Z" style="fill:#fff;fill-rule:nonzero;stroke:#000;stroke-width:8px" transform="matrix(3.52917 0 0 3.52917 -159.43 731.757)"/><path d="M758.9 172.9h-32" style="fill:none;fill-rule:nonzero;stroke:#000;stroke-width:8px" transform="matrix(3.52917 0 0 3.52917 -159.43 731.757)"/><path d="M698.9 80.9c-15 5.8-24.6 23.9-30.7 43.1 12.2-2 29.3-3.1 36.7 4.9 12 13 14 86-1 91-9.3 3.1-22.9 3.9-31.8 4l12.8 40 44-10 3-107s-5-45-33-66Z" style="fill:red;fill-rule:nonzero;stroke:#000;stroke-width:8px" transform="matrix(3.52917 0 0 3.52917 -159.43 731.757)"/><path d="M704.9 128.9c-7.4-8-24.5-6.9-36.7-4.9-2.5 7.9-4.4 16-5.9 23.4 6.7-.6 19.3-1.1 23.6 2.5 6 5 0 24 0 24s10 13-1 22c-6.3 5.1-14.5 5.4-20.4 4.7L672 224c8.9-.2 22.5-.9 31.8-4 15.1-5.1 13.1-78.1 1.1-91.1Z" style="fill:#fff;fill-rule:nonzero;stroke:#000;stroke-width:8px" transform="matrix(3.52917 0 0 3.52917 -159.43 731.757)"/><path d="M664.5 200.6c5.9.7 14.1.5 20.4-4.7 11-9 1-22 1-22s6-19 0-24c-4.3-3.6-16.9-3.1-23.6-2.5-3.5 18-4.4 32.5-4.4 32.5l6.6 20.7Z" style="fill:#fff;fill-rule:nonzero;stroke:#000;stroke-width:8px" transform="matrix(3.52917 0 0 3.52917 -159.43 731.757)"/><path d="m657.9 172.9 28 1M1209.9 292.9c-25-11 2-52 52-18" style="fill:none;fill-rule:nonzero;stroke:#000;stroke-width:8px" transform="matrix(3.52917 0 0 3.52917 -159.43 731.757)"/><path d="m1077.9 702.9-134 15-110.4-13.4 63.4-127.6 197-5-16 131Z" style="fill:#ff7300;fill-rule:nonzero;stroke:#000;stroke-width:8px" transform="matrix(3.52917 0 0 3.52917 -159.43 731.757)"/><path d="M947.9 615.9v-17" style="fill:none;fill-rule:nonzero;stroke:#000;stroke-width:8px" transform="matrix(3.52917 0 0 3.52917 -159.43 731.757)"/><path d="M959.9 382.9c11-16-9-17-20-27s-39-3-45 12c-8-11-38-16-52 4-9-13-31-12-43-1-10-11-38-12-47 1-14-20-42-15-50-4-6-15-34-22-45-12s-31 11-20 27 77.7 33.3 164 34c86.3.7 147-18 158-34Z" style="fill:#ff7300;fill-rule:nonzero;stroke:#000;stroke-width:8px" transform="matrix(3.52917 0 0 3.52917 -159.43 731.757)"/><path d="m696.6 405.6 6.3-37.7M750.2 413.6l2.7-41.7M847.8 414l-4.9-42.1M902.9 405.6l-8-37.7M799.9 416.9v-46" style="fill:none;fill-rule:nonzero;stroke:#000;stroke-width:8px" transform="matrix(3.52917 0 0 3.52917 -159.43 731.757)"/><path d="M612.9 198.9c23 15 34 61 56 79s131 15 131 15 107 3 129-15 33-64 56-79c22.1-14.4 259-11.3 276.9-11-.9-23.8-1.9-43-1.9-43s-8 7-20 9-227-10-270 1-52 85-66 91-93 9-106 9-90-3-104-9-23-80-66-91-258 1-270-1-20-9-20-9-1 19.2-1.9 43c17.8-.2 254.8-3.4 276.9 11Z" style="fill:#ff7300;fill-rule:nonzero;stroke:#000;stroke-width:8px" transform="matrix(3.52917 0 0 3.52917 -159.43 731.757)"/><path d="m365.9 188.9 2-34M415.9 186.9v-32M469.9 186.9l2-35M524.9 186.9l1-37M579.9 189.9l6-37M617.9 200.9l25-37M641.9 235.9l36-18M680.9 282.9l13-37M743.9 289.9l4-36M1231.9 188.9l-2-34M1181.9 186.9v-32M1127.9 186.9l-2-35M1072.9 186.9l-1-37M1017.9 189.9l-6-37M979.9 200.9l-25-37M957.9 235.9l-38-18M916.9 282.9l-13-37M853.9 289.9l-4-36" style="fill:none;fill-rule:nonzero;stroke:#000;stroke-width:8px" transform="matrix(3.52917 0 0 3.52917 -159.43 731.757)"/><path d="M1135.9 292.9s17 22 37 33 53 29 41 66c-32 0-57-3-57-3l-43-17-4-51 26-28Z" style="fill:#003866;fill-rule:nonzero;stroke:#000;stroke-width:8px" transform="matrix(3.52917 0 0 3.52917 -159.43 731.757)"/><path d="m1203.9 364.9-63-36M1201.9 379.9l-61-22" style="fill:none;fill-rule:nonzero;stroke:#000;stroke-width:8px" transform="matrix(3.52917 0 0 3.52917 -159.43 731.757)"/><path d="M1127.9 425.9s13 48 10 55-15 19-21 20-22-14-32-17-29-24-29-24l1-29 24-35 47 30Z" style="fill:#003866;fill-rule:nonzero;stroke:#000;stroke-width:8px" transform="matrix(3.52917 0 0 3.52917 -159.43 731.757)"/><path d="M1126.9 480.9c-11-37-39-67-39-67M1111.9 482.9c-19-32-42-48-42-48M1027.9 494.9s5 45 0 56-30 28-36 24c-14-17-26-22-36-33s-4-76-4-76l38-17 38 46Z" style="fill:#003866;fill-rule:nonzero;stroke:#000;stroke-width:8px" transform="matrix(3.52917 0 0 3.52917 -159.43 731.757)"/><path d="M989.9 470.9c17 30 22 97 22 97M965.3 490c19.6 18.9 22.6 77.9 22.6 77.9M912.8 563.5c-.9 7.4-15.9 13.4-15.9 13.4l-60-22-14-55 18-33 58 1 19 40 8 41s-12.2 7.2-13.1 14.6Z" style="fill:#003866;fill-rule:nonzero;stroke:#000;stroke-width:8px" transform="matrix(3.52917 0 0 3.52917 -159.43 731.757)"/><path d="M885.9 491.9c12 30 4 70 4 70M868.9 492.9c-1 23 12 50 7 64M1127.3 316c21 4.5 28.5 36 13.5 52.5 13.5 7.5 48 54 22.5 84-5.8 2.5-21.6-10.6-40.1-20.3-15-7.8-32.8-11.3-40.4-18.7-17-16.5-51.5-25.5-51.5-25.5l-3-55.5s78-21 99-16.5Z" style="fill:#003866;fill-rule:nonzero;stroke:#000;stroke-width:8px" transform="matrix(3.52917 0 0 3.52917 -159.43 731.757)"/><path d="M1107.9 362.9c6 9 25 12 32.9 5.6M1158.9 422.9s-18-30-49-42c-24-11-25-34-25-34M1116.9 326.9c12 4 16 20 7 27s-11-15-20-16M1154.9 434.9s-28-30-60-40-38-46-38-46M1064.3 551.5c-4.5-.8-17.1-22.4-35.6-42-18.4-19.6-42.7-37.2-46.4-50-7.5-25.5 1-59.5 1-59.5s46.5-21.5 60-21.5 38 14 39.5 35-5.1 31.6-17 37c0 2 25.5 25 22.5 55s-15 47.5-24 46Z" style="fill:#003866;fill-rule:nonzero;stroke:#000;stroke-width:8px" transform="matrix(3.52917 0 0 3.52917 -159.43 731.757)"/><path d="M1065.8 450.5c-8.9 3.4-30.9 1.4-38.9-22.6" style="fill:#003866;fill-rule:nonzero;stroke:#000;stroke-width:8px" transform="matrix(3.52917 0 0 3.52917 -159.43 731.757)"/><path d="M1070.9 531.9c3-30-15-55-33-70s-25-27-21-39 13-16 23-15 7 25 16 28 17-10 13-23-22.4-25.1-30-25c-7.6.1-34 8-36 14s-5 28-2 41 56 57 60 92M965.3 490c19.5-1.5 22.5-27 15-49.5s-37.5-30-52.5-28.5c-39 3-47.5 34-35.5 71.5s23.5 41 20.5 80c-1.5 12 16.5 16.5 24 16.5 30-21 33-69 28.5-90Z" style="fill:#003866;fill-rule:nonzero;stroke:#000;stroke-width:8px" transform="matrix(3.52917 0 0 3.52917 -159.43 731.757)"/><path d="M965.3 490c-5.4.9-22.4-.1-26.4-18.1" style="fill:#003866;fill-rule:nonzero;stroke:#000;stroke-width:8px" transform="matrix(3.52917 0 0 3.52917 -159.43 731.757)"/><path d="M943.9 571.9s8-41-6-65-22-58-5-62 18 18 23 22 15-2 14-12-9-23-29-27-41 14-38 30 14 32 21 56 4 62 4 62" style="fill:#003866;fill-rule:nonzero;stroke:#000;stroke-width:8px" transform="matrix(3.52917 0 0 3.52917 -159.43 731.757)"/><path d="M800.3 520s-9-52.5 0-72 23.5-31 47.5-34 43.5 10 49.5 25 14 49.5-11.5 58.5c-34.5 13.5-45-16.5-45-16.5s31.5 39 30 66-70.5-27-70.5-27Z" style="fill:#003866;fill-rule:nonzero;stroke:#000;stroke-width:8px" transform="matrix(3.52917 0 0 3.52917 -159.43 731.757)"/><path d="M838.9 528.9s-18-41-13-58 17-23 26-19 8 23 12 26 13 2 17-2 3-25-8-35c-28-19-51-3-60 15s8 63 8 63" style="fill:none;fill-rule:nonzero;stroke:#000;stroke-width:8px" transform="matrix(3.52917 0 0 3.52917 -159.43 731.757)"/><path d="M461.9 292.9s-17 22-37 33-53 29-41 66c32 0 57-3 57-3l43-17 4-51-26-28Z" style="fill:#003866;fill-rule:nonzero;stroke:#000;stroke-width:8px" transform="matrix(3.52917 0 0 3.52917 -159.43 731.757)"/><path d="m393.9 364.9 63-36M395.9 379.9l61-22" style="fill:none;fill-rule:nonzero;stroke:#000;stroke-width:8px" transform="matrix(3.52917 0 0 3.52917 -159.43 731.757)"/><path d="M469.9 425.9s-13 48-10 55 15 19 21 20 22-14 32-17 29-24 29-24l-1-29-24-35-47 30Z" style="fill:#003866;fill-rule:nonzero;stroke:#000;stroke-width:8px" transform="matrix(3.52917 0 0 3.52917 -159.43 731.757)"/><path d="M470.9 480.9c11-37 39-67 39-67M485.9 482.9c19-32 42-48 42-48M569.9 494.9s-5 45 0 56 30 28 36 24c14-17 26-22 36-33s4-76 4-76l-38-17-38 46Z" style="fill:#003866;fill-rule:nonzero;stroke:#000;stroke-width:8px" transform="matrix(3.52917 0 0 3.52917 -159.43 731.757)"/><path d="M607.9 470.9c-17 30-22 97-22 97M632.5 490c-19.6 18.9-22.6 77.9-22.6 77.9M685 563.5c.9 7.4 15.9 13.4 15.9 13.4l60-22 14-55-18-33-58 1-19 40-8 41s12.2 7.2 13.1 14.6Z" style="fill:#003866;fill-rule:nonzero;stroke:#000;stroke-width:8px" transform="matrix(3.52917 0 0 3.52917 -159.43 731.757)"/><path d="M711.9 491.9c-12 30-4 70-4 70M728.9 492.9c1 23-12 50-7 64M470.5 316c-21 4.5-28.5 36-13.5 52.5-13.5 7.5-48 54-22.5 84 5.8 2.5 21.6-10.6 40.1-20.3 15-7.8 32.8-11.3 40.4-18.7 17-16.5 51.5-25.5 51.5-25.5l3-55.5s-78-21-99-16.5Z" style="fill:#003866;fill-rule:nonzero;stroke:#000;stroke-width:8px" transform="matrix(3.52917 0 0 3.52917 -159.43 731.757)"/><path d="M489.9 362.9c-6 9-25 12-32.9 5.6M438.9 422.9s18-30 49-42c24-11 25-34 25-34M480.9 326.9c-12 4-16 20-7 27s11-15 20-16M442.9 434.9s28-30 60-40 38-46 38-46M533.5 551.5c4.5-.8 17.1-22.4 35.6-42 18.4-19.6 42.7-37.2 46.4-50 7.5-25.5-1-59.5-1-59.5s-46.5-21.5-60-21.5-38 14-39.5 35 5.1 31.6 17 37c0 2-25.5 25-22.5 55s15 47.5 24 46Z" style="fill:#003866;fill-rule:nonzero;stroke:#000;stroke-width:8px" transform="matrix(3.52917 0 0 3.52917 -159.43 731.757)"/><path d="M532 450.5c8.9 3.4 30.9 1.4 38.9-22.6" style="fill:#003866;fill-rule:nonzero;stroke:#000;stroke-width:8px" transform="matrix(3.52917 0 0 3.52917 -159.43 731.757)"/><path d="M526.9 531.9c-3-30 15-55 33-70s25-27 21-39-13-16-23-15-7 25-16 28-17-10-13-23 22.4-25.1 30-25c7.6.1 34 8 36 14s5 28 2 41-56 57-60 92M632.5 490c-19.5-1.5-22.5-27-15-49.5s37.5-30 52.5-28.5c39 3 47.5 34 35.5 71.5s-23.5 41-20.5 80c1.5 12-16.5 16.5-24 16.5-30-21-33-69-28.5-90Z" style="fill:#003866;fill-rule:nonzero;stroke:#000;stroke-width:8px" transform="matrix(3.52917 0 0 3.52917 -159.43 731.757)"/><path d="M632.5 490c5.4.9 22.4-.1 26.4-18.1" style="fill:#003866;fill-rule:nonzero;stroke:#000;stroke-width:8px" transform="matrix(3.52917 0 0 3.52917 -159.43 731.757)"/><path d="M653.9 571.9s-8-41 6-65 22-58 5-62-18 18-23 22-15-2-14-12 9-23 29-27 41 14 38 30-14 32-21 56-4 62-4 62" style="fill:#003866;fill-rule:nonzero;stroke:#000;stroke-width:8px" transform="matrix(3.52917 0 0 3.52917 -159.43 731.757)"/><path d="M797.5 520s9-52.5 0-72-23.5-31-47.5-34-43.5 10-49.5 25-14 49.5 11.5 58.5c34.5 13.5 45-16.5 45-16.5s-31.5 39-30 66 70.5-27 70.5-27Z" style="fill:#003866;fill-rule:nonzero;stroke:#000;stroke-width:8px" transform="matrix(3.52917 0 0 3.52917 -159.43 731.757)"/><path d="M758.9 528.9s18-41 13-58-17-23-26-19-8 23-12 26-13 2-17-2-3-25 8-35c28-19 51-3 60 15s-8 63-8 63" style="fill:#003866;fill-rule:nonzero;stroke:#000;stroke-width:8px" transform="matrix(3.52917 0 0 3.52917 -159.43 731.757)"/><path d="M587.9 348.9c4 5-10 8-7 20 3 9 17 14 31 10 19-6 21-27 16-41s-22-23-37-24-69 21-99-6c-23-23-10-53 9-68-17 7-41 35-43 51s16 54 48 60 40 8 51 3c0 0 18-21 31-5Z" style="fill:#ff7300;fill-rule:nonzero;stroke:#000;stroke-width:8px" transform="matrix(3.52917 0 0 3.52917 -159.43 731.757)"/><path d="m610.9 292.9-74-48s-19-12-36-5c-19 15-32 45-9 68 30 27 84 5 99 6s32 10 37 24 3 35-16 41c-14 4-28-1-31-10-3-12 11-15 7-20-13-16-31 5-31 5-13 21-4 42 25 49s66-1 76-47-47-63-47-63Z" style="fill:#ffce00;fill-rule:nonzero;stroke:#000;stroke-width:8px" transform="matrix(3.52917 0 0 3.52917 -159.43 731.757)"/><path d="M458.9 286.9c7-13 19-11 19-11M461.9 307.9c6-13 20-15 20-15M474.9 329.9c4-18 17-22 17-22M504.9 316.9c-12 11-5 32-5 32M522.9 323.9c-4 7-3 28-3 28M540.9 321.9c3 9-1 32-1 32M564.9 345.9s5-18 2-27M577.9 340.9s6-21 25-24M587.9 348.9c14-21 40-11 40-11M582.9 359.9c34 1 37 12 37 12" style="fill:none;fill-rule:nonzero;stroke:#000;stroke-width:8px" transform="matrix(3.52917 0 0 3.52917 -159.43 731.757)"/><path d="M599.6 265.1c-6.3-12.9-22.7-23.1-40.7-24.1-24-1.3-51 22-53 33s0 27 10 29c2.6.5 8.4 1.2 15.8 1.7-4.8-7.4-5.5-33.7 22.2-34.7 25.9-.9 23.6 22 20.7 35 9.6-.8 17.8-2.3 22.3-5 10-7.1 9-22.1 2.7-34.9Z" style="fill:#fff;fill-rule:nonzero;stroke:#000;stroke-width:8px" transform="matrix(3.52917 0 0 3.52917 -159.43 731.757)"/><path d="M553.9 269.9c-27.7 1-27 27.3-22.2 34.7 12.3.9 29 1.4 42.9.3 2.9-12.9 5.2-35.9-20.7-35Z" style="fill:red;fill-rule:nonzero;stroke:#000;stroke-width:8px" transform="matrix(3.52917 0 0 3.52917 -159.43 731.757)"/><path d="M1009.9 348.9c-4 5 10 8 7 20-3 9-17 14-31 10-19-6-21-27-16-41s22-23 37-24 69 21 99-6c23-23 10-53-9-68 17 7 41 35 43 51s-16 54-48 60-40 8-51 3c0 0-18-21-31-5Z" style="fill:#ff7300;fill-rule:nonzero;stroke:#000;stroke-width:8px" transform="matrix(3.52917 0 0 3.52917 -159.43 731.757)"/><path d="m986.9 292.9 74-48s19-12 36-5c19 15 32 45 9 68-30 27-84 5-99 6s-32 10-37 24-3 35 16 41c14 4 28-1 31-10 3-12-11-15-7-20 13-16 31 5 31 5 13 21 4 42-25 49s-66-1-76-47 47-63 47-63Z" style="fill:#ffce00;fill-rule:nonzero;stroke:#000;stroke-width:8px" transform="matrix(3.52917 0 0 3.52917 -159.43 731.757)"/><path d="M1138.9 286.9c-7-13-19-11-19-11M1135.9 307.9c-6-13-20-15-20-15M1122.9 329.9c-4-18-17-22-17-22M1092.9 316.9c12 11 5 32 5 32M1074.9 323.9c4 7 3 28 3 28M1056.9 321.9c-3 9 1 32 1 32M1032.9 345.9s-5-18-2-27M1019.9 340.9s-6-21-25-24M1009.9 348.9c-14-21-40-11-40-11M1014.9 359.9c-34 1-37 12-37 12" style="fill:none;fill-rule:nonzero;stroke:#000;stroke-width:8px" transform="matrix(3.52917 0 0 3.52917 -159.43 731.757)"/><path d="M998.2 265.1c6.3-12.9 22.7-23.1 40.7-24.1 24-1.3 51 22 53 33s0 27-10 29c-2.6.5-8.4 1.2-15.8 1.7 4.8-7.4 5.5-33.7-22.2-34.7-25.9-.9-23.6 22-20.7 35-9.6-.8-17.8-2.3-22.3-5-10-7.1-9-22.1-2.7-34.9Z" style="fill:#fff;fill-rule:nonzero;stroke:#000;stroke-width:8px" transform="matrix(3.52917 0 0 3.52917 -159.43 731.757)"/><path d="M1043.9 269.9c27.7 1 27 27.3 22.2 34.7-12.3.9-29 1.4-42.9.3-2.9-12.9-5.2-35.9 20.7-35Z" style="fill:red;fill-rule:nonzero;stroke:#000;stroke-width:8px" transform="matrix(3.52917 0 0 3.52917 -159.43 731.757)"/><path d="M391.9 858.9s41 70 94 110 79 42 79 42l111-44 33-236-55-84-173-4-96 77-21 49 33 60-5 30Z" style="fill:#003866;fill-rule:nonzero;stroke:#000;stroke-width:8px" transform="matrix(3.52917 0 0 3.52917 -159.43 731.757)"/><path d="M638.9 797.9c-4.5 0-24-11.3-45.4-21s-44.6-18-52.6-20c-16-4-31 2-42-14s11-44 40-39c9 3 17 19 34 27s62 13 69 20 15 36 15 36-9 11-18 11Z" style="fill:#fff;fill-rule:nonzero;stroke:#000;stroke-width:8px" transform="matrix(3.52917 0 0 3.52917 -159.43 731.757)"/><path d="M580.9 695.9s-19 66-29 71-15 0-26 3-9 40-1 46 25 5 30 1c9 22 29 11 32-4s36-116 36-116M492.9 891.9c-15 0-24-17-36-13s-23 14-8 32c-7 9-1 26 15 32s32-11 32-11l82-22 21 7 21-45-3-32s-8-16-22-12-8 28-16 40-71 24-86 24Z" style="fill:#fff;fill-rule:nonzero;stroke:#000;stroke-width:8px" transform="matrix(3.52917 0 0 3.52917 -159.43 731.757)"/><path d="M517.9 854.9c6 7 1 77 1 77s-19 3-20 24 20 26 37 27c7 13 19 12 31 11s20-28 16-38-15-13-15-13-7-77 1-85 2-34 2-34-3-9-12-9-21 19-21 19-5-13-17-5-9 19-3 26Z" style="fill:#fff;fill-rule:nonzero;stroke:#000;stroke-width:8px" transform="matrix(3.52917 0 0 3.52917 -159.43 731.757)"/><g transform="matrix(3.52917 0 0 3.52917 -159.43 731.757)"><path d="m358.9 787.9 9 16 21 50s14 28 35 36 69 1 87-18 18-75-3-99-65-25-65-25l-84 40Z" style="fill:#fff;fill-rule:nonzero;stroke:#000;stroke-width:8px"/><path d="m412.9 793.9-18 8-27 2 21 50 44-30-1-18-9-11" style="fill:#9b0000;fill-rule:nonzero;stroke:#000;stroke-width:8px"/><circle cx="453.9" cy="849.9" r="14" style="fill:#fff;stroke:#000;stroke-width:8px"/><circle cx="453.9" cy="849.9" r="6.2"/><path d="M504.9 798.9s-23 13-26 21 19 26 19 26M403.9 860.9c15 5 18 19 18 19M437.9 741.9s2 35 9 40 16 13 10 22-25.6 8.1-25.6 8.1 1.5-11.7-7.4-13.1" style="fill:none;fill-rule:nonzero;stroke:#000;stroke-width:8px"/><path d="M372.1 814.9c1.7 3.6 3.8 6 3.8 6l48-22s-.8-4.2-2.2-8.1l-49.6 24.1Z" style="fill:#fff;fill-rule:nonzero"/><path d="M417.9 784.9c-6.7-2.7-10.4 1.5-12 7-5-6-18 1-19 9-6-4-18 0-17 7 .4 2.5 1.3 4.9 2.2 7l49.6-24c-1-2.8-2.3-5.3-3.8-6Z" style="fill:red;fill-rule:nonzero"/><path d="m431.3 812-47.6 27.5s1.2 4.1 3 7.8l47.5-29.3c-1.5-3.5-2.9-6-2.9-6Z" style="fill:#fff;fill-rule:nonzero"/><path d="m434.1 818-47.5 29.3c1.3 2.6 2.8 5 4.4 5.5 7 2 10.2-2.5 11.2-8.2 5.6 5.5 17.8-2.8 18-10.9 6.4 3.4 17.9-1.8 16.2-8.7-.6-2.5-1.4-4.9-2.3-7Z" style="fill:red;fill-rule:nonzero"/><path d="m375.9 820.9 48-22s-2.3-12.5-6-14c-6.7-2.7-10.4 1.5-12 7-5-6-18 1-19 9-6-4-18 0-17 7s6 13 6 13ZM431.3 812l-47.6 27.5s3.6 12.2 7.4 13.3c7 2 10.2-2.5 11.2-8.2 5.6 5.5 17.8-2.8 18-10.9 6.4 3.4 17.9-1.8 16.2-8.7-1.7-6.9-5.2-13-5.2-13Z" style="fill:none;fill-rule:nonzero;stroke:#000;stroke-width:8px"/></g><path d="m519.9 702.9 135 13 65-131-19-8-197-5 16 131Z" style="fill:#ff7300;fill-rule:nonzero;stroke:#000;stroke-width:8px" transform="matrix(3.52917 0 0 3.52917 -159.43 731.757)"/><path d="m522.9 609.9 162 6M545.9 677.9l108 11M566.9 676.9l1-65M592.9 678.9l2-65M622.9 680.9l2-64M534.9 607.9l1-18M557.9 607.9l1-16M581.9 608.9v-18M604.9 610.9v-18M628.9 611.9v-17M649.9 615.9v-20" style="fill:none;fill-rule:nonzero;stroke:#000;stroke-width:8px" transform="matrix(3.52917 0 0 3.52917 -159.43 731.757)"/><path d="M131.9 620.9s-39 15-51 58-17 144-2 170 62 28 76-5 14-101 14-101l4-106-41-16Z" style="fill:#0074ff;fill-rule:nonzero;stroke:#000;stroke-width:8px" transform="matrix(3.52917 0 0 3.52917 -159.43 731.757)"/><path d="M135.9 667.9s-18 14-23 26-16 117-13 124 21 11 27 2 20-108 20-108l-11-44Z" style="fill:#003866;fill-rule:nonzero;stroke:#000;stroke-width:8px" transform="matrix(3.52917 0 0 3.52917 -159.43 731.757)"/><path d="m75.9 709.9 36-15M70.9 745.9l37-28M69.9 778.9l35-29M71.9 813.9l27-27M82.9 851.9l17-34M106.9 866.9l3-42M136.9 862.9l-11-38M158.9 827.9l-25-27M164.9 787.9l-25-25" style="fill:none;fill-rule:nonzero;stroke:#000;stroke-width:8px" transform="matrix(3.52917 0 0 3.52917 -159.43 731.757)"/><path d="M199.9 805.9s-22 32-68 54c-32 15-59 57-48 79s151 37 151 37 28 3 24-24c24 1 42-16 56-14s6 12 19 17 22 2 22 2 35-27 37-35 0-16-4-36-30-89-30-89l-31-62-93 23-35 48Z" style="fill:#ffce00;fill-rule:nonzero;stroke:#000;stroke-width:8px" transform="matrix(3.52917 0 0 3.52917 -159.43 731.757)"/><path d="m258.9 951.9-1-21M208.9 910.9s16 27 44 21 29-67 26-81-10-23-10-23" style="fill:none;fill-rule:nonzero;stroke:#000;stroke-width:8px" transform="matrix(3.52917 0 0 3.52917 -159.43 731.757)"/><path d="M113.9 964.9c25-13 38 6 38 6s25-13 46 5c25.3-9.9 37.5 3 39.7 5.6-.5-2.2-.7-3.6-.7-3.6s-3-19-17-23-22 7-22 7-10-16-21-18-22 6-22 6-9-8-19-10-19 7-19 7-3-11-13-16-19-3-24 3c-1.4 1.7-2.9 9.2-2.8 18.7 9.7-2.3 27.1-3.6 36.8 12.3Z" style="fill:red;fill-rule:nonzero" transform="matrix(3.52917 0 0 3.52917 -159.43 731.757)"/><path d="M254.9 1011.9c-11.4-8.3-15.8-23.5-17.3-30.4-2.1-2.6-14.4-15.5-39.7-5.6-21-18-46-5-46-5s-13-19-38-6c-9.7-15.9-27-14.6-36.8-12.3.2 23.5 9.6 60.1 50.8 57.3 15 8 42 4 42 4s18 12 44 0c20 13 44 0 41-2Z" style="fill:#fff;fill-rule:nonzero" transform="matrix(3.52917 0 0 3.52917 -159.43 731.757)"/><path d="M79.9 933.9c-5 6-10 80 48 76 15 8 42 4 42 4s18 12 44 0c20 13 44 0 41-2-15-11-18-34-18-34s-3-19-17-23-22 7-22 7-10-16-21-18-22 6-22 6-9-8-19-10-19 7-19 7-3-11-13-16-19-3-24 3Z" style="fill:none;fill-rule:nonzero;stroke:#000;stroke-width:8px" transform="matrix(3.52917 0 0 3.52917 -159.43 731.757)"/><path d="M213.9 1013.9c-22-22-17-52-17-52M169.9 1014.2c-12-8.3-23-36.3-15-64.3M127.9 1009.9c-22-24-11-63-11-63" style="fill:none;fill-rule:nonzero;stroke:#000;stroke-width:8px" transform="matrix(3.52917 0 0 3.52917 -159.43 731.757)"/><path d="M392.9 921.9c-9-11-39 2-41 12-1.6 8 1.9 13.4 1.3 22.3 24.2-15 36.4-10 41.6-5.8 2.8-12.3 2.4-23.2-1.9-28.5Z" style="fill:red;fill-rule:nonzero" transform="matrix(3.52917 0 0 3.52917 -159.43 731.757)"/><path d="M353.2 956.3c-.1 2.3-.5 4.8-1.3 7.7-4 14-35 43-35 43s41 5 59-17c9.3-11.4 15.9-26.2 18.9-39.4-5.1-4.4-17.4-9.3-41.6 5.7Z" style="fill:#fff;fill-rule:nonzero" transform="matrix(3.52917 0 0 3.52917 -159.43 731.757)"/><path d="M351.9 933.9c-2 10 4 16 0 30s-35 43-35 43 41 5 59-17 26-57 17-68-39 2-41 12Z" style="fill:none;fill-rule:nonzero;stroke:#000;stroke-width:8px" transform="matrix(3.52917 0 0 3.52917 -159.43 731.757)"/><g transform="matrix(3.52917 0 0 3.52917 -159.43 731.757)"><circle cx="199.9" cy="888.9" r="28" style="fill:#0074ff;stroke:#000;stroke-width:8px"/><circle cx="199.9" cy="888.9" r="12.4" style="fill:red;stroke:#000;stroke-width:8px"/></g><path d="M443.9 576.9c-85-57-172-46-194-44s-83 15-99 27-28 41-21 52c-6 10-8 38 3 42s44 23 44 23l56-2 31-11 97-10s168-20 83-77Z" style="fill:#ffce00;fill-rule:nonzero;stroke:#000;stroke-width:8px" transform="matrix(3.52917 0 0 3.52917 -159.43 731.757)"/><path d="M129.9 611.9c6-2 15-5 26-1M213.9 615.9c15 11 31 12 42 21s8 27 8 27" style="fill:none;fill-rule:nonzero;stroke:#000;stroke-width:8px" transform="matrix(3.52917 0 0 3.52917 -159.43 731.757)"/><path d="M249.9 532.9s32 26 31 55-25 49-25 49M82.9 675.9l47-8" style="fill:none;fill-rule:nonzero;stroke:#000;stroke-width:8px" transform="matrix(3.52917 0 0 3.52917 -159.43 731.757)"/><path d="M198.9 799.9s-6 36 6 46 48 4 49-22-27-37-27-37l-28 13Z" style="fill:#fff;fill-rule:nonzero;stroke:#000;stroke-width:8px" transform="matrix(3.52917 0 0 3.52917 -159.43 731.757)"/><path d="M252.9 774.9s-6 43 8 56 45 5 43-23c-1-23-28-40-28-40l-23 7Z" style="fill:#fff;fill-rule:nonzero;stroke:#000;stroke-width:8px" transform="matrix(3.52917 0 0 3.52917 -159.43 731.757)"/><path d="M307.9 751.9s-16 44 2 59c24 18 57 2 53-22s-28-42-28-42l-27 5Z" style="fill:#fff;fill-rule:nonzero;stroke:#000;stroke-width:8px" transform="matrix(3.52917 0 0 3.52917 -159.43 731.757)"/><path d="M228.9 849.9s-7-24-2-26 14 21 14 21M281.9 834.9s-5-24-1-26 15 21 15 21M333.9 818.9s-5-26 0-28 15 22 15 22" style="fill:none;fill-rule:nonzero;stroke:#000;stroke-width:8px" transform="matrix(3.52917 0 0 3.52917 -159.43 731.757)"/><path d="m311.9 646.9-167 38 9 39s33 50 45 76c3 1 151-56 151-56l-20-88-18-9Z" style="fill:#ff7300;fill-rule:nonzero;stroke:#000;stroke-width:8px" transform="matrix(3.52917 0 0 3.52917 -159.43 731.757)"/><path d="m196.9 755.9 16 37M222.9 746.9l15 38M245.9 738.9l15 37M265.9 730.9l14 36M290.9 723.9l14 35M313.9 716.9l11 31M259.9 697.9l70-20" style="fill:none;fill-rule:nonzero;stroke:#000;stroke-width:8px" transform="matrix(3.52917 0 0 3.52917 -159.43 731.757)"/><path d="M156.9 677.9c20-13 37-6 37-6s16.1-11.4 35.7-9.5c-2.6-13.2-14.5-22.1-35.7-10.5-23-8-38 9-38 9s-18-13-23-7c-2 2.4-1.1 12.9 1.5 25.1 5.7-3.6 13.6-6 22.5-1.1Z" style="fill:red;fill-rule:nonzero" transform="matrix(3.52917 0 0 3.52917 -159.43 731.757)"/><path d="m229.9 663.9-.3-1.5c-19.6-2-35.7 9.5-35.7 9.5s-17-7-37 6c-8.9-4.9-16.7-2.6-22.5 1.1 3.9 18.2 11.7 40.1 19.5 44.9 13 8 29 4 32-8 15 8 28 2 36-7 14 4 32-1 38-11-9-8-28-20-30-34Z" style="fill:#fff;fill-rule:nonzero" transform="matrix(3.52917 0 0 3.52917 -159.43 731.757)"/><path d="M132.9 653.9c-5 6 8 62 21 70s29 4 32-8c15 8 28 2 36-7 14 4 32-1 38-11-9-8-28-20-30-34s-14-24-36-12c-23-8-38 9-38 9s-18-13-23-7Z" style="fill:none;fill-rule:nonzero;stroke:#000;stroke-width:8px" transform="matrix(3.52917 0 0 3.52917 -159.43 731.757)"/><path d="M185.9 715.9c-32-26-30-55-30-55M218.9 707.9c-36-30-25-56-25-56" style="fill:none;fill-rule:nonzero;stroke:#000;stroke-width:8px" transform="matrix(3.52917 0 0 3.52917 -159.43 731.757)"/><path d="M566.9 676.9c-35 33-204 112-204 112l-51-142 184-104s60 103 71 134Z" style="fill:#0074ff;fill-rule:nonzero;stroke:#000;stroke-width:8px" transform="matrix(3.52917 0 0 3.52917 -159.43 731.757)"/><path d="M348.9 748.9c53-17 203-100 203-100M411.9 716.9l-47-99M487.9 677.9l-54-100" style="fill:none;fill-rule:nonzero;stroke:#000;stroke-width:8px" transform="matrix(3.52917 0 0 3.52917 -159.43 731.757)"/><g transform="matrix(3.52917 0 0 3.52917 -159.43 731.757)"><circle cx="204.9" cy="592.9" r="26" style="fill:#0074ff;stroke:#000;stroke-width:8px"/><circle cx="204.9" cy="592.9" r="11.5" style="fill:red;stroke:#000;stroke-width:8px"/></g><path d="m391 812.8-4.1-11.9M410.5 803.7l-4.6-11.8M414.9 822.5l5.4 11.3M396.3 832.5l6 12.2M700.4 919.9l-12.5-17.5" style="fill:none;fill-rule:nonzero;stroke:#000;stroke-width:8px" transform="matrix(3.52917 0 0 3.52917 -159.43 731.757)"/><circle cx="826.9" cy="318.9" r="23.5" style="fill:#ffce00;stroke:#000;stroke-width:8px" transform="matrix(3.52917 0 0 3.52917 -159.43 731.757)"/><circle cx="881.9" cy="315.9" r="23.5" style="fill:#ffce00;stroke:#000;stroke-width:8px" transform="matrix(3.52917 0 0 3.52917 -159.43 731.757)"/><circle cx="936.4" cy="298.9" r="23.5" style="fill:#ffce00;stroke:#000;stroke-width:8px" transform="matrix(3.52917 0 0 3.52917 -159.43 731.757)"/><circle cx="974.9" cy="248.4" r="23" style="fill:#ffce00;stroke:#000;stroke-width:7.67px" transform="matrix(3.52917 0 0 3.52917 -159.43 731.757)"/><circle cx="1018.9" cy="216.9" r="23.5" style="fill:#ffce00;stroke:#000;stroke-width:8px" transform="matrix(3.52917 0 0 3.52917 -159.43 731.757)"/><circle cx="1072.9" cy="214.9" r="23.5" style="fill:#ffce00;stroke:#000;stroke-width:8px" transform="matrix(3.52917 0 0 3.52917 -159.43 731.757)"/><circle cx="1126.9" cy="211.9" r="23.5" style="fill:#ffce00;stroke:#000;stroke-width:8px" transform="matrix(3.52917 0 0 3.52917 -159.43 731.757)"/><circle cx="1180.9" cy="211.4" r="23" style="fill:#ffce00;stroke:#000;stroke-width:8px" transform="matrix(3.52917 0 0 3.52917 -159.43 731.757)"/><circle cx="1235.9" cy="211.9" r="23.5" style="fill:#ffce00;stroke:#000;stroke-width:8px" transform="matrix(3.52917 0 0 3.52917 -159.43 731.757)"/><path d="M591.2 1023.3c20.7 2.7 46.3.6 48.7-5.3l7.6-42.7-45.6-2.8-10.7 50.8Z" style="fill:#0074ff;fill-rule:nonzero;stroke:#000;stroke-width:8px" transform="matrix(3.52917 0 0 3.52917 -159.43 731.757)"/><path d="m623.4 908.4-38.9 23.2c-11.2 35.4-20.1 71.1-19.6 79.3.4 6.5 12.2 10.5 26.3 12.3l10.7-50.8 45.6 2.8 6.1-34.4-30.2-32.4Z" style="fill:#0074ff;fill-rule:nonzero;stroke:#000;stroke-width:8px" transform="matrix(3.52917 0 0 3.52917 -159.43 731.757)"/><path d="M607.9 910.9s-2.5 32.5-.5 36 14.5 3 17-1 7.5-33.5 7.5-33.5l-9.5-12-14.5 10.5Z" style="fill:none;fill-rule:nonzero;stroke:#000;stroke-width:8px" transform="matrix(3.52917 0 0 3.52917 -159.43 731.757)"/><path d="M616.9 854.9c-8.8 9.3-21.6 42.9-32.4 76.7l38.9-23.2 30.2 32.4 17.3-96.9s-36-8-54 11Z" style="fill:#ff7300;fill-rule:nonzero;stroke:#000;stroke-width:8px" transform="matrix(3.52917 0 0 3.52917 -159.43 731.757)"/><path d="m593.9 905.4 43.5-23.5M658.9 903.4l-38.5-40M664.9 869.4l-14-16M599.9 987.4l42.5 6.5M595.9 1002.4l44 6.5M623.4 908.4l-11-12.5M700.4 919.9l-12.5-17.5" style="fill:none;fill-rule:nonzero;stroke:#000;stroke-width:8px" transform="matrix(3.52917 0 0 3.52917 -159.43 731.757)"/><path d="M720.5 979.4c.6-10.2 1.4-21.5 2.2-32.9L700.4 920l-47.8 26.5-12.7 71.5c-1.6 4.1 11.3 7.6 27.2 9.4l6.8-48.4 46.6.4Z" style="fill:#0074ff;fill-rule:nonzero;stroke:#000;stroke-width:8px" transform="matrix(3.52917 0 0 3.52917 -159.43 731.757)"/><path d="m720.5 979.4-46.6-.5-6.8 48.4c23.1 2.5 52.4 1.1 51.8-8.4-.3-4.7.4-20.1 1.6-39.5Z" style="fill:#0074ff;fill-rule:nonzero;stroke:#000;stroke-width:8px" transform="matrix(3.52917 0 0 3.52917 -159.43 731.757)"/><path d="m672.4 992.9 46.5 2M670.4 1009.4l47.5.5M679.4 922.9s-3 23.5-1 28.5 18 4.5 21-.5 4-31.5 4-31.5l-8.5-7.5-15.5 11Z" style="fill:none;fill-rule:nonzero;stroke:#000;stroke-width:8px" transform="matrix(3.52917 0 0 3.52917 -159.43 731.757)"/><path d="m670.9 843.9-18.3 102.5 47.8-26.5 22.3 26.5c2.8-40.9 6.2-83.5 6.2-83.5 18-19-58-19-58-19Z" style="fill:#ff7300;fill-rule:nonzero;stroke:#000;stroke-width:8px" transform="matrix(3.52917 0 0 3.52917 -159.43 731.757)"/><path d="m657.4 919.9 46.5-27.5M723.9 914.9c-18.5-20-31.5-41.5-31.5-41.5M663.9 885.4l28.5-12M726.4 880.9l-18.5-17.5" style="fill:none;fill-rule:nonzero;stroke:#000;stroke-width:8px" transform="matrix(3.52917 0 0 3.52917 -159.43 731.757)"/><path d="m799.5 950.7-35.6-32.3-40.6 31.2-4.4 69.3c-1.6 3.9 10.5 7.2 25.8 8.8l3.2-47.8h50.5-50.5l-3.2 47.8c24 2.5 55.8 1 55.2-8.8-.4-6.8-.5-36.4-.4-68.2Z" style="fill:#0074ff;fill-rule:nonzero;stroke:#000;stroke-width:8px" transform="matrix(3.52917 0 0 3.52917 -159.43 731.757)"/><path d="M749.9 919.9s-1 24.5 1 28 14 3 16 0 0-34.5 0-34.5l-17 6.5ZM748.9 995.9l50.5 1.5M746.4 1009.9l54.5.5" style="fill:none;fill-rule:nonzero;stroke:#000;stroke-width:8px" transform="matrix(3.52917 0 0 3.52917 -159.43 731.757)"/><path d="M799.5 950.7c.1-43.3.4-90.8.4-90.8-23-58-71 3-71 3l-5.6 86.7 40.6-31.2 35.6 32.3Z" style="fill:#ff7300;fill-rule:nonzero;stroke:#000;stroke-width:8px" transform="matrix(3.52917 0 0 3.52917 -159.43 731.757)"/><path d="m763.9 918.4 14-11M797.4 920.9l-36-31M726.4 916.9l53.5-47.5M797.4 882.4l-37-30" style="fill:none;fill-rule:nonzero;stroke:#000;stroke-width:8px" transform="matrix(3.52917 0 0 3.52917 -159.43 731.757)"/><path d="M1006.6 1023.3c-20.7 2.7-46.3.6-48.7-5.3l-7.6-42.7 45.6-2.8 10.7 50.8Z" style="fill:#0074ff;fill-rule:nonzero;stroke:#000;stroke-width:8px" transform="matrix(3.52917 0 0 3.52917 -159.43 731.757)"/><path d="m974.4 908.4 38.9 23.2c11.2 35.4 20.1 71.1 19.6 79.3-.4 6.5-12.2 10.5-26.3 12.3l-10.7-50.8-45.6 2.8-6.1-34.4 30.2-32.4Z" style="fill:#0074ff;fill-rule:nonzero;stroke:#000;stroke-width:8px" transform="matrix(3.52917 0 0 3.52917 -159.43 731.757)"/><path d="M989.9 910.9s2.5 32.5.5 36-14.5 3-17-1-7.5-33.5-7.5-33.5l9.5-12 14.5 10.5Z" style="fill:none;fill-rule:nonzero;stroke:#000;stroke-width:8px" transform="matrix(3.52917 0 0 3.52917 -159.43 731.757)"/><path d="M980.9 854.9c8.8 9.3 21.6 42.9 32.4 76.7l-38.9-23.2-30.2 32.4-17.3-96.9s36-8 54 11Z" style="fill:#ff7300;fill-rule:nonzero;stroke:#000;stroke-width:8px" transform="matrix(3.52917 0 0 3.52917 -159.43 731.757)"/><path d="m1003.9 905.4-43.5-23.5M938.9 903.4l38.5-40M932.9 869.4l14-16M997.9 987.4l-42.5 6.5M1001.9 1002.4l-44 6.5M974.4 908.4l11-12.5M897.4 919.9l12.5-17.5" style="fill:none;fill-rule:nonzero;stroke:#000;stroke-width:8px" transform="matrix(3.52917 0 0 3.52917 -159.43 731.757)"/><path d="M877.2 979.4c-.6-10.2-1.4-21.5-2.2-32.9l22.3-26.5 47.8 26.5 12.7 71.5c1.6 4.1-11.3 7.6-27.2 9.4l-6.8-48.4-46.6.4Z" style="fill:#0074ff;fill-rule:nonzero;stroke:#000;stroke-width:8px" transform="matrix(3.52917 0 0 3.52917 -159.43 731.757)"/><path d="m877.2 979.4 46.6-.5 6.8 48.4c-23.1 2.5-52.4 1.1-51.8-8.4.4-4.7-.4-20.1-1.6-39.5Z" style="fill:#0074ff;fill-rule:nonzero;stroke:#000;stroke-width:8px" transform="matrix(3.52917 0 0 3.52917 -159.43 731.757)"/><path d="m925.4 992.9-46.5 2M927.4 1009.4l-47.5.5M918.4 922.9s3 23.5 1 28.5-18 4.5-21-.5-4-31.5-4-31.5l8.5-7.5 15.5 11Z" style="fill:none;fill-rule:nonzero;stroke:#000;stroke-width:8px" transform="matrix(3.52917 0 0 3.52917 -159.43 731.757)"/><path d="m926.9 843.9 18.3 102.5-47.8-26.5-22.3 26.5c-2.8-40.9-6.2-83.5-6.2-83.5-18-19 58-19 58-19Z" style="fill:#ff7300;fill-rule:nonzero;stroke:#000;stroke-width:8px" transform="matrix(3.52917 0 0 3.52917 -159.43 731.757)"/><path d="m940.4 919.9-46.5-27.5M873.9 914.9c18.5-20 31.5-41.5 31.5-41.5M933.9 885.4l-28.5-12M871.4 880.9l18.5-17.5" style="fill:none;fill-rule:nonzero;stroke:#000;stroke-width:8px" transform="matrix(3.52917 0 0 3.52917 -159.43 731.757)"/><path d="m798.3 950.7 35.6-32.3 40.6 31.2 4.4 69.3c1.6 3.9-10.5 7.2-25.8 8.8l-3.2-47.8h-50.5 50.5l3.2 47.8c-24 2.5-55.8 1-55.2-8.8.4-6.8.5-36.4.4-68.2Z" style="fill:#0074ff;fill-rule:nonzero;stroke:#000;stroke-width:8px" transform="matrix(3.52917 0 0 3.52917 -159.43 731.757)"/><path d="M847.9 919.9s1 24.5-1 28-14 3-16 0 0-34.5 0-34.5l17 6.5ZM848.9 995.9l-50.5 1.5M851.4 1009.9l-54.5.5" style="fill:none;fill-rule:nonzero;stroke:#000;stroke-width:8px" transform="matrix(3.52917 0 0 3.52917 -159.43 731.757)"/><path d="M798.3 950.7c-.1-43.3-.4-90.8-.4-90.8 22-57 71 3 71 3l5.6 86.7-40.6-31.2-35.6 32.3Z" style="fill:#ff7300;fill-rule:nonzero;stroke:#000;stroke-width:8px" transform="matrix(3.52917 0 0 3.52917 -159.43 731.757)"/><path d="m833.9 918.4-14-11M800.4 920.9l36-31M871.4 916.9l-53.5-47.5M800.4 882.4l37-30" style="fill:none;fill-rule:nonzero;stroke:#000;stroke-width:8px" transform="matrix(3.52917 0 0 3.52917 -159.43 731.757)"/><path d="M954.9 797.9s42 21 30 71c-43-1-58-25-58-25s-10 22-24 33c-22-12-23-25-23-25s-12 21-24 28c-17-15-15-12-22-26s-12-62-12-62l98-13 35 19Z" style="fill:#003866;fill-rule:nonzero;stroke:#000;stroke-width:8px" transform="matrix(3.52917 0 0 3.52917 -159.43 731.757)"/><path d="M926.9 843.9c-5-8-3-47-3-47M879.9 851.9c4-25-1-54-1-54M944.9 789.9s27 35 24 63c-34-25-36-59-36-59M910.9 797.9s7 39-9 58c-11-21-14-58-14-58M862.9 798.9s7 49-7 60c-20-20-14-61-14-61" style="fill:none;fill-rule:nonzero;stroke:#000;stroke-width:8px" transform="matrix(3.52917 0 0 3.52917 -159.43 731.757)"/><path d="M642.9 790.9s-42 28-30 78c43-1 58-25 58-25s10 22 24 33c22-12 23-25 23-25s12 21 24 28c17-15 16-15 22-26s10-61 10-61l-96-14-35 12Z" style="fill:#003866;fill-rule:nonzero;stroke:#000;stroke-width:8px" transform="matrix(3.52917 0 0 3.52917 -159.43 731.757)"/><path d="M670.9 843.9c5-8 3-47 3-47M717.9 851.9c-4-25 1-54 1-54M652.9 789.9s-27 35-24 63c34-25 36-59 36-59M686.9 797.9s-7 39 9 58c11-21 14-58 14-58M734.9 798.9s-7 49 7 60c20-20 14-61 14-61M1074.9 609.9l-162 6M1051.9 677.9 905.5 691M1030.9 676.9l-1-65M1004.9 678.9l-2-65M974.9 680.9l-2-64M942.8 683.3l-2-64M1062.9 607.9l-1-18M1039.9 607.9l-1-16M1015.9 608.9v-18M992.9 610.9v-18M968.9 611.9v-17M947.9 615.9v-20" style="fill:none;fill-rule:nonzero;stroke:#000;stroke-width:8px" transform="matrix(3.52917 0 0 3.52917 -159.43 731.757)"/><path d="M1030.9 676.9c35 33 204 112 204 112l51-142-184-104s-60 103-71 134Z" style="fill:#0074ff;fill-rule:nonzero;stroke:#000;stroke-width:8px" transform="matrix(3.52917 0 0 3.52917 -159.43 731.757)"/><path d="M1248.9 748.9c-53-17-203-100-203-100M1185.9 716.9l47-99M1109.9 677.9l54-100" style="fill:none;fill-rule:nonzero;stroke:#000;stroke-width:8px" transform="matrix(3.52917 0 0 3.52917 -159.43 731.757)"/><path d="m835.9 799.9 119-2s-3-27-7-47-22-26-22-26l-104 16 14 59Z" style="fill:#003866;fill-rule:nonzero;stroke:#000;stroke-width:8px" transform="matrix(3.52917 0 0 3.52917 -159.43 731.757)"/><path d="M906.9 754.9s15 29 23 34 19-7 14-21-29-26-29-26l-8 13ZM896.9 769.9c9 6 14 28 14 28M772.9 803.9s-4 53 25 81c31-29 28-83 28-83l-53 2Z" style="fill:#003866;fill-rule:nonzero;stroke:#000;stroke-width:8px" transform="matrix(3.52917 0 0 3.52917 -159.43 731.757)"/><path d="M782.9 782.9s4 59 14 72c16-16 13-68 13-68" style="fill:#003866;fill-rule:nonzero;stroke:#000;stroke-width:8px" transform="matrix(3.52917 0 0 3.52917 -159.43 731.757)"/><path d="M647.9 685.9s-13-14-14-22 2-23 3-29 32-38 42-38c8-10 61-79 119-86s123 0 167 104c-15 6-54 13-58 50s33 46 37 53c-2 12-35 39-39 45-1.8 2.7-1.2 16-6.6 18.8-6.7 3.5-19.4-3.8-19.4-3.8l-49 16-108-28-81-40 7-40Z" style="fill:#fff;fill-rule:nonzero;stroke:#000;stroke-width:8px" transform="matrix(3.52917 0 0 3.52917 -159.43 731.757)"/><path d="m647.9 685.9-7 40 81 40 97-10-4-49-25-18" style="fill:#9b0000;fill-rule:nonzero;stroke:#000;stroke-width:8px" transform="matrix(3.52917 0 0 3.52917 -159.43 731.757)"/><path d="M669.9 650.9c1-6 23-31 9-54M836.9 648.9c-3-14 11-25 16-34s-4-42 25-54" style="fill:none;fill-rule:nonzero;stroke:#000;stroke-width:8px" transform="matrix(3.52917 0 0 3.52917 -159.43 731.757)"/><circle cx="769.9" cy="613.4" r="31.5" style="fill:none;stroke:#000;stroke-width:8px" transform="matrix(3.52917 0 0 3.52917 -159.43 731.757)"/><circle cx="769.9" cy="613.9" r="14" style="fill:none;stroke:#000;stroke-width:8px" transform="matrix(3.52917 0 0 3.52917 -159.43 731.757)"/><path d="M641.9 749.9c-9 2-7 31 1 41s180 14 193 9 8.8-32 17-58c6.2-19.8 16.6-37.4 14-43-6-13-34-1-34-1s-4-21-30-10c-4 5 4 29-9 39s-33 18-33 18-110 3-119 5Z" style="fill:#fff;fill-rule:nonzero;stroke:#000;stroke-width:8px" transform="matrix(3.52917 0 0 3.52917 -159.43 731.757)"/><path d="M637.7 737c-.3 4.1.5 8.6 4.2 11.9 9 8 29 5 35-3 3 10 31 17 44 1 5 8 18 16 40 2 3 6 13 7 20 5 7-2.6 10.4-8.2 12-13.6L637.7 737ZM789.9 678.9c-16-4-23 10-23 10s-6-12-18-14-20 9-20 9-6-10-18-12-20 9-20 9-7-13-22-12c-9.6.6-15 7.1-18.1 13.6l151 10.6c-1-5.9-4-12.2-11.9-14.2Z" style="fill:red;fill-rule:nonzero" transform="matrix(3.52917 0 0 3.52917 -159.43 731.757)"/><path d="M650.8 682.6c-3.4 7.1-3.9 14.4-3.9 14.4l155 8s1-5.7-.1-11.8l-151-10.6ZM793.9 726.9l-153-1s-2.8 5.2-3.2 11.1l155.2 3.3c1.9-6.8 1-13.4 1-13.4Z" style="fill:#fff;fill-rule:nonzero" transform="matrix(3.52917 0 0 3.52917 -159.43 731.757)"/><path d="m688.9 696.9 2-16M677.9 725.9l-1 20M723.9 726.9l-3 20M760.9 727.9v21M726.9 700.9l2-17M767.9 702.9l-1-14M646.9 696.9l155 8s4-22-12-26-23 10-23 10-6-12-18-14-20 9-20 9-6-10-18-12-20 9-20 9-7-13-22-12c-20 1.4-22 28-22 28ZM640.9 725.9l153 1s3 21-13 27c-7 2-17 1-20-5-22 14-35 6-40-2-13 16-41 9-44-1-6 8-26 11-35 3s-1-23-1-23Z" style="fill:none;fill-rule:nonzero;stroke:#000;stroke-width:8px" transform="matrix(3.52917 0 0 3.52917 -159.43 731.757)"/></svg>