<?xml version="1.0" encoding="UTF-8" standalone="no"?><!DOCTYPE svg PUBLIC "-//W3C//DTD SVG 1.1//EN" "http://www.w3.org/Graphics/SVG/1.1/DTD/svg11.dtd"><svg width="100%" height="100%" viewBox="0 0 5320 5320" version="1.1" xmlns="http://www.w3.org/2000/svg" xmlns:xlink="http://www.w3.org/1999/xlink" xml:space="preserve" xmlns:serif="http://www.serif.com/" style="fill-rule:evenodd;clip-rule:evenodd;stroke-linecap:round;stroke-linejoin:round;"><rect id="Tezcatlipoca" x="0" y="0" width="5320" height="5320" style="fill:none;"/><g><g><g><path d="M1505.6,2416.8c-0,0 -141.5,37 -145.8,47.9c-4.4,10.9 -19.6,204.6 -19.6,204.6c-0,0 171.9,-56.6 178.5,-71.8c6.5,-15.3 -13.1,-180.7 -13.1,-180.7Z" style="fill:#0062ff;fill-rule:nonzero;stroke:#000;stroke-width:19.84px;"/><path d="M1455.6,2511.5c-0,15 -12.2,27.2 -27.2,27.2c-15,0 -27.2,-12.2 -27.2,-27.2c-0,-15 12.2,-27.2 27.2,-27.2c15,0 27.2,12.2 27.2,27.2Z" style="fill:#f00;fill-rule:nonzero;"/></g><path d="M2690.6,3769.4l81.6,-398.3l173.1,0l-19.6,395l-146.9,42.4l-88.2,-39.1Z" style="fill:#fff;fill-rule:nonzero;stroke:#000;stroke-width:19.84px;"/><path d="M1812.5,3514.7c9.8,3.3 358,116.4 358,116.4l40.3,-282.9c0,-0 -202.4,-150.2 -212.2,-150.2c-9.8,-0 -156.7,104.5 -156.7,104.5l-29.4,212.2" style="fill:#fff;fill-rule:nonzero;stroke:#000;stroke-width:19.84px;"/><g><path d="M3050.8,2321l409.2,-19.5l10.8,228.5l-424.3,54.4l4.3,-263.4Z" style="fill:#075900;fill-rule:nonzero;stroke:#000;stroke-width:19.84px;"/><path d="M3094.3,2375.5l348.2,-32.7l-4.3,143.6l-354.7,34.9l10.8,-145.8Z" style="fill-rule:nonzero;"/></g><g><g><path d="M733.1,1387.4c0,0 -448.3,-21.8 -459.2,-17.4c-10.9,4.4 -10.9,37 0,45.7c10.9,8.7 450.5,28.3 450.5,28.3c0,0 -444,26.1 -461.4,30.5c-17.4,4.4 -8.7,63.1 0,60.9c8.7,-2.2 472.3,-19.6 472.3,-19.6c0,-0 -450.5,63.1 -459.2,71.8c-8.7,8.7 -2.2,50.1 4.4,52.2c6.5,2.2 465.7,-69.6 465.7,-69.6c0,-0 -448.4,102.3 -452.8,108.8c-4.4,6.5 2.2,56.6 10.9,56.6c8.7,-0 448.3,-104.5 448.3,-104.5c-0,-0 -435.3,139.3 -435.3,150.2c-0,10.9 6.5,60.9 15.2,58.8c8.7,-2.2 437.4,-141.5 437.4,-141.5c-0,-0 -417.8,167.6 -422.2,178.5c-4.4,10.9 8.7,54.4 21.8,50.1c13.1,-4.4 420,-171.9 420,-171.9c-0,-0 -387.4,215.4 -393.9,224.2c-6.5,8.7 19.6,60.9 26.1,54.4c6.5,-6.5 385.2,-208.9 385.2,-208.9c-0,-0 -354.6,252.3 -356.8,261c-2.2,8.7 19.6,47.9 28.3,43.5c8.7,-4.4 350.4,-211.1 350.4,-211.1l-34.8,-383l-60.9,-148Z" style="fill:#075900;fill-rule:nonzero;stroke:#000;stroke-width:19.84px;"/><g><path d="M514.4,2035.9c-37.7,27.8 -63.6,47.7 -64.2,50.1c-2.2,8.7 19.6,47.9 28.3,43.5c2.4,-1.2 31.1,-18.4 71.1,-42.5l-35.2,-51.1Z" style="fill:#ffce00;fill-rule:nonzero;stroke:#000;stroke-width:19.84px;"/><path d="M469.2,1935.4c-42.2,24.2 -71.7,41.6 -73.5,44c-6.5,8.7 19.6,60.9 26.1,54.4c1.8,-1.8 31.2,-18.1 73.1,-40.9l-25.7,-57.5Z" style="fill:#ffce00;fill-rule:nonzero;stroke:#000;stroke-width:19.84px;"/><path d="M433.9,1836.8c-49.6,21.2 -84.8,37.2 -86.1,40.3c-4.4,10.9 8.7,54.4 21.8,50.1c3.6,-1.2 37.7,-15 85.1,-34.4l-20.8,-56Z" style="fill:#ffce00;fill-rule:nonzero;stroke:#000;stroke-width:19.84px;"/><path d="M406.4,1745.9c-52.2,18.3 -89,32.3 -89,35.5c-0,10.9 6.5,60.9 15.2,58.8c2.5,-0.6 38.2,-12.1 88.4,-28.3l-14.6,-66Z" style="fill:#ffce00;fill-rule:nonzero;stroke:#000;stroke-width:19.84px;"/><path d="M390.4,1653.3c-55.7,13.5 -95.7,23.8 -96.9,25.7c-4.4,6.5 2.2,56.6 10.9,56.6c2.6,0 43.4,-9.3 99.5,-22.3l-13.5,-60Z" style="fill:#ffce00;fill-rule:nonzero;stroke:#000;stroke-width:19.84px;"/><path d="M368.8,1569.9c-52.7,8.5 -90.3,15.3 -92.7,17.7c-8.7,8.7 -2.2,50.1 4.4,52.2c1.9,0.6 43,-5.1 100,-13.6l-11.7,-56.3Z" style="fill:#ffce00;fill-rule:nonzero;stroke:#000;stroke-width:19.84px;"/><path d="M360.8,1466.6c-53.7,3.6 -92.9,6.6 -97.8,7.9c-17.4,4.4 -8.7,63.1 0,60.9c2.5,-0.6 42.3,-2.5 97.9,-4.9l-0.1,-63.9Z" style="fill:#ffce00;fill-rule:nonzero;stroke:#000;stroke-width:19.84px;"/><path d="M365.3,1371.4c-51.6,-1.8 -88.4,-2.6 -91.4,-1.4c-10.9,4.4 -10.9,37 0,45.7c3,2.4 39,5.7 89.4,9.1l2,-53.4Z" style="fill:#ffce00;fill-rule:nonzero;stroke:#000;stroke-width:19.84px;"/></g></g><path d="M835.3,1953.3l459.2,-174.1l-100.1,-448.3l-476.6,39.1c-13,206.8 117.5,583.3 117.5,583.3Z" style="fill:#ffce00;fill-rule:nonzero;stroke:#000;stroke-width:19.84px;"/><path d="M1036.8,1876.9l257.7,-97.7l-100.1,-448.3l-281,23.1c-19.3,179.2 123.4,522.9 123.4,522.9Z" style="fill:#0062ff;fill-rule:nonzero;stroke:#000;stroke-width:19.84px;"/><path d="M1107.1,1850.2l187.4,-71.1l-100.1,-448.3c-0,0 -211.2,-162.6 -213.3,17.4c-2,180 126,502 126,502Z" style="fill:#fff;fill-rule:nonzero;stroke:#000;stroke-width:19.84px;"/><path d="M1140,1837.8l154.6,-58.6l-100.1,-448.3c0,0 -163.2,-195.9 -163.2,13.1c-0.1,208.8 108.7,493.8 108.7,493.8Z" style="fill:#f00;fill-rule:nonzero;stroke:#000;stroke-width:19.84px;"/><path d="M1196.7,1816.3l97.9,-37.1l-100.1,-448.3c0,0 -57.8,19.4 -104.5,6.5c-13.1,30.4 106.7,478.9 106.7,478.9Z" style="fill:#0062ff;fill-rule:nonzero;stroke:#000;stroke-width:19.84px;"/><path d="M1126.8,1212.1c0,-0 -76.1,27.2 -124.1,25.2c-48,-2 -76.2,-52.3 -108.6,-56.6c-15.9,-2.1 -123,7.7 -182.8,-17.4c-61.6,-25.9 -93.6,-104.5 -69.6,-113.2c23.9,-8.7 23.6,43.4 87.1,67.5c63.5,24.1 152.1,21.1 165,15.1c25.7,-11.9 58,-47 100.5,-36.9c42.6,10.1 100.3,59.9 124,63.1c23.7,3.2 8.5,53.2 8.5,53.2Z" style="fill:#fff;fill-rule:nonzero;stroke:#000;stroke-width:19.84px;"/><path d="M1118.3,1254.7c0,0 -71.8,-37 -119.7,-41.3c-47.9,-4.4 -108.8,39.2 -141.5,39.2c-16.1,0 -100.6,-10.5 -163.2,6.5c-64.5,17.5 -106.7,62.9 -100.1,80.5c6.5,17.4 55.8,-19.3 121.9,-34.8c66.1,-15.5 149.1,-9.8 161,-2.2c23.9,15.2 71.8,50.1 115.3,45.7c43.5,-4.4 104.5,-43.5 128.4,-43.5c24,-0.1 -2.1,-50.1 -2.1,-50.1Z" style="fill:#fff;fill-rule:nonzero;stroke:#000;stroke-width:19.84px;"/></g><path d="M3531.8,2264.5c0,0 -82.7,-19.6 -113.2,0c-30.5,19.6 -28.3,267.7 4.4,282.9c32.6,15.2 121.9,2.2 121.9,2.2l-13.1,-285.1Z" style="fill:#ffce00;fill-rule:nonzero;stroke:#000;stroke-width:19.84px;"/><g><g><g><path d="M1775.5,4033.8c0,0 282.9,-361.3 298.2,-402.6c15.2,-41.3 45.7,-143.6 45.7,-143.6l322.1,-32.6l-167.6,446l-335.1,248.1l-163.3,-115.3Z" style="fill:#075900;fill-rule:nonzero;stroke:#000;stroke-width:19.84px;"/><path d="M1816.9,4044.7l245.9,-306.9l237.2,63.1l-80.5,91.4l-306.9,217.7l-95.7,-65.3Z" style="fill-rule:nonzero;"/></g><g><circle cx="1749.4" cy="4264.5" r="241.6" style="fill:#f00;stroke:#000;stroke-width:19.84px;"/><g><g><g><path d="M1649.3,4340.6c0,0 -52.2,95.8 -87.1,97.9c-34.8,2.2 -241.6,-93.6 -309,-74c-39.2,13.1 -71.8,60.9 -71.8,87c0,47.9 45.7,100.1 82.7,93.2c39.4,-7.3 80.5,-64.9 15.2,-101.9c41.3,-26.1 224.2,87 282.9,87c58.8,-0 156.7,-145.8 156.7,-145.8l-69.6,-43.4Z" style="fill:#ffce00;fill-rule:nonzero;stroke:#000;stroke-width:19.84px;"/><path d="M1279.3,4442.9c-21.8,7.1 -25,36.4 -25,36.4" style="fill:none;fill-rule:nonzero;stroke:#000;stroke-width:19.84px;"/></g><g><path d="M1784.2,4395c0,0 -97.9,180.6 -91.4,182.8c0,0 32.6,-58.8 80.5,-26.1c47.9,32.6 10.9,132.8 -60.9,126.2c-30.5,-2.2 -87.1,-41.4 -91.4,-104.5c-4.4,-63.1 84.9,-198 84.9,-198l78.3,19.6Z" style="fill:#ffce00;fill-rule:nonzero;stroke:#000;stroke-width:19.84px;"/><path d="M1692.8,4577.9c-10.9,28.3 23.9,52.2 23.9,52.2" style="fill:#ffce00;fill-rule:nonzero;stroke:#000;stroke-width:19.84px;"/></g></g><g><path d="M1893,4265.6c0,76.3 -61.9,138.2 -138.2,138.2c-76.3,-0 -138.2,-61.9 -138.2,-138.2c0,-76.3 61.9,-138.2 138.2,-138.2c76.4,-0 138.2,61.8 138.2,138.2Z" style="fill:#fff;fill-rule:nonzero;stroke:#000;stroke-width:19.84px;"/><path d="M1845.1,4264.5c-0,48.1 -39,87 -87.1,87c-48.1,0 -87.1,-39 -87.1,-87c-0,-48.1 39,-87.1 87.1,-87.1c48.2,0 87.1,39 87.1,87.1Z" style="fill:#0062ff;fill-rule:nonzero;stroke:#000;stroke-width:19.84px;"/></g></g></g><path d="M1235.8,1785.7l-115.3,-446.1c0,0 620.2,-115.3 670.3,-121.9c50.1,-6.5 439.6,-76.2 766.1,-13.1c-45.7,-21.8 -82.7,-89.2 -43.5,-143.6c39.2,-54.4 132.7,-34.8 134.9,13.1c2.2,47.9 -56.6,4.4 -74,15.2c-17.4,10.8 -2.2,56.6 34.8,50.1c37,-6.5 176.3,10.9 245.9,63.1c-2.2,-23.9 -17.4,-80.5 43.5,-119.7c60.9,-39.2 137.1,39.2 126.2,71.8c-10.9,32.6 -50,-6.5 -65.3,2.2c-15.2,8.7 -17.4,41.3 0,45.7c17.4,4.4 222,93.6 206.7,278.6c-15.2,185 -10.9,661.6 -10.9,661.6l-56.6,820.5l-113.2,-4.4l-713.8,-931.5l-457,-435.3l-578.8,193.7Z" style="fill:#075900;fill-rule:nonzero;stroke:#000;stroke-width:19.84px;"/></g><g><path d="M2347.9,1626.8c0,0 254.6,-17.4 287.3,32.6c32.6,50.1 -6.5,463.6 -6.5,463.6" style="fill:none;fill-rule:nonzero;stroke:#000;stroke-width:19.84px;"/><g><path d="M2556.8,1204.6c17.4,10.9 302.5,-0 450.5,126.2c121.9,100.1 30.5,300.3 13.1,467.9c-17.4,167.6 -40.5,918.9 -43.5,964.1" style="fill:none;fill-rule:nonzero;stroke:#000;stroke-width:19.84px;"/><path d="M2854.9,1202.4c4.3,28.3 128.4,95.8 167.6,134.9c134.9,102.3 60.9,348.2 45.7,465.7c-15.2,117.5 -53.6,981.2 -60.9,1003.3" style="fill:none;fill-rule:nonzero;stroke:#000;stroke-width:19.84px;"/><path d="M3076.9,2943.5c0,0 30.5,-692.1 50.1,-813.9" style="fill:none;fill-rule:nonzero;stroke:#000;stroke-width:19.84px;"/><path d="M2939.8,1121.9c-52.2,0 -45.7,63.1 -32.6,82.7c13.1,19.6 206.7,91.4 235,250.3c10.9,74 -6.5,169.8 -32.7,356.9c-26.1,187.2 -50.1,818.3 -50.1,818.3" style="fill:none;fill-rule:nonzero;stroke:#000;stroke-width:19.84px;"/><path d="M2582.9,1058.8c-74,-2.2 -60.9,91.4 -13.1,111c38,15.5 239.4,-15.2 426.6,152.3" style="fill:none;fill-rule:nonzero;stroke:#000;stroke-width:19.84px;"/><path d="M2143.3,1213.3c0,0 570.2,-2.2 768.2,93.6c198,95.8 82.7,367.8 65.3,485.3c-17.4,117.5 -41.3,905.3 -41.3,905.3" style="fill:none;fill-rule:nonzero;stroke:#000;stroke-width:19.84px;"/><path d="M2154.2,1248.1c0,-0 687.7,6.5 781.3,121.9c93.6,115.3 8.7,315.6 -4.4,417.8c-13.1,102.3 -37,833.5 -37,833.5" style="fill:none;fill-rule:nonzero;stroke:#000;stroke-width:19.84px;"/><path d="M2165.1,1287.3c0,0 652.9,13.1 731.2,121.9c78.3,108.8 10.9,289.4 -4.4,376.5c-15.2,87.1 -37,763.9 -37,763.9" style="fill:none;fill-rule:nonzero;stroke:#000;stroke-width:19.84px;"/><path d="M2160.7,1328.7c0,0 611.5,2.2 689.9,117.5c78.4,115.3 19.6,280.7 4.4,335.2c-15.2,54.4 -45.7,576.7 -45.7,576.7" style="fill:none;fill-rule:nonzero;stroke:#000;stroke-width:19.84px;"/><path d="M2378.3,1585.5c0,0 222,-15.2 282.9,37c60.9,52.2 8.7,548.4 8.7,548.4" style="fill:none;fill-rule:nonzero;stroke:#000;stroke-width:19.84px;"/><path d="M2378.3,1550.6c0,-0 280.7,-8.7 330.8,50.1c50.1,58.8 0,555 0,555" style="fill:none;fill-rule:nonzero;stroke:#000;stroke-width:19.84px;"/><path d="M2195.5,1520.2c0,0 474.4,-37 552.8,67.5c78.3,104.5 -2.2,559.3 -2.2,559.3" style="fill:none;fill-rule:nonzero;stroke:#000;stroke-width:19.84px;"/><path d="M2154.2,1463.6c0,-0 548.4,-28.3 628.9,89.2c87.1,124 -2.2,613.7 -2.2,613.7" style="fill:none;fill-rule:nonzero;stroke:#000;stroke-width:19.84px;"/><path d="M2134.6,1407c0,0 618.1,8.7 668.1,97.9c50.1,89.2 52.2,276.4 52.2,276.4c0,-0 30.5,-202.4 -32.6,-306.9c-63.1,-104.5 -679,-102.3 -679,-102.3" style="fill:none;fill-rule:nonzero;stroke:#000;stroke-width:19.84px;"/></g></g><path d="M3616.7,2540.9c-0,0 -65.3,26.1 -100.1,15.2c-34.8,-10.9 -54.4,-285.1 -4.3,-302.5c50,-17.4 93.6,2.2 93.6,2.2l10.8,285.1Z" style="fill:#0062ff;fill-rule:nonzero;stroke:#000;stroke-width:19.84px;"/></g><g><path d="M3444.7,2273.2c-0,31.3 -25.3,56.6 -56.6,56.6c-31.3,0 -56.6,-25.3 -56.6,-56.6c-0,-31.2 25.3,-56.6 56.6,-56.6c31.3,-0 56.6,25.3 56.6,56.6Z" style="fill:#ffce00;fill-rule:nonzero;stroke:#000;stroke-width:19.84px;"/><path d="M3444.7,2521.3c-0,31.3 -25.3,56.6 -56.6,56.6c-31.3,-0 -56.6,-25.3 -56.6,-56.6c-0,-31.2 25.3,-56.6 56.6,-56.6c31.3,-0 56.6,25.3 56.6,56.6Z" style="fill:#ffce00;fill-rule:nonzero;stroke:#000;stroke-width:19.84px;"/></g><g><path d="M2876.7,2264.5c-0,0 63.1,32.6 208.9,104.5c-54.4,32.6 -180.6,-41.4 -180.6,-41.4c-0,0 97.9,89.2 82.7,152.3c-95.8,-102.3 -167.6,-158.9 -167.6,-158.9l56.6,-56.5Z" style="fill:#fff;fill-rule:nonzero;stroke:#000;stroke-width:19.84px;"/><path d="M2672.1,2183.9c0,0 28.3,-58.8 56.6,-56.6c28.3,2.2 95.8,58.8 97.9,76.2c2.2,17.4 -82.7,82.7 -82.7,82.7l-71.8,-102.3Z" style="fill:#fff;fill-rule:nonzero;stroke:#000;stroke-width:19.84px;"/><path d="M2804.9,2345c0,0 100.1,-71.8 95.8,-87c-4.4,-15.2 -58.8,-54.4 -74,-54.4c-15.2,0 -87.1,74 -87.1,74l65.3,67.4Z" style="fill:#fff;fill-rule:nonzero;stroke:#000;stroke-width:19.84px;"/></g><g><g><g><g><path d="M2004,3735.6c0,28.8 -23.4,52.2 -52.2,52.2c-28.8,0 -52.2,-23.4 -52.2,-52.2c0,-28.8 23.4,-52.2 52.2,-52.2c28.8,0 52.2,23.4 52.2,52.2Z" style="fill:#ffce00;fill-rule:nonzero;stroke:#000;stroke-width:19.84px;"/><circle cx="2121.5" cy="3807.5" r="52.2" style="fill:#ffce00;stroke:#000;stroke-width:19.84px;"/><path d="M2317.4,3872.7c0,28.8 -23.4,52.2 -52.2,52.2c-28.8,-0 -52.2,-23.4 -52.2,-52.2c0,-28.8 23.4,-52.2 52.2,-52.2c28.8,-0 52.2,23.4 52.2,52.2Z" style="fill:#ffce00;fill-rule:nonzero;stroke:#000;stroke-width:19.84px;"/></g><g><g><path d="M1901.7,3672.5c-23.9,-19.6 -356.9,-32.6 -370,-30.5c-13.1,2.2 -6.5,-39.2 2.2,-47.9c8.7,-8.7 254.6,15.2 245.9,6.5c-8.7,-8.7 -226.3,-47.9 -232.9,-52.2c-6.5,-4.4 2.2,-56.6 15.2,-54.4c13.1,2.2 287.3,80.5 276.4,60.9c-0,0 -259,-93.6 -267.7,-97.9c-8.7,-4.4 4.3,-56.6 19.6,-50.1c15.2,6.5 235,115.3 239.4,104.5c4.4,-10.9 -204.6,-134.9 -215.5,-143.6c-10.9,-8.7 17.4,-54.4 30.5,-45.7c13.1,8.7 304.7,193.7 304.7,193.7c-0,0 -23.8,176.3 -47.8,156.7Z" style="fill:#f00;fill-rule:nonzero;stroke:#000;stroke-width:19.84px;"/><g><path d="M1614.5,3644c-45.3,-1.9 -78.7,-2.6 -82.7,-2c-13.1,2.2 -6.5,-39.2 2.2,-47.9c3.3,-3.3 40.5,-1.9 85,0.6l-4.5,49.3Z" style="fill:#ffce00;fill-rule:nonzero;stroke:#000;stroke-width:19.84px;"/><path d="M1634.3,3567.2c-45.4,-9.1 -84.6,-17 -87.3,-18.8c-6.5,-4.4 2.2,-56.6 15.2,-54.4c4.7,0.8 43.1,11.4 89.9,23.8l-17.8,49.4Z" style="fill:#ffce00;fill-rule:nonzero;stroke:#000;stroke-width:19.84px;"/><path d="M1656.7,3484.8c-45.5,-14.7 -82.5,-26.1 -85.7,-27.8c-8.7,-4.4 4.3,-56.6 19.6,-50.1c5.8,2.5 41.4,19.9 83.4,39.8l-17.3,38.1Z" style="fill:#ffce00;fill-rule:nonzero;stroke:#000;stroke-width:19.84px;"/><path d="M1711.1,3364.4c-35.9,-22.9 -62.4,-39.8 -66.2,-42.3c-13.1,-8.7 -41.4,37 -30.5,45.7c3.8,3 31.8,20.2 66.5,41.7l30.2,-45.1Z" style="fill:#ffce00;fill-rule:nonzero;stroke:#000;stroke-width:19.84px;"/></g></g><path d="M2363.1,3674.7l-3,-1.2l-340.8,-135.9l-65.3,174.1c0,-0 300.3,84.9 359.1,137.1c36.9,-4.4 50,-174.1 50,-174.1Z" style="fill:#ffce00;fill-rule:nonzero;stroke:#000;stroke-width:19.84px;"/><path d="M2010.5,3631.2l278.6,102.3l-23.9,58.7l-287.3,-104.4l32.6,-56.6Z" style="fill:#fff;fill-rule:nonzero;"/><path d="M2363.1,3674.7l-3,-1.2l-88.4,103.5c0,-0 -259,-87 -261.2,-97.9c-2.2,-10.9 53,-123.8 53,-123.8l-44.3,-17.7l-65.3,174.1c0,-0 300.3,84.9 359.1,137.1c37,-4.4 50.1,-174.1 50.1,-174.1Z" style="fill:#f00;fill-rule:nonzero;stroke:#000;stroke-width:19.84px;"/><path d="M2112.8,3619.2c0,11.4 -9.3,20.7 -20.7,20.7c-11.4,-0 -20.7,-9.3 -20.7,-20.7c0,-11.4 9.3,-20.7 20.7,-20.7c11.5,-0 20.7,9.3 20.7,20.7Z" style="fill:none;fill-rule:nonzero;stroke:#000;stroke-width:19.84px;"/><path d="M2191.2,3651.9c-0,11.4 -9.3,20.7 -20.7,20.7c-11.4,0 -20.7,-9.3 -20.7,-20.7c-0,-11.4 9.3,-20.7 20.7,-20.7c11.4,-0 20.7,9.2 20.7,20.7Z" style="fill:none;fill-rule:nonzero;stroke:#000;stroke-width:19.84px;"/><circle cx="2242.3" cy="3678" r="20.7" style="fill:none;stroke:#000;stroke-width:19.84px;"/><path d="M1954,3711.7c-6.5,4.4 -74,-8.7 -74,-17.4c0,-8.7 69.6,-213.3 78.3,-211.1c8.7,2.2 58.8,39.2 60.9,54.4c2.2,15.2 -58.7,169.7 -65.2,174.1Z" style="fill:#f00;fill-rule:nonzero;stroke:#000;stroke-width:19.84px;"/></g></g><g><g><path d="M1118.3,3513.7l243.7,-357l-74,-43.5l-263.3,326.5l93.6,74Z" style="fill:#f00;fill-rule:nonzero;stroke:#000;stroke-width:19.84px;"/><path d="M1183.6,3135c-0,0 32.6,54.4 74,54.4c41.4,0 58.8,-56.6 58.8,-56.6l-97.9,-69.6l-34.9,71.8Z" style="fill:#fdce12;fill-rule:nonzero;stroke:#000;stroke-width:19.84px;"/><path d="M1758.1,3021.8c19.6,-6.5 274.2,-500.5 274.2,-500.5l47.9,84.9c-0,0 -176.3,733.4 -243.7,742.1c-67.5,8.7 -605,-237.2 -605,-237.2l76.2,-169.8c-0.1,0 430.8,87 450.4,80.5Z" style="fill:#075900;fill-rule:nonzero;stroke:#000;stroke-width:19.84px;"/><path d="M1281.5,2978.3c0,0 481,100.1 494,95.8c13.1,-4.4 217.6,-435.3 217.6,-435.3l792.2,-213.3c0,0 269.9,498.4 313.4,537.5c-76.2,56.6 -474.4,150.2 -474.4,150.2l-772.6,93.6c0,0 -43.5,82.7 -69.6,84.9c-26.1,2.2 -546.3,-217.6 -546.3,-217.6l45.7,-95.8Z" style="fill-rule:nonzero;"/><g><g><path d="M2191.2,4440.8c254.6,-581.1 296,-1046.8 296,-1046.8l117.5,-89.2c-0,0 356.9,-139.3 243.7,84.9c-113.2,224.2 -169.8,1212.2 -169.8,1212.2c-0,0 -437.4,-93.7 -487.4,-161.1Z" style="fill:#fff;fill-rule:nonzero;stroke:#000;stroke-width:19.84px;"/><g><path d="M2534.6,3966.5c-2.5,19.1 -27.7,31.5 -56.3,27.8c-28.6,-3.7 -49.8,-22.2 -47.3,-41.3c2.5,-19.1 27.7,-31.5 56.3,-27.8c28.6,3.8 49.8,22.3 47.3,41.3Z" style="fill:#f00;fill-rule:nonzero;"/><path d="M2684.8,3992.6c-2.5,19.1 -27.7,31.5 -56.3,27.8c-28.6,-3.7 -49.8,-22.2 -47.3,-41.3c2.5,-19.1 27.7,-31.5 56.3,-27.8c28.6,3.8 49.7,22.3 47.3,41.3Z" style="fill:#f00;fill-rule:nonzero;"/></g><g><path d="M2265.2,4482.1l82.7,-232.9" style="fill:none;fill-rule:nonzero;stroke:#000;stroke-width:19.84px;"/><path d="M2345.7,4516.9l80.5,-248.1" style="fill:none;fill-rule:nonzero;stroke:#000;stroke-width:19.84px;"/><path d="M2443.6,4544.8l56.6,-258.6" style="fill:none;fill-rule:nonzero;stroke:#000;stroke-width:19.84px;"/><path d="M2541.6,4569.2l43.5,-267.7" style="fill:none;fill-rule:nonzero;stroke:#000;stroke-width:19.84px;"/><path d="M2613.4,4586.6l39.2,-267.7" style="fill:none;fill-rule:nonzero;stroke:#000;stroke-width:19.84px;"/><path d="M2718.7,4103.5c-4.7,47.1 -9,93.2 -12.9,137.1c-192.5,8.6 -428.6,-8.4 -395.3,-104.7c14.4,-41.5 27.6,-81.9 39.8,-121l368.4,88.6Z" style="fill:#0062ff;fill-rule:nonzero;stroke:#000;stroke-width:19.84px;"/><path d="M2596,3750.9c-45.7,-10.9 -171.3,-8 -171.3,-8c6.9,-29.2 13.1,-57 18.6,-83.1c17.8,6.2 274.6,38.9 325.3,47.7c-4.3,26.8 -8.5,54.5 -12.5,82.7c-0.1,0 -114.4,-28.4 -160.1,-39.3Z" style="fill:#0062ff;fill-rule:nonzero;stroke:#000;stroke-width:19.84px;"/><path d="M2708.9,4205.5c-4.1,44.3 -7.7,86.8 -10.9,126.5l-422.3,-99.4c15.1,-40.3 29.1,-79.7 42.1,-118.1l391.1,91Z" style="fill:#ffce00;fill-rule:nonzero;stroke:#000;stroke-width:19.84px;"/><path d="M2609,3700.8c-69.6,-13.1 -171.3,-15.1 -171.3,-15.1c4,-18.3 7.7,-35.8 11.1,-52.6c0,0 87.5,3.8 168.9,15.5c70.7,10.2 135.2,27.9 154.4,37c-2.9,17.2 -5.7,34.8 -8.4,52.6c0,-0 -85,-24.3 -154.7,-37.4Z" style="fill:#ffce00;fill-rule:nonzero;stroke:#000;stroke-width:19.84px;"/></g></g><g><path d="M2247.8,3800.9c74,-4.3 97.9,-58.8 97.9,-58.8c0,0 37,97.9 100.1,117.5c8.7,-272 174.1,-1305.8 232.9,-1375.4c58.8,-69.6 -23.9,-63.1 -23.9,-63.1c0,0 -104.5,-8.7 -97.9,87c6.4,95.9 -307,1286.3 -309.1,1292.8Z" style="fill:#fff;fill-rule:nonzero;stroke:#000;stroke-width:19.84px;"/><path d="M2519,2716.5c-27.4,122.8 -66.6,284 -106.7,444.4l112.7,49.7c23.5,-149.6 49.4,-299.6 74,-424.4l-80,-69.7Z" style="fill:#f00;fill-rule:nonzero;stroke:#000;stroke-width:13.23px;"/></g></g><g><g><path d="M1570.9,2995.7c2.1,-39.2 -31.1,-57.3 -56.6,-69.6c-67.5,-26.1 -134.9,4.4 -135.2,29.5c35.4,7 81.5,11.2 126.9,24.7c51.8,15.4 -315.5,562.9 -305.1,559.5l82.7,52.2c0.1,0 276.5,-441.8 287.3,-596.3Z" style="fill:#f00;fill-rule:nonzero;stroke:#000;stroke-width:19.84px;"/><g><path d="M1294.5,2906.5c0,0 54.4,-23.9 71.8,-2.2c17.4,21.8 4.4,69.6 -4.4,80.5c-8.7,10.9 -80.5,-6.5 -80.5,-6.5l13.1,-71.8Z" style="fill:#fdce12;fill-rule:nonzero;stroke:#000;stroke-width:19.84px;"/><g><path d="M1198.8,3135c56.6,-17.4 126.2,-180.6 108.8,-230.7c-17.4,-50.1 -91.4,-37 -91.4,-37l-108.8,217.6c0,0 34.8,67.5 91.4,50.1Z" style="fill:#ffce00;fill-rule:nonzero;stroke:#000;stroke-width:19.84px;"/><path d="M1035.6,2995.7c-28.3,60.9 34.8,95.8 71.8,89.2c37,-6.5 141.5,-161 115.3,-224.2c-26.1,-63.1 -104.5,-67.5 -124,-15.2c0,-0 23.9,67.5 2.2,108.8c-21.7,41.3 -58.8,39.2 -65.3,41.4Z" style="fill:#0062ff;fill-rule:nonzero;stroke:#000;stroke-width:19.84px;"/><g><path d="M1098.7,2845.5c28.3,19.6 23.9,67.5 2.2,108.8c-21.7,41.3 -58.8,39.2 -65.3,41.4c0,0 -174.1,26.1 -243.7,0c-69.6,-26.1 -138.2,-88.1 -99,-225.3c-29.4,-35.9 -364.5,-179.5 -342.8,-241.6c8.7,-29.4 352.6,153.4 372.1,143.6c-91.4,-45.7 -114.3,-78.3 -104.5,-127.3c6.5,-19.6 346,117.5 362.4,140.4c16.3,22.9 90.3,140.4 118.6,160Z" style="fill:#f00;fill-rule:nonzero;stroke:#000;stroke-width:19.84px;"/><g><path d="M444.1,2624.9c-58.8,-36.9 -102.4,-72.4 -94.1,-96.1c3.3,-11 53.3,7.7 115.8,34.9c-0.4,40.3 -21.7,61.2 -21.7,61.2Z" style="fill:#fff;fill-rule:nonzero;stroke:#000;stroke-width:19.84px;"/><path d="M658.7,2635c-38.5,-28.7 -47.9,-55.2 -41,-89.8c2.6,-7.7 56.3,8.7 121.8,32.9c13.1,52 -58.7,58.5 -80.8,56.9Z" style="fill:#fff;fill-rule:nonzero;stroke:#000;stroke-width:19.84px;"/><path d="M722.2,2672.5c45.7,9.8 213.3,107.7 213.3,107.7c0,0 -30.5,6.5 -47.9,37c0,0 -165.4,-82.7 -169.7,-89.2c-4.4,-6.5 2.1,-43.5 4.3,-55.5Z" style="fill:#fff;fill-rule:nonzero;stroke:#000;stroke-width:19.84px;"/></g><path d="M717.8,2728c-4.4,-6.5 -25,42.4 -25,42.4" style="fill:none;fill-rule:nonzero;stroke:#000;stroke-width:19.84px;"/><path d="M859.3,2880.4c-0,0 6.5,-30.5 28.3,-63.1" style="fill:none;fill-rule:nonzero;stroke:#000;stroke-width:19.84px;"/></g></g></g></g><g><path d="M981.2,3396.1l398.3,256.8c0,0 -322.1,605 -411.3,657.2c-48,28.1 -208.9,76.2 -337.3,-21.8c-128.4,-97.9 -117.5,-211.9 -104.5,-287.3c28.2,-163.1 454.8,-604.9 454.8,-604.9Z" style="fill:#fff;fill-rule:nonzero;stroke:#000;stroke-width:19.84px;"/><path d="M1030.4,3427.9l288.1,183.7c0,0 -263.3,563.7 -370,615.9c-78.3,37 -202.4,54.4 -274.2,0c-71.8,-54.4 -100.1,-111 -91.4,-224.2c19.6,-145.8 447.5,-575.4 447.5,-575.4Z" style="fill:#ffce00;fill-rule:nonzero;"/><path d="M1030.4,3427.9l288.1,183.7c0,0 -291.6,552.8 -380.9,602.8c-43.5,19.6 -178.5,47.9 -250.3,-6.5c-71.8,-54.4 -89.2,-145.8 -84.9,-198c8.8,-119.7 428,-582 428,-582Z" style="fill:#f00;fill-rule:nonzero;"/><path d="M794,4075.1c-58.8,-41.3 -43.5,-99 -43.5,-126.2c0,-54.4 344.5,-479.8 344.5,-479.8l160.9,102.6c0,0 -292.1,473 -324.8,492.6c-16.3,9.8 -78.3,52.2 -137.1,10.8Z" style="fill:#075900;fill-rule:nonzero;stroke:#000;stroke-width:19.84px;"/><path d="M794,4075.1c-58.8,-41.3 -43.5,-99 -43.5,-126.2c0,-54.4 344.5,-479.8 344.5,-479.8l15.8,10.1c0,0 -327.7,415.4 -334.2,493.7c-5.3,63 52.6,101.3 113.2,80.5c69.6,-23.9 347.3,-493.7 347.3,-493.7l18.8,12c0,0 -292.1,473 -324.8,492.6c-16.3,9.8 -78.3,52.2 -137.1,10.8Z" style="fill-rule:nonzero;"/><path d="M841.9,3920.6c6.5,-50.1 306.6,-417.5 306.6,-417.5l49.9,31.8c0,0 -254.1,429.2 -278.1,446.6c-24,17.5 -85,-10.8 -78.4,-60.9Z" style="fill-rule:nonzero;stroke:#000;stroke-width:19.84px;"/><path d="M1018.2,3519.1c0,11.4 -9.3,20.7 -20.7,20.7c-11.4,0 -20.7,-9.3 -20.7,-20.7c0,-11.4 9.3,-20.7 20.7,-20.7c11.4,0 20.7,9.3 20.7,20.7Z" style="fill:none;fill-rule:nonzero;stroke:#000;stroke-width:19.84px;"/><circle cx="880" cy="3656.2" r="20.7" style="fill:none;stroke:#000;stroke-width:19.84px;"/><circle cx="775.5" cy="3793.3" r="20.7" style="fill:none;stroke:#000;stroke-width:19.84px;"/><circle cx="1103" cy="3916.3" r="20.7" style="fill:none;stroke:#000;stroke-width:19.84px;"/><path d="M1199.9,3783.5c0,11.4 -9.3,20.7 -20.7,20.7c-11.4,0 -20.7,-9.3 -20.7,-20.7c0,-11.4 9.3,-20.7 20.7,-20.7c11.4,0 20.7,9.3 20.7,20.7Z" style="fill:none;fill-rule:nonzero;stroke:#000;stroke-width:19.84px;"/><path d="M1276,3666c0,11.4 -9.3,20.7 -20.7,20.7c-11.4,0 -20.7,-9.3 -20.7,-20.7c0,-11.4 9.3,-20.7 20.7,-20.7c11.4,0 20.7,9.3 20.7,20.7Z" style="fill:none;fill-rule:nonzero;stroke:#000;stroke-width:19.84px;"/><path d="M713.5,3941.3c0,16.2 -13.2,29.4 -29.4,29.4c-16.2,0 -29.4,-13.2 -29.4,-29.4c0,-16.2 13.2,-29.4 29.4,-29.4c16.2,0 29.4,13.2 29.4,29.4Z" style="fill:none;fill-rule:nonzero;stroke:#000;stroke-width:19.84px;"/><path d="M720,4098c0,16.2 -13.2,29.4 -29.4,29.4c-16.2,0 -29.4,-13.2 -29.4,-29.4c0,-16.2 13.2,-29.4 29.4,-29.4c16.3,0 29.4,13.2 29.4,29.4Z" style="fill:none;fill-rule:nonzero;stroke:#000;stroke-width:19.84px;"/><path d="M831,4169.8c0,16.2 -13.2,29.4 -29.4,29.4c-16.2,0 -29.4,-13.2 -29.4,-29.4c0,-16.2 13.2,-29.4 29.4,-29.4c16.2,-0 29.4,13.2 29.4,29.4Z" style="fill:none;fill-rule:nonzero;stroke:#000;stroke-width:19.84px;"/><circle cx="932.2" cy="4150.2" r="29.4" style="fill:none;stroke:#000;stroke-width:19.84px;"/><path d="M1049.7,4040.3c0,16.2 -13.2,29.4 -29.4,29.4c-16.2,0 -29.4,-13.2 -29.4,-29.4c0,-16.2 13.2,-29.4 29.4,-29.4c16.3,0 29.4,13.2 29.4,29.4Z" style="fill:none;fill-rule:nonzero;stroke:#000;stroke-width:19.84px;"/></g></g></g><g><path d="M2030.1,2512.6c-0,0 -348.2,1123 -396.1,1194.8c89.2,-21.8 130.6,-71.8 130.6,-71.8c0,0 -10.9,97.9 80.5,139.3c34.8,-522.3 282.9,-1160 282.9,-1160l-43.5,-119.7l-54.4,17.4Z" style="fill:#f00;fill-rule:nonzero;stroke:#000;stroke-width:19.84px;"/><path d="M1750.4,3388.5c-55.3,166.2 -101.1,295.9 -116.4,318.8c89.2,-21.8 130.6,-71.8 130.6,-71.8c0,0 -10.9,97.9 80.5,139.3c7.5,-111.8 24.7,-229 47.2,-344l-141.9,-42.3Z" style="fill:#0062ff;fill-rule:nonzero;stroke:#000;stroke-width:19.84px;"/></g></g></g><path d="M981.2,3396.1l398.2,256.8" style="fill:none;fill-rule:nonzero;stroke:#000;stroke-width:19.84px;"/></g><g><circle cx="2045.4" cy="2623.6" r="54.4" style="fill:#ffce00;stroke:#000;stroke-width:19.84px;"/><g><path d="M2263,2747.6c0,30 -24.4,54.4 -54.4,54.4c-30,0 -54.4,-24.4 -54.4,-54.4c0,-30 24.4,-54.4 54.4,-54.4c30,0 54.4,24.4 54.4,54.4Z" style="fill:#ffce00;fill-rule:nonzero;stroke:#000;stroke-width:19.84px;"/><path d="M2485,2747.6c0,30 -24.4,54.4 -54.4,54.4c-30,0 -54.4,-24.4 -54.4,-54.4c0,-30 24.4,-54.4 54.4,-54.4c30,0 54.4,24.4 54.4,54.4Z" style="fill:#ffce00;fill-rule:nonzero;stroke:#000;stroke-width:19.84px;"/></g><g><g><path d="M2030.1,2512.6c-0,0 4.4,154.5 156.7,204.6c335.1,108.8 605,-293.8 605,-293.8l-200.2,-300.4l-161,-15.2l-363.4,171.9l-37.1,232.9Z" style="fill:#0062ff;fill-rule:nonzero;stroke:#000;stroke-width:19.84px;"/><path d="M2128.1,2410.3c0,0 -14.4,129.8 65.3,174.1c250.3,139.3 544.1,-217.6 544.1,-217.6l-23.9,-50.1l-150.2,-169.8l-322.1,134.9l-113.2,128.5Z" style="fill:#fff;fill-rule:nonzero;stroke:#000;stroke-width:19.84px;"/><path d="M2160.7,2373.3c0,0 0,137.1 52.2,178.5c206.7,128.4 494,-211.1 494,-211.1l-52.2,-80.5c0,-0 -222,243.7 -289.4,237.2c-67.5,-6.5 -47.9,-219.8 -54.4,-222c-6.5,-2.2 -115.3,-32.6 -115.3,-32.6l-34.9,130.5Z" style="fill:#ffce00;fill-rule:nonzero;stroke:#000;stroke-width:19.84px;"/></g><path d="M2376.2,2484.3c-0,0 -54.4,15.2 -95.8,-26.1c-41.3,-41.4 -34.8,-176.3 -34.8,-176.3l115.3,-113.2l84.9,117.5l58.8,154.5l-128.4,43.6Z" style="fill:#f00;fill-rule:nonzero;stroke:#000;stroke-width:19.84px;"/></g></g><g><path d="M2374,2556.1c0,0 17.4,115.3 0,217.6c71.8,-41.4 67.5,-198 67.5,-198c0,0 67.5,148 117.5,163.2c-37,-117.5 -65.3,-226.3 -65.3,-226.3l-82.7,-4.4l-37,47.9Z" style="fill:#fff;fill-rule:nonzero;stroke:#000;stroke-width:19.84px;"/><path d="M2356.6,2453.8c0,0 -13.1,113.2 6.5,111c19.6,-2.2 130.6,-43.5 143.6,-54.4c13.1,-10.9 -71.8,-82.7 -71.8,-82.7l-78.3,26.1Z" style="fill:#f00;fill-rule:nonzero;stroke:#000;stroke-width:19.84px;"/><path d="M2452.3,2410.3c0,34.9 -28.3,63.1 -63.1,63.1c-34.9,-0 -63.1,-28.3 -63.1,-63.1c0,-34.9 28.3,-63.1 63.1,-63.1c34.9,-0 63.1,28.2 63.1,63.1Z" style="fill:#fff;fill-rule:nonzero;stroke:#000;stroke-width:19.84px;"/></g><path d="M1131.3,1376.5l642,-124" style="fill:none;fill-rule:nonzero;stroke:#000;stroke-width:19.84px;"/><path d="M1153.1,1425.5l615.9,-129.5" style="fill:none;fill-rule:nonzero;stroke:#000;stroke-width:19.84px;"/><path d="M1169.4,1494.1c63.1,-34.8 599.6,-163.2 599.6,-163.2" style="fill:none;fill-rule:nonzero;stroke:#000;stroke-width:19.84px;"/><g><circle cx="2319.6" cy="1565.9" r="78.3" style="fill:#fff;stroke:#000;stroke-width:19.84px;"/><path d="M1675.4,2442.9c0,0 15.2,32.6 26.1,26.1c10.9,-6.5 143.6,-108.8 171.9,-108.8c28.3,0 -56.6,-45.7 -56.6,-45.7l-141.5,124" style="fill:#fff;fill-rule:nonzero;stroke:#000;stroke-width:19.84px;"/><path d="M2343.5,2218.8c0,0 -311.2,309 -363.4,337.3c-52.2,28.3 -80.5,-78.3 -111,-74c-30.5,4.4 -56.6,54.4 -74,54.4c-17.4,-0 -37,-26.1 -39.2,-45.7c-2.2,-19.6 117.5,-76.2 121.9,-97.9c4.4,-21.8 -41.4,-39.2 -67.5,-37c-26.1,2.2 -119.7,80.5 -134.9,87.1c-15.2,6.5 -34.8,-41.3 -34.8,-41.3c0,-0 -80.5,43.5 -104.5,50.1c-23.9,6.5 -45.7,-54.4 -67.5,-97.9c-21.8,-43.5 -4.3,-282.9 -4.3,-282.9c-100.1,-41.4 -87,-139.3 -108.8,-158.9c-21.8,-19.6 30.5,-130.6 30.5,-130.6l637.7,-232.9l359.1,324.3l-39.3,345.9Z" style="fill:#ffce00;fill-rule:nonzero;stroke:#000;stroke-width:19.84px;"/><path d="M1355.5,1911.9c-4.4,-2.2 -45.7,-45.7 -34.8,-52.2c10.9,-6.5 -21.8,-63.1 -17.4,-76.2c0,0 -63.1,-28.3 -71.8,-26.1c-8.7,2.2 -66.8,-175.3 -58.8,-202.4c17.4,-58.8 243.7,-137.1 293.8,-152.3c50.1,-15.2 76.2,30.5 76.2,30.5c0,0 34.8,-82.7 74,-104.5c39.2,-21.8 219.8,-32.6 219.8,-32.6c0,-0 263.3,95.8 298.2,134.9c34.8,39.2 374.3,472.3 374.3,472.3l89.2,178.5l302.5,374.3l-58.8,30.5c0,-0 -269.9,-298.1 -282.9,-291.6c-13.1,6.5 208.9,339.5 208.9,339.5l-56.6,45.7c0,-0 -219.8,-352.6 -241.6,-346c-21.8,6.5 171.9,415.7 171.9,415.7l-54.4,37l-217.6,-450.5l-148,-374.3l-180.6,-139.5l-78.3,-95.8c0,-0 -602.9,287.3 -607.2,285.1Z" style="fill:#063f00;fill-rule:nonzero;stroke:#000;stroke-width:19.84px;"/><path d="M1640.6,1611.6c-0,-0 -63.1,-139.3 -97.9,-178.5" style="fill:#063f00;fill-rule:nonzero;stroke:#000;stroke-width:19.84px;"/><g><path d="M2147.7,1907.6c0,-0 -622.4,282.9 -689.8,350.4c0.5,43.2 3.4,80.9 10.8,95.8c21.8,43.5 43.5,104.5 67.5,97.9c23.9,-6.5 87,-39.2 104.5,-50.1c54.4,-30.5 65.3,-82.7 65.3,-82.7c0,-0 472.3,-280.7 518,-278.6c45.5,2.2 -76.3,-132.7 -76.3,-132.7Z" style="fill:#075900;fill-rule:nonzero;stroke:#000;stroke-width:19.84px;"/><g><path d="M2402.3,2040.3l-58.8,178.5c0,0 -311.2,309 -363.4,337.3c-36.8,19.9 -61.8,-27.2 -83.9,-55.2l506.1,-460.6Z" style="fill:#075900;fill-rule:nonzero;stroke:#000;stroke-width:19.84px;"/><path d="M2343.5,2218.8c0,0 -311.2,309 -363.4,337.3c-24.2,13.1 -43.2,-2.7 -59.8,-23.1c0,-0 500.5,-453.7 484.1,-451.3l-60.9,137.1Z" style="fill-rule:nonzero;"/></g><path d="M1494.8,2275.3c-8.7,21.8 23.9,145.8 45.7,137.1c21.8,-8.7 95.8,-39.2 106.6,-58.8c10.9,-19.6 -8.7,-60.9 -23.9,-58.8c-15.2,2.2 -6.5,37 -13.1,39.2c-17.4,8.7 -39.2,-19.6 -21.8,-47.9c17.4,-28.3 60.9,-47.9 71.8,-41.3c10.9,6.5 19.6,45.7 34.8,45.7c15.2,0 463.6,-272 509.3,-272c45.7,0 -50.1,-84.9 -50.1,-84.9c0,0 -650.6,320 -659.3,341.7Z" style="fill-rule:nonzero;"/></g><g><path d="M1677.5,1868.5c58.9,45.5 91.5,15.1 95.9,43.4c2.2,19.6 -45.7,43.5 -49.2,62.5c-8.1,50.9 -52.1,89.8 -105.3,89.8c-58.9,-0 -106.6,-47.7 -106.6,-106.6c0,-58.9 47.7,-106.6 106.6,-106.6c21.6,-0 41.7,6.4 58.6,17.5Z" style="fill:#fff;fill-rule:nonzero;stroke:#000;stroke-width:19.84px;"/><path d="M1677.5,1868.5c58.9,45.5 91.5,15.1 95.9,43.4c2.2,19.6 -45.7,43.5 -49.2,62.5c0,0 -44.4,-12.5 -48.7,-38.6c-4.5,-26.1 2,-67.3 2,-67.3Z" style="fill:#f00;fill-rule:nonzero;"/><circle cx="1618.8" cy="1962" r="67.5" style="fill:none;stroke:#000;stroke-width:19.84px;"/><path d="M1658,1959.8c0,21.6 -17.5,39.2 -39.2,39.2c-21.6,0 -39.2,-17.5 -39.2,-39.2c0,-21.6 17.5,-39.2 39.2,-39.2c21.6,0 39.2,17.6 39.2,39.2Z" style="fill:none;fill-rule:nonzero;stroke:#000;stroke-width:19.84px;"/><path d="M1677.5,1868.5c58.9,45.5 91.5,15.1 95.9,43.4c2.2,19.6 -45.7,43.5 -49.2,62.5" style="fill:none;fill-rule:nonzero;stroke:#000;stroke-width:19.84px;"/></g></g><g><path d="M3087.8,1476.6c0,97.4 -78.9,176.3 -176.3,176.3c-97.4,0 -176.3,-78.9 -176.3,-176.3c0,-97.4 78.9,-176.3 176.3,-176.3c97.4,0.1 176.3,79 176.3,176.3Z" style="fill:#f00;fill-rule:nonzero;stroke:#000;stroke-width:19.84px;"/><path d="M3013.8,1483.2c0,56.5 -45.8,102.3 -102.3,102.3c-56.5,0 -102.3,-45.8 -102.3,-102.3c0,-56.5 45.8,-102.3 102.3,-102.3c56.5,0 102.3,45.8 102.3,102.3Z" style="fill:#ffce00;fill-rule:nonzero;"/><path d="M2985.5,1481c0,40.9 -33.1,74 -74,74c-40.9,0 -74,-33.1 -74,-74c0,-40.9 33.1,-74 74,-74c40.9,0 74,33.1 74,74Z" style="fill:#0062ff;fill-rule:nonzero;"/></g><g><path d="M3116.1,1818.3c0,0 41.3,-396.1 102.3,-454.8c60.9,-58.8 127.7,-38.2 152.3,-6.5c30.5,39.2 41.3,154.5 -32.6,161c-74,6.5 -63.1,-56.6 -41.4,-63.1c21.8,-6.5 54.4,-10.9 34.8,-39.2c-19.6,-28.3 -60.9,-13.1 -87.1,13.1c-26.1,26.1 -67.5,398.3 -67.5,398.3l-60.8,-8.8Z" style="fill:#ffce00;fill-rule:nonzero;stroke:#000;stroke-width:19.84px;"/><g><path d="M2556.8,1763.9c0,0 535.4,19.6 674.6,71.8l-54.4,324.3c-121.9,-65.3 -596.3,-63.1 -596.3,-63.1l-23.9,-333Z" style="fill:#ffce00;fill-rule:nonzero;stroke:#000;stroke-width:19.84px;"/><g><path d="M3018.2,2059.9c10.9,6.5 126.9,-121 126.9,-121c-52.5,-11.6 -121.3,-23.4 -203.1,-27c-0,0 15.2,87.1 2.2,93.6c-13.1,6.5 -119.7,4.4 -128.4,-2.2c-8.7,-6.5 -15.2,-32.6 -2.2,-37c13.1,-4.4 76.2,10.9 82.7,-2.2c6.5,-13.1 -0,-19.6 -6.5,-30.5c-6.5,-10.9 -104.5,-8.7 -119.7,-2.2c-15.2,6.5 -2.2,108.8 -2.2,108.8c-0,0 224.2,0.1 250.3,19.7Z" style="fill:#0062ff;fill-rule:nonzero;stroke:#000;stroke-width:19.84px;"/><path d="M2550.3,1829.2c328.6,-8.7 671.7,63.3 671.7,63.3l-10.6,63.3c0,0 -119.1,-37.4 -269.3,-43.9c0,0 15.2,87.1 2.2,93.6c-13.1,6.5 -119.7,4.4 -128.4,-2.2c-8.7,-6.5 -15.2,-32.6 -2.2,-37c13.1,-4.4 76.2,10.9 82.7,-2.2c6.5,-13.1 0,-19.6 -6.5,-30.5c-6.5,-10.9 -104.5,-8.7 -119.7,-2.2c-15.2,6.5 -2.2,108.8 -2.2,108.8l-152.3,-2.2l-82.7,-63.1c-0.1,0.1 -311.4,-137 17.3,-145.7Z" style="fill:#f00;fill-rule:nonzero;stroke:#000;stroke-width:19.84px;"/><path d="M2308.7,1657.3c-0,0 243.7,-4.4 272,4.4c28.3,8.7 76.2,91.4 -23.9,102.3c6.5,13.1 17.4,141.5 17.4,141.5l-134.9,30.5l-130.6,-278.7Z" style="fill-rule:nonzero;"/><path d="M2561.1,1890.1c0,-0 158.9,-4.4 158.9,13.1c0,17.4 -95.8,91.4 -95.8,91.4l-82.7,-15.2l19.6,-89.3Z" style="fill:#075900;fill-rule:nonzero;stroke:#000;stroke-width:19.84px;"/></g></g></g><g><g><path d="M3213.7,3156c-0,0 500.9,1254.3 518.3,1252.1c17.4,-2.2 211.1,-28.3 272,-71.8c-237.2,-304.7 -522.3,-1064.2 -522.3,-1064.2l-268,-116.1Z" style="fill:#fff;fill-rule:nonzero;stroke:#000;stroke-width:19.84px;"/><path d="M3725.9,3847.4c-5.4,-11.4 -10.8,-22.9 -16.1,-34.3c0,0 -121.5,31.3 -121.5,42.1c0,10.9 2.2,34.8 13.1,37c10.9,2.3 124.5,-44.8 124.5,-44.8Z" style="fill:#f00;fill-rule:nonzero;stroke:#000;stroke-width:19.84px;"/><path d="M3514.4,3374.4l-202.4,-130.6" style="fill:none;fill-rule:nonzero;stroke:#000;stroke-width:33.07px;"/><path d="M3588.4,3526.7l-235.1,-126.2" style="fill:none;fill-rule:nonzero;stroke:#000;stroke-width:33.07px;stroke-linecap:butt;"/><path d="M3403.4,3546.3l156.7,54.4" style="fill:none;fill-rule:nonzero;stroke:#000;stroke-width:26.46px;"/><path d="M3510,3670.3c0,0 78.3,-23.9 116.8,-42.3c-10.5,-24.3 -20.6,-47.9 -30.3,-70.7c0,0 -138.8,54.2 -138.8,67.3c0.1,13.1 52.3,45.7 52.3,45.7Z" style="fill:#ffce00;fill-rule:nonzero;stroke:#000;stroke-width:19.84px;"/><path d="M3213.7,3156c-0,0 106.3,266.3 222.7,553.3c27.9,-8.5 60.5,-56.4 60.5,-56.4c-0,0 -82.7,-84.9 -78.3,-95.8c4.4,-10.9 56.6,-6.5 56.6,-6.5c-0,0 -95.8,-37 -89.2,-91.4c4.4,-6.5 47.9,-4.3 47.9,-4.3c-0,0 -84.9,-63.1 -84.9,-78.3c-0,-15.2 47.9,-8.7 47.9,-8.7c-0,0 -121.9,-87 -132.7,-141.5c-6.5,-32.6 -15.2,-76.2 -15.2,-76.2l-35.3,5.8Z" style="fill:#f00;fill-rule:nonzero;stroke:#000;stroke-width:19.84px;"/><path d="M3635.5,3648c-6.6,-15.2 -13.1,-30.1 -19.4,-44.8c-6,-0.3 -190.6,79.2 -190.6,79.2c6.9,16.9 13.7,33.9 20.7,51l189.3,-85.4Z" style="fill:#0062ff;fill-rule:nonzero;stroke:#000;stroke-width:19.84px;"/><g><path d="M3537,3258.5c-33.9,18.4 -72.8,28.9 -114,28.9c-132.2,0 -239.4,-107.2 -239.4,-239.4c0,-104.3 66.6,-192.9 159.6,-225.8l193.8,436.3Z" style="fill:#0062ff;fill-rule:nonzero;stroke:#000;stroke-width:19.84px;"/><path d="M3478.6,3127.5c-20.2,20.7 -48.4,33.6 -79.6,33.6c-61.3,0 -111,-49.7 -111,-111c0,-60 47.6,-108.9 107.1,-110.9c0.1,0 83.5,188.3 83.5,188.3Z" style="fill:#ffce00;fill-rule:nonzero;"/><path d="M3410.9,2974.9l48.6,109.6c-12.8,19.9 -35.1,33 -60.4,33c-39.7,0 -71.8,-32.2 -71.8,-71.8c0,-39.7 32.2,-71.8 71.8,-71.8c4,0 7.9,0.4 11.8,1Z" style="fill:#f00;fill-rule:nonzero;"/><path d="M3343.2,2822.1l193.8,436.4" style="fill:none;fill-rule:nonzero;stroke:#000;stroke-width:19.84px;"/></g><path d="M3808.2,4395l-152.4,-330.7" style="fill:none;fill-rule:nonzero;stroke:#000;stroke-width:19.84px;"/><path d="M3906.1,4371.1l-176.3,-328.6" style="fill:none;fill-rule:nonzero;stroke:#000;stroke-width:19.84px;"/><g><g><path d="M3549.3,3985.9c11.6,28.3 23,55.9 34.1,82.7c33.3,-19.6 131.3,-41.4 213.7,-76c-13.8,-27 -27.4,-54.4 -40.8,-81.9l-207,75.2Z" style="fill:#0062ff;fill-rule:nonzero;"/></g><g><path d="M3549.3,3985.9c11.6,28.3 23,55.9 34.1,82.7c33.3,-19.6 131.3,-41.4 213.7,-76c-13.8,-27 -27.4,-54.4 -40.8,-81.9l-207,75.2Z" style="fill:none;fill-rule:nonzero;stroke:#000;stroke-width:19.84px;"/></g><g><path d="M3549.3,3985.9c11.6,28.3 23,55.9 34.1,82.7c33.3,-19.6 131.3,-41.4 213.7,-76c-13.8,-27 -27.4,-54.4 -40.8,-81.9l-207,75.2Z" style="fill:none;fill-rule:nonzero;stroke:#000;stroke-width:19.84px;"/></g></g><path d="M3572.9,4043.5c6.6,16.1 13.2,31.9 19.6,47.4l217.4,-73.2c-8.6,-16.6 -17.2,-33.4 -25.7,-50.4l-211.3,76.2Z" style="fill:#ffce00;fill-rule:nonzero;stroke:#000;stroke-width:19.84px;"/></g><g><g><path d="M2844.1,3371.1c0,0 -32.6,294.9 19.6,390.6c39.2,71.8 447.2,340.6 424.4,409.1c-6.5,22.9 -319.9,111 -342.8,140.4c-22.9,29.4 -65.3,117.5 -65.3,137.1c0,19.6 189.3,16.3 189.3,16.3l0,-39.2l362.3,-22.9l146.9,-248.1l-287.3,-355.8c0,-0 -146.9,-195.9 -153.4,-225.2c-6.5,-29.4 45.7,-235 45.7,-235l-339.4,32.7Z" style="fill:#075900;fill-rule:nonzero;stroke:#000;stroke-width:19.84px;"/><path d="M2928.9,4419c0,0 23.9,-74 52.2,-91.4c28.3,-17.4 304.7,-117.5 304.7,-117.5l65.3,-74c0,0 -333,-282.9 -417.8,-385.2c-84.9,-102.3 -54.4,-354.7 -54.4,-354.7l241.6,-19.6c0,-0 -28.3,182.8 -19.6,230.7c8.7,47.9 413.5,548.4 413.5,548.4l-174.1,235l-239.4,15.2l-31.6,19.6l-29.4,17.4l-111,-23.9Z" style="fill-rule:nonzero;"/><path d="M2942,4412.5c-6.5,2.2 -13,48.8 -13,48.8c56.1,4.8 140.3,3.4 140.3,3.4l0,-39.2c0,0 -120.8,-15.2 -127.3,-13Z" style="fill:#fff;fill-rule:nonzero;stroke:#000;stroke-width:19.84px;"/><path d="M3335.9,4379.8l2.2,-150.1l230.7,17.4l-6.6,141.4l-226.3,-8.7Z" style="fill:#fff;fill-rule:nonzero;stroke:#000;stroke-width:19.84px;"/><g><g><circle cx="3303.3" cy="4255.8" r="37" style="fill:#ffce00;stroke:#000;stroke-width:19.84px;"/><path d="M3490.4,4275.4c0,20.4 -16.6,37 -37,37c-20.4,0 -37,-16.6 -37,-37c0,-20.4 16.6,-37 37,-37c20.5,0 37,16.5 37,37Z" style="fill:#ffce00;fill-rule:nonzero;stroke:#000;stroke-width:19.84px;"/><path d="M3634.1,4275.4c0,20.4 -16.6,37 -37,37c-20.4,0 -37,-16.6 -37,-37c0,-20.4 16.6,-37 37,-37c20.4,0 37,16.5 37,37Z" style="fill:#ffce00;fill-rule:nonzero;stroke:#000;stroke-width:19.84px;"/></g><g><path d="M2983.3,4107.8l-28.3,130.6c87,21.8 324.3,-21.8 333,-67.5c8.7,-45.7 -304.7,-63.1 -304.7,-63.1Z" style="fill:#f00;fill-rule:nonzero;stroke:#000;stroke-width:19.84px;"/><path d="M2968.1,4173.1c39.2,15.2 306.9,-8.7 306.9,-8.7" style="fill:none;fill-rule:nonzero;stroke:#000;stroke-width:19.84px;"/><g><path d="M3288,4147c-13.1,15.2 -8.7,69.6 2.2,78.3c10.9,8.7 278.6,37 298.2,28.3c19.6,-8.7 19.6,-93.6 -9.8,-99c-29.4,-5.5 -277.5,-22.9 -290.6,-7.6Z" style="fill:#f00;fill-rule:nonzero;stroke:#000;stroke-width:19.84px;"/><path d="M3331.6,4173.1c-6.5,2.2 -6.5,21.8 6.5,28.3c13.1,6.5 204.6,21.8 215.4,15.2c10.8,-6.6 15.2,-23.9 0,-30.5c-15.2,-6.5 -215.4,-15.2 -221.9,-13Z" style="fill:#fff;fill-rule:nonzero;stroke:#000;stroke-width:19.84px;"/></g></g></g><path d="M3074.8,4377.6c-10.9,10.9 -10.9,34.8 -5.4,47.9c5.4,13.1 501.6,13.1 510.3,8.7c8.7,-4.3 -2.2,-50.1 -15.2,-58.8c-13.1,-8.6 -478.9,-8.6 -489.7,2.2Z" style="fill:#fff;fill-rule:nonzero;stroke:#000;stroke-width:19.84px;"/></g><g><path d="M2609,3116.5c398.3,-107.7 519,-202.4 538.6,-192.6c19.6,9.8 75.1,153.4 81.6,447.2c-424.4,94.7 -672.5,0 -672.5,0c0,0 -345.9,-146.9 52.3,-254.6Z" style="fill:#f00;fill-rule:nonzero;stroke:#000;stroke-width:19.84px;"/><path d="M2599.2,3188.3c-0,0 146.9,97.9 614.5,-32.3c3.9,29.9 7.4,62.7 10,98.5c-516.8,110 -624.5,15.4 -624.5,15.4l-0,-81.6Z" style="fill:#fff;fill-rule:nonzero;stroke:#000;stroke-width:19.84px;"/><path d="M2670.8,3099.3c349.2,-100.4 458.4,-184.7 476.9,-175.4c12.4,6.2 39.1,65.9 58.8,183.3c-179.6,51.7 -545.2,113.7 -535.7,-7.9Z" style="fill:#0062ff;fill-rule:nonzero;stroke:#000;stroke-width:19.84px;"/><path d="M3159.1,3266.6l-6.5,-89.7" style="fill:none;fill-rule:nonzero;stroke:#000;stroke-width:19.84px;"/><path d="M3062.8,3283l-8.2,-88.2" style="fill:none;fill-rule:nonzero;stroke:#000;stroke-width:19.84px;"/><path d="M2943.6,3299.3l-1.6,-81.6" style="fill:none;fill-rule:nonzero;stroke:#000;stroke-width:19.84px;"/><path d="M2834.3,3305.8l-4.9,-81.6" style="fill:none;fill-rule:nonzero;stroke:#000;stroke-width:19.84px;"/><path d="M2705.3,3302.6l0,-83.3" style="fill:none;fill-rule:nonzero;stroke:#000;stroke-width:19.84px;"/></g></g></g><g><circle cx="2983.4" cy="3918.4" r="52.2" style="fill:#ffce00;stroke:#000;stroke-width:19.84px;"/><path d="M3196.6,3840.1c0,28.8 -23.4,52.2 -52.2,52.2c-28.8,0 -52.2,-23.4 -52.2,-52.2c0,-28.8 23.4,-52.2 52.2,-52.2c28.8,0 52.2,23.3 52.2,52.2Z" style="fill:#ffce00;fill-rule:nonzero;stroke:#000;stroke-width:19.84px;"/><path d="M3349,3774.8c0,28.8 -23.4,52.2 -52.2,52.2c-28.8,0 -52.2,-23.4 -52.2,-52.2c0,-28.8 23.4,-52.2 52.2,-52.2c28.8,-0 52.2,23.4 52.2,52.2Z" style="fill:#ffce00;fill-rule:nonzero;stroke:#000;stroke-width:19.84px;"/><g><g><path d="M2837.5,3711.7c0,-0 -278.6,60.9 -287.3,69.6c-8.7,8.7 -6.5,47.9 8.7,45.7c15.2,-2.2 293.8,-76.2 293.8,-76.2c0,-0 -278.6,115.3 -278.6,121.9c0,6.5 6.5,41.3 15.2,39.2c8.7,-2.2 285.1,-124 285.1,-124c0,-0 -252.4,152.3 -256.8,163.2c-4.4,10.9 13.1,56.6 21.8,52.2c8.7,-4.3 259,-156.7 259,-156.7c0,-0 -243.8,167.6 -252.5,176.3c-8.7,8.7 15.2,50 26.1,45.7c10.9,-4.4 241.6,-176.3 241.6,-176.3l-2.2,-132.7l-73.9,-47.9Z" style="fill:#f00;fill-rule:nonzero;stroke:#000;stroke-width:19.84px;"/><path d="M2623.5,3760.7c-40,9.8 -70.4,17.9 -73.2,20.7c-8.7,8.7 -6.5,47.9 8.7,45.7c5.1,-0.7 40.2,-9.6 84.5,-21.1l-20,-45.3Z" style="fill:#ffce00;fill-rule:nonzero;stroke:#000;stroke-width:19.84px;"/><path d="M2707.7,3978.7c-33.7,23.5 -59,41.5 -61.7,44.2c-8.7,8.7 15.2,50 26.1,45.7c3.6,-1.4 30.5,-20.6 65.1,-45.9l-29.5,-44Z" style="fill:#ffce00;fill-rule:nonzero;stroke:#000;stroke-width:19.84px;"/><path d="M2682.9,3906.1c-36.4,23.2 -63.8,41.5 -65.2,45c-4.4,10.9 13.1,56.6 21.8,52.2c2.9,-1.4 32.7,-19.4 71.1,-42.6l-27.7,-54.6Z" style="fill:#ffce00;fill-rule:nonzero;stroke:#000;stroke-width:19.84px;"/><path d="M2650,3836.7c-43,18.8 -75.7,33.8 -75.7,36c0,6.5 6.5,41.3 15.2,39.2c3,-0.7 37.6,-15.6 81.7,-34.8l-21.2,-40.4Z" style="fill:#ffce00;fill-rule:nonzero;stroke:#000;stroke-width:19.84px;"/></g><g><path d="M3218.4,3559.4c0,0 95.8,152.3 87.1,163.2c-8.7,10.9 -372.1,182.8 -385.2,182.8c-13.1,0 -82.7,-193.7 -82.7,-193.7l380.8,-152.3Z" style="fill:#f00;fill-rule:nonzero;stroke:#000;stroke-width:19.84px;"/><path d="M2894.6,3688.9l273.2,-109.3c0,0 68,101.6 59.3,112.5c-8.7,10.9 -263.3,134.9 -276.4,134.9c-13.1,0 -56.1,-138.1 -56.1,-138.1Z" style="fill:#fff;fill-rule:nonzero;stroke:#000;stroke-width:19.84px;"/><path d="M2928.3,3786c-16.1,-40.7 -33.6,-97.1 -33.6,-97.1l273.2,-109.3c0,0 28,41.8 45.7,74.6c-0.1,0 -284.7,125 -285.3,131.8Z" style="fill:#ffce00;fill-rule:nonzero;"/><path d="M2987.7,3713.9c-0,13.2 -10.7,23.9 -23.9,23.9c-13.2,0 -23.9,-10.7 -23.9,-23.9c-0,-13.2 10.7,-23.9 23.9,-23.9c13.2,-0.1 23.9,10.6 23.9,23.9Z" style="fill:none;fill-rule:nonzero;stroke:#000;stroke-width:19.84px;"/><path d="M3079.1,3674.7c0,13.2 -10.7,23.9 -23.9,23.9c-13.2,-0 -23.9,-10.7 -23.9,-23.9c0,-13.2 10.7,-23.9 23.9,-23.9c13.2,0 23.9,10.7 23.9,23.9Z" style="fill:none;fill-rule:nonzero;stroke:#000;stroke-width:19.84px;"/><path d="M3164,3635.5c0,13.2 -10.7,23.9 -23.9,23.9c-13.2,0 -23.9,-10.7 -23.9,-23.9c0,-13.2 10.7,-23.9 23.9,-23.9c13.2,0 23.9,10.7 23.9,23.9Z" style="fill:none;fill-rule:nonzero;stroke:#000;stroke-width:19.84px;"/><path d="M2894.6,3688.9l273.2,-109.3c0,0 68,101.6 59.3,112.5c-8.7,10.9 -263.3,134.9 -276.4,134.9c-13.1,0 -56.1,-138.1 -56.1,-138.1Z" style="fill:none;fill-rule:nonzero;stroke:#000;stroke-width:19.84px;"/></g></g></g><g><path d="M2626.4,3161.1c0,206.7 -167.6,374.3 -374.3,374.3c-206.7,0 -374.3,-167.6 -374.3,-374.3c0,-206.7 167.6,-374.3 374.3,-374.3c206.7,0 374.3,167.6 374.3,374.3Z" style="fill:#fff;fill-rule:nonzero;stroke:#000;stroke-width:19.84px;"/><path d="M2578.8,2978.2c-8.9,2.3 -355,200.3 -355,200.3l-268,-246.2c68.5,-88.5 175.7,-145.6 296.3,-145.6c140.3,0.1 262.6,77.3 326.7,191.5Z" style="fill:#f00;fill-rule:nonzero;stroke:#000;stroke-width:19.84px;"/><path d="M2500.2,3174.2c-0,129.8 -105.2,235 -235,235c-129.8,-0 -235,-105.2 -235,-235c-0,-129.8 105.2,-235 235,-235c129.8,-0.1 235,105.1 235,235Z" style="fill:#ffce00;fill-rule:nonzero;stroke:#000;stroke-width:19.84px;"/><path d="M2439.3,3174.2c0,97.4 -78.9,176.3 -176.3,176.3c-97.4,-0 -176.3,-78.9 -176.3,-176.3c0,-97.4 78.9,-176.3 176.3,-176.3c97.4,0 176.3,78.9 176.3,176.3Z" style="fill:#0062ff;fill-rule:nonzero;stroke:#000;stroke-width:19.84px;"/></g><g><g><path d="M2661.3,2856.4c0,0 23.9,117.5 45.7,208.9c52.2,-45.7 15.2,-167.6 15.2,-167.6c0,0 104.5,117.5 156.7,111c-74,-91.4 -137.1,-193.7 -137.1,-193.7l-80.5,41.4Z" style="fill:#fff;fill-rule:nonzero;stroke:#000;stroke-width:19.84px;"/><path d="M2813.6,2775.9c26.1,34.8 39.2,119.7 71.8,226.3c32.6,-58.8 4.4,-226.3 4.4,-226.3c0,0 119.7,148 163.2,154.5c-58.8,-87 -132.7,-222 -132.7,-222l-63.1,-13.1c-0.1,0.1 -69.7,45.8 -43.6,80.6Z" style="fill:#fff;fill-rule:nonzero;stroke:#000;stroke-width:19.84px;"/><path d="M2968.1,2678c23.9,17.4 60.9,134.9 106.6,232.9c15.2,-87.1 -30.5,-211.1 -30.5,-211.1c0,0 74,128.4 150.2,124c-87.1,-113.2 -139.3,-215.5 -139.3,-215.5c0,0 -110.9,52.2 -87,69.7Z" style="fill:#fff;fill-rule:nonzero;stroke:#000;stroke-width:19.84px;"/></g><g><path d="M2626.4,2773.7c0,-0 6.5,108.8 19.6,104.5c13.1,-4.4 111,-54.4 115.3,-65.3c4.4,-10.9 -76.2,-82.7 -76.2,-82.7l-58.7,43.5Z" style="fill:#f00;fill-rule:nonzero;stroke:#000;stroke-width:19.84px;"/><path d="M2778.8,2678c0,0 13.1,111 23.9,108.8c10.9,-2.2 121.9,-74 124,-84.9c2.2,-10.9 -95.8,-71.8 -95.8,-71.8l-52.1,47.9Z" style="fill:#f00;fill-rule:nonzero;stroke:#000;stroke-width:19.84px;"/><path d="M2911.5,2573.5c0,0 41.3,115.3 52.2,113.2c10.9,-2.2 106.6,-71.8 104.5,-80.5c-2.2,-8.7 -104.5,-91.4 -104.5,-91.4l-52.2,58.7Z" style="fill:#f00;fill-rule:nonzero;stroke:#000;stroke-width:19.84px;"/></g><g><circle cx="2635.1" cy="2712.8" r="71.8" style="fill:#fff;stroke:#000;stroke-width:19.84px;"/><circle cx="2772.2" cy="2608.3" r="71.8" style="fill:#fff;stroke:#000;stroke-width:19.84px;"/><circle cx="2902.8" cy="2503.9" r="71.8" style="fill:#fff;stroke:#000;stroke-width:19.84px;"/></g></g><g><g><path d="M1404.4,1327.6l-313.3,55.5l-13.1,-316.7l349.3,120.8l-22.9,140.4Z" style="fill:#075900;fill-rule:nonzero;stroke:#000;stroke-width:19.84px;"/><path d="M1284.2,1137.7l143.1,49.5l-22.9,140.4l-120.6,21.3l0.4,-211.2Z" style="fill:#f00;fill-rule:nonzero;stroke:#000;stroke-width:19.84px;"/><path d="M1081.3,1130.6l169.7,41.4" style="fill:none;fill-rule:nonzero;stroke:#000;stroke-width:19.84px;"/><path d="M1092.1,1276.4l163.3,-15.2" style="fill:none;fill-rule:nonzero;stroke:#000;stroke-width:19.84px;"/><path d="M1090,1200.3l163.2,13" style="fill:none;fill-rule:nonzero;stroke:#000;stroke-width:19.84px;"/><path d="M1090,1337.4l180.6,-34.9" style="fill:none;fill-rule:nonzero;stroke:#000;stroke-width:19.84px;"/><path d="M1246.7,1115.4c6.5,-8.7 63.1,10.9 65.3,26.1c2.2,15.2 2.2,193.7 -2.2,208.9c-4.4,15.2 -65.3,23.9 -63.1,13.1c2.1,-10.9 -6.6,-239.4 0,-248.1Z" style="fill:#ffce00;fill-rule:nonzero;stroke:#000;stroke-width:19.84px;"/></g><circle cx="1490.4" cy="1254.7" r="126.2" style="fill:#fff;stroke:#000;stroke-width:19.84px;"/></g><g><g><g><path d="M1272.8,1735.6c0,-0 -54.4,-137.1 -39.2,-171.9c15.2,-34.8 230.7,-126.2 265.5,-113.2c34.8,13.1 89.2,169.8 89.2,169.8" style="fill:none;fill-rule:nonzero;stroke:#000;stroke-width:19.84px;"/><path d="M1318.5,1724.7c0,0 -43.5,-106.6 -32.6,-143.6c10.9,-37 167.6,-95.8 193.7,-89.2c26.1,6.5 69.6,150.2 69.6,150.2" style="fill:none;fill-rule:nonzero;stroke:#000;stroke-width:19.84px;"/><path d="M1357.7,1705.2c0,0 -41.3,-106.6 -21.8,-128.4c19.6,-21.8 100.1,-47.9 121.9,-45.7c21.8,2.2 39.2,121.9 39.2,121.9" style="fill:none;fill-rule:nonzero;stroke:#000;stroke-width:19.84px;"/><path d="M1394.7,1687.7c0,0 -37,-67.5 -23.9,-87c13.1,-19.6 56.6,-28.3 69.6,-21.8c13.1,6.5 23.9,82.7 23.9,82.7" style="fill:none;fill-rule:nonzero;stroke:#000;stroke-width:19.84px;"/></g><g><path d="M1634,1587.6c0,-0 -69.6,-128.4 -39.2,-171.9c30.5,-43.5 189.3,-69.6 189.3,-69.6" style="fill:none;fill-rule:nonzero;stroke:#000;stroke-width:19.84px;"/><path d="M1677.6,1576.8c-0,0 -60.9,-93.6 -43.5,-132.8c17.4,-39.2 163.2,-58.8 163.2,-58.8" style="fill:none;fill-rule:nonzero;stroke:#000;stroke-width:19.84px;"/><path d="M1712.4,1555c0,0 -37,-58.8 -21.8,-89.2c15.2,-30.5 119.7,-52.2 119.7,-52.2" style="fill:none;fill-rule:nonzero;stroke:#000;stroke-width:19.84px;"/><path d="M1745,1548.5c-39.2,-91.4 91.4,-97.9 91.4,-97.9" style="fill:none;fill-rule:nonzero;stroke:#000;stroke-width:19.84px;"/></g></g><g><path d="M2091.1,1463.6c198,206.7 302.5,412.4 302.5,412.4" style="fill:none;fill-rule:nonzero;stroke:#000;stroke-width:19.84px;"/><path d="M2047.5,1481c78.3,69.6 163.2,206.7 163.2,206.7" style="fill:none;fill-rule:nonzero;stroke:#000;stroke-width:19.84px;"/><path d="M1999.7,1502.8c63.1,50.1 128.4,167.6 128.4,167.6" style="fill:none;fill-rule:nonzero;stroke:#000;stroke-width:19.84px;"/><path d="M1984.4,1557.2c43.5,39.2 121.9,132.8 121.9,132.8" style="fill:none;fill-rule:nonzero;stroke:#000;stroke-width:19.84px;"/><path d="M1982.3,1609.4l97.9,95.8" style="fill:none;fill-rule:nonzero;stroke:#000;stroke-width:19.84px;"/></g></g><g><path d="M1773.3,1367.8c0,37.3 -30.2,67.5 -67.5,67.5c-37.3,0 -67.5,-30.2 -67.5,-67.5c0,-37.3 30.2,-67.5 67.5,-67.5c37.3,0.1 67.5,30.3 67.5,67.5Z" style="fill:#fff;fill-rule:nonzero;stroke:#000;stroke-width:19.84px;"/><path d="M1403.4,1498.4c0,40.9 -33.1,74 -74,74c-40.9,0 -74,-33.1 -74,-74c0,-40.9 33.1,-74 74,-74c40.8,0 74,33.1 74,74Z" style="fill:#fff;fill-rule:nonzero;stroke:#000;stroke-width:19.84px;"/></g><g><path d="M2326.1,2105.6c0,0 0,163.2 17.4,156.7c17.4,-6.5 317.7,-217.6 319.9,-235c2.2,-17.4 -97.9,-102.3 -97.9,-102.3l-239.4,180.6Z" style="fill:#fff;fill-rule:nonzero;stroke:#000;stroke-width:19.84px;"/><path d="M2363.1,2064.2c0,0 -2.2,117.5 8.7,117.5c10.9,0 215.4,-143.6 213.3,-161c-2.2,-17.4 -71.8,-67.5 -71.8,-67.5l-150.2,111Z" style="fill:none;fill-rule:nonzero;stroke:#000;stroke-width:19.84px;"/><g><g><path d="M2241.2,2101.2c4.7,0 39.2,-35.7 89.2,-67.5c42.4,-26.9 100.4,-45.1 115.3,-97.9c32.6,-115.3 -76.2,-121.9 -124,-148c-47.9,-26.1 -113.2,-126.2 -148,-148c-34.8,-21.8 -137.1,13.1 -132.8,82.7c4.4,69.6 76.2,134.9 106.6,130.6c-10.9,6.5 -10.9,63.1 -4.3,87c6.6,24 89.3,161.1 98,161.1Z" style="fill:#f00;fill-rule:nonzero;stroke:#000;stroke-width:19.84px;"/><path d="M2143.3,1779.2c-2.2,-19.6 34.8,-58.8 60.9,-15.2c26.1,43.5 -31.6,90.4 -56.6,89.2" style="fill:none;fill-rule:nonzero;stroke:#000;stroke-width:19.84px;"/><path d="M2382.7,1929.3c4.4,58.8 -60.9,97.9 -52.2,104.5c-50.1,31.8 -84.5,67.5 -89.2,67.5c-8.7,0 -91.4,-137.1 -97.9,-161c-0,-0 139.3,-93.6 171.9,-84.9c32.6,8.6 63,15.2 67.4,73.9Z" style="fill:#fff;fill-rule:nonzero;stroke:#000;stroke-width:19.84px;"/></g><path d="M2245.6,2086c-4.4,15.2 -8.7,97.9 4.4,93.6c13.1,-4.4 324.3,-235 330.8,-252.4c6.5,-17.4 -17.4,-52.2 -43.5,-54.4c-26.2,-2.2 -287.4,198 -291.7,213.2Z" style="fill:#fff;fill-rule:nonzero;stroke:#000;stroke-width:19.84px;"/><path d="M2247.8,2107.8c-17.4,2.2 -97.9,-143.6 -104.5,-167.6c0,-0 22.3,-15 51.1,-32.3c0,-0 96.9,141.2 96.9,156.4c0,15.2 -26.1,41.3 -43.5,43.5Z" style="fill:#0062ff;fill-rule:nonzero;stroke:#000;stroke-width:19.84px;"/></g></g><g><g><g><path d="M3951.8,3396.1l-34.8,509.3l124,2.2l8.7,-502.8l34.9,0l-6.6,494.1l124.1,-4.4l-28.3,-491.8l19.6,0l47.8,480.9l139.3,-21.7l-100.1,-457.1l32.7,-10.8l100.1,459.2l108.8,-32.7l-126.2,-446.1l28.2,-8.7l130.6,443.9l115.4,-52.2l-152.4,-383l-152.3,-108.8l-376.5,65.2l-37,65.3Z" style="fill:#ffce00;fill-rule:nonzero;stroke:#000;stroke-width:19.84px;"/><g><path d="M3927.4,3752.7l-10.4,152.7l124,2.2l2.7,-152.4l-116.3,-2.5Z" style="fill:#f00;fill-rule:nonzero;stroke:#000;stroke-width:19.84px;"/><path d="M4513.8,3670.8l40.8,138.8l115.4,-52.2l-50.5,-126.9l-105.7,40.3Z" style="fill:#f00;fill-rule:nonzero;stroke:#000;stroke-width:19.84px;"/><path d="M4383.3,3715.9l29.9,137.3l108.8,-32.7l-40.1,-141.8l-98.6,37.2Z" style="fill:#f00;fill-rule:nonzero;stroke:#000;stroke-width:19.84px;"/><path d="M4227.4,3744.6l13.8,139l139.3,-21.7l-30,-137.2l-123.1,19.9Z" style="fill:#f00;fill-rule:nonzero;stroke:#000;stroke-width:19.84px;"/><path d="M4079.9,3757.4l-1.9,141.5l124.1,-4.4l-8.4,-145.8l-113.8,8.7Z" style="fill:#f00;fill-rule:nonzero;stroke:#000;stroke-width:19.84px;"/></g><g><path d="M3912.6,3141.5c0,0 -21.8,285.1 -19.6,306.9c2.2,21.8 10.9,60.9 54.4,60.9c43.5,0 50.1,-75.4 50.1,-75.4c0,0 13,81.9 67.4,79.7c54.4,-2.2 51.9,-96.2 51.9,-96.2c0,0 13.4,91.9 74.4,85.3c60.9,-6.5 40.8,-101.2 40.8,-101.2c0,0 7.1,96.9 65.8,88.2c58.8,-8.7 43.3,-103.3 43.3,-103.3c0,0 13.2,103.3 74.2,88c60.9,-15.2 32.3,-102.7 32.3,-102.7c0,0 13.4,85.3 72.1,74.5c58.8,-10.9 37,-74 34.8,-89.2c-2.2,-15.2 -84.9,-265.5 -84.9,-265.5l-557,50Z" style="fill:#fff;fill-rule:nonzero;stroke:#000;stroke-width:19.84px;"/><path d="M4382.7,3121.9l65,249.8" style="fill:none;fill-rule:nonzero;stroke:#000;stroke-width:19.84px;"/><path d="M4282.6,3141.5l58.6,244.9" style="fill:none;fill-rule:nonzero;stroke:#000;stroke-width:19.84px;"/><path d="M4197.7,3154.6l34.3,246.9" style="fill:none;fill-rule:nonzero;stroke:#000;stroke-width:19.84px;"/><path d="M4088.9,3158.9l27.9,258.5" style="fill:none;fill-rule:nonzero;stroke:#000;stroke-width:19.84px;"/><path d="M3986.6,3154.6l10.9,279.3" style="fill:none;fill-rule:nonzero;stroke:#000;stroke-width:19.84px;"/><path d="M3906.1,3241.6c398.3,19.6 592,-67.5 592,-67.5" style="fill:none;fill-rule:nonzero;stroke:#000;stroke-width:26.46px;"/><path d="M3901.7,3335.2c315.6,37 620.2,-65.3 620.2,-65.3" style="fill:none;fill-rule:nonzero;stroke:#000;stroke-width:26.46px;"/><path d="M3964.9,3439.7c0,14.4 -11.7,26.1 -26.1,26.1c-14.4,-0 -26.1,-11.7 -26.1,-26.1c0,-14.4 11.7,-26.1 26.1,-26.1c14.4,-0.1 26.1,11.6 26.1,26.1Z" style="fill:none;fill-rule:nonzero;stroke:#000;stroke-width:19.84px;"/><path d="M4088.9,3439.7c0,14.4 -11.7,26.1 -26.1,26.1c-14.4,-0 -26.1,-11.7 -26.1,-26.1c0,-14.4 11.7,-26.1 26.1,-26.1c14.4,-0.1 26.1,11.6 26.1,26.1Z" style="fill:none;fill-rule:nonzero;stroke:#000;stroke-width:19.84px;"/><path d="M4206.4,3433.1c0,14.4 -11.7,26.1 -26.1,26.1c-14.4,0 -26.1,-11.7 -26.1,-26.1c0,-14.4 11.7,-26.1 26.1,-26.1c14.4,0 26.1,11.7 26.1,26.1Z" style="fill:none;fill-rule:nonzero;stroke:#000;stroke-width:19.84px;"/><path d="M4317.4,3426.6c0,14.4 -11.7,26.1 -26.1,26.1c-14.4,0 -26.1,-11.7 -26.1,-26.1c0,-14.4 11.7,-26.1 26.1,-26.1c14.4,0 26.1,11.7 26.1,26.1Z" style="fill:none;fill-rule:nonzero;stroke:#000;stroke-width:19.84px;"/><path d="M4428.4,3407c-0,14.4 -11.7,26.1 -26.1,26.1c-14.4,0 -26.1,-11.7 -26.1,-26.1c-0,-14.4 11.7,-26.1 26.1,-26.1c14.4,0 26.1,11.7 26.1,26.1Z" style="fill:none;fill-rule:nonzero;stroke:#000;stroke-width:19.84px;"/><path d="M4532.9,3387.4c-0,14.4 -11.7,26.1 -26.1,26.1c-14.4,0 -26.1,-11.7 -26.1,-26.1c-0,-14.4 11.7,-26.1 26.1,-26.1c14.4,0 26.1,11.7 26.1,26.1Z" style="fill:none;fill-rule:nonzero;stroke:#000;stroke-width:19.84px;"/></g></g><g><path d="M3882.2,2778.1l-6.5,385.2c-0,0 346,39.2 613.7,-67.5l-93.6,-359.1l-276.4,-71.8l-237.2,113.2Z" style="fill:#fff;fill-rule:nonzero;stroke:#000;stroke-width:19.84px;"/><path d="M3875.6,3163.3c0,0 346,39.2 613.7,-67.5" style="fill:#fff;fill-rule:nonzero;stroke:#000;stroke-width:26.46px;"/><path d="M3882.2,2778.1l-4.9,287.3c370.5,28.3 589.4,-56.3 589.4,-56.3l-71,-272.3l-276.4,-71.8l-237.1,113.1Z" style="fill:#ffce00;fill-rule:nonzero;stroke:#000;stroke-width:19.84px;"/><path d="M3882.2,2778.1l-3.5,206.7c282.1,28.3 567.6,-54.5 567.6,-54.5l-50.4,-193.6l-276.4,-71.8l-237.3,113.2Z" style="fill:#f00;fill-rule:nonzero;stroke:#000;stroke-width:19.84px;"/><path d="M3882.2,2778.1l-2.4,141.5c252.7,19.6 550.1,-52 550.1,-52l-34.1,-130.8l-276.4,-71.8l-237.2,113.1Z" style="fill:#0062ff;fill-rule:nonzero;stroke:#000;stroke-width:19.84px;"/></g></g><g><path d="M4342.4,1889.1c0,-0 112.6,-496.2 112.6,-586c1.6,-125.7 -35.9,-324.8 -42.4,-337.9c97.9,11.4 68.6,300.3 68.6,300.3c0,0 8.2,-106.1 19.6,-311.8c53.9,93 13.1,323.2 13.1,323.2c0,0 27.7,-153.4 84.9,-303.6c19.6,81.6 -44.1,305.2 -44.1,305.2c0,0 44.1,-160 111,-264.4c3.3,86.5 -75.1,267.7 -75.1,267.7c0,0 102.8,-231.8 181.2,-243.2c-34.3,62 -150.2,239.9 -171.4,300.3c-21.2,60.4 -140.4,682.3 -140.4,682.3l-117.6,-132.1Z" style="fill:#ffce00;fill-rule:nonzero;stroke:#000;stroke-width:19.84px;"/><g><path d="M4455.1,1303.1c1.6,-125.7 -35.9,-324.8 -42.4,-337.9c97.9,11.4 68.6,300.3 68.6,300.3c0,0 8.2,-106.1 19.6,-311.8c53.9,93 13.1,323.2 13.1,323.2c0,0 27.7,-153.4 84.9,-303.6c19.6,81.6 -44.1,305.2 -44.1,305.2c0,0 44.1,-160 111,-264.4c3.3,86.5 -75.1,267.7 -75.1,267.7c0,0 102.8,-231.8 181.2,-243.2c-34.3,62 -150.2,239.9 -171.4,300.3c-24.7,-6.4 -86.7,-35.8 -145.4,-35.8Z" style="fill:#fff;fill-rule:nonzero;stroke:#000;stroke-width:19.84px;"/><path d="M4442,1340.6c-9.8,-4.9 -19.6,-78.4 -1.6,-80c18,-1.6 184.4,34.3 191,47.3c6.5,13.1 -14.7,73.5 -27.7,75.1c-13.2,1.7 -151.9,-37.5 -161.7,-42.4Z" style="fill:#ffce00;fill-rule:nonzero;stroke:#000;stroke-width:19.84px;"/></g><g><path d="M4411,1931.5c0,0 113.2,-563.7 126.2,-568c13.1,-4.4 291.6,52.2 287.3,71.8c-2.3,10.2 -50.3,220.9 -89.2,424.4c-35.7,186.6 -62.4,367.8 -69.6,367.8c-15.2,0 -272,-54.4 -272,-54.4l17.3,-241.6Z" style="fill:#fff;fill-rule:nonzero;stroke:#000;stroke-width:19.84px;"/><g><path d="M4502,1497.9c4.4,-19.6 8.6,-37.8 12.4,-54.2c0,-0 257.8,54.7 293.5,65.7c-3.4,15.5 -7.3,33 -11.4,52.1l-294.5,-63.6Z" style="fill-rule:nonzero;"/><path d="M4430.4,1835.7c15.8,-77 38.6,-187.5 59.3,-282.3l293.7,69.1c-15.1,71 -32.4,154.7 -48.2,237.1c-2.7,13.9 -5.3,27.7 -7.8,41.5l-297,-65.4Z" style="fill-rule:nonzero;"/><path d="M4718.8,1948.7c-4.2,23.2 -8.2,45.9 -12,67.7c-102.1,-37 -295.7,-84.8 -295.7,-84.8c0,0 4,-19.7 10.5,-51.9l297.2,69Z" style="fill-rule:nonzero;"/><g><circle cx="4508.9" cy="1672" r="29.4" style="fill:#fff;"/><path d="M4531.8,1796c0,16.2 -13.2,29.4 -29.4,29.4c-16.2,0 -29.4,-13.2 -29.4,-29.4c0,-16.2 13.2,-29.4 29.4,-29.4c16.2,0 29.4,13.2 29.4,29.4Z" style="fill:#fff;fill-rule:nonzero;"/><circle cx="4678.7" cy="1815.6" r="29.4" style="fill:#fff;"/><path d="M4740.7,1724.2c0,16.2 -13.2,29.4 -29.4,29.4c-16.2,0 -29.4,-13.2 -29.4,-29.4c0,-16.2 13.2,-29.4 29.4,-29.4c16.2,0 29.4,13.2 29.4,29.4Z" style="fill:#fff;fill-rule:nonzero;"/></g><g><path d="M4693.9,1734.5c-0,49.9 -40.4,90.3 -90.3,90.3c-49.9,0 -90.3,-40.4 -90.3,-90.3c-0,-49.9 40.4,-90.3 90.3,-90.3c49.9,0 90.3,40.5 90.3,90.3Z" style="fill:#f00;fill-rule:nonzero;stroke:#000;stroke-width:19.84px;"/><path d="M4577.5,1707.9c0,0 7.4,-40.2 -3.3,-53.9c-5.7,-7.3 -32.6,8.2 -45.7,-18c-5.3,-10.5 3.3,-57.1 17.9,-53.9c16.6,3.7 6.9,27.7 9.8,40.8c1.6,7.3 35.1,-7.3 45.7,8.2c8.5,12.4 6.5,76.7 6.5,76.7l-30.9,0l0,0.1Z" style="fill:#f00;fill-rule:nonzero;stroke:#000;stroke-width:19.84px;"/><path d="M4602,1694.8c0,0 29.4,-78.3 75.1,-60.4c37.5,14.7 34.3,75.1 8.2,83.2c-26.1,8.2 -8.2,-47.3 -31,-49c-6.5,0.8 -32.6,50.6 -32.6,50.6l-19.7,-24.4Z" style="fill:#f00;fill-rule:nonzero;stroke:#000;stroke-width:19.84px;"/><path d="M4646,1733.5c0,24 -19.5,43.5 -43.5,43.5c-24,0 -43.5,-19.5 -43.5,-43.5c0,-24 19.5,-43.5 43.5,-43.5c24,-0.1 43.5,19.4 43.5,43.5Z" style="fill:#0062ff;fill-rule:nonzero;stroke:#000;stroke-width:19.84px;"/></g></g></g><g><g id="spears"><path d="M3658,1615.9l136.8,-9.2c0,0 -30.2,-628.4 -80.2,-630.6c-50.1,-2.2 -56.6,639.8 -56.6,639.8Z" style="fill:#fff;fill-rule:nonzero;stroke:#000;stroke-width:19.84px;"/><path d="M3794.8,1606.7l126.5,-8.5c0,0 -50,-624.2 -93.5,-624.2c-43.6,-0.1 -33,632.7 -33,632.7Z" style="fill:#fff;fill-rule:nonzero;stroke:#000;stroke-width:19.84px;"/><path d="M3915.4,1374.9c2.1,121.5 5.9,223.2 5.9,223.2l137.1,-9.3c0,-0 -13.9,-103.3 -33,-225.4c-27.5,-175.8 -65.7,-390.4 -88.8,-391.7c-23.5,-1.3 -24.3,222.7 -21.2,403.2Z" style="fill:#fff;fill-rule:nonzero;stroke:#000;stroke-width:19.84px;"/><path d="M4054.1,969.6c32.6,2.2 111,559.3 111,559.3l-145.8,21.8c0,-0.1 2.1,-583.3 34.8,-581.1Z" style="fill:#fff;fill-rule:nonzero;stroke:#000;stroke-width:19.84px;"/><path d="M4184.7,960.9c-39.2,-4.4 -58.8,622.4 -58.8,622.4l176.3,-10.9c0,0 -78.4,-607.2 -117.5,-611.5Z" style="fill:#fff;fill-rule:nonzero;stroke:#000;stroke-width:19.84px;"/><g><g><path d="M3780.8,1383.4c-13.5,-180.9 -36.3,-406 -66.3,-407.3c-29.6,-1.3 -44,223.4 -50.8,406.8" style="fill:#f00;fill-rule:nonzero;stroke:#000;stroke-width:19.84px;"/><path d="M3900.1,1376.5c-18.6,-177.5 -46.9,-402.6 -72.4,-402.6c-25.9,0 -32.6,223.5 -33.8,404.8" style="fill:#f00;fill-rule:nonzero;stroke:#000;stroke-width:19.84px;"/><path d="M4025.4,1363.5c-27.5,-175.8 -65.7,-390.4 -88.8,-391.7c-23.4,-1.3 -24.3,222.7 -21.2,403.2" style="fill:#f00;fill-rule:nonzero;stroke:#000;stroke-width:19.84px;"/><path d="M4021.8,1361.8c3.6,-170.2 12.1,-393.6 32.3,-392.3c20.3,1.4 58.3,217.7 84.2,380.9" style="fill:#f00;fill-rule:nonzero;stroke:#000;stroke-width:19.84px;"/><path d="M4269.3,1339.9c-26.1,-171.8 -61.9,-376.5 -84.6,-379c-23,-2.6 -39.2,211.8 -48.7,389.6" style="fill:#f00;fill-rule:nonzero;stroke:#000;stroke-width:19.84px;"/></g><g><path d="M3701,1429.6l0,-62" style="fill:none;fill-rule:nonzero;stroke:#f00;stroke-width:19.84px;"/><path d="M3741,1427.1l0,-57.9" style="fill:none;fill-rule:nonzero;stroke:#f00;stroke-width:19.84px;"/><path d="M3832.4,1426.3l-4.9,-56.3" style="fill:none;fill-rule:nonzero;stroke:#f00;stroke-width:19.84px;"/><path d="M3870.7,1422.2l-4.9,-53" style="fill:none;fill-rule:nonzero;stroke:#f00;stroke-width:19.84px;"/><path d="M3949.9,1419.8l-3.3,-57.1" style="fill:none;fill-rule:nonzero;stroke:#f00;stroke-width:19.84px;"/><path d="M3997.2,1414.1l-7.3,-54.7" style="fill:none;fill-rule:nonzero;stroke:#f00;stroke-width:19.84px;"/><path d="M4060.1,1403.5l-2.5,-53.1" style="fill:none;fill-rule:nonzero;stroke:#f00;stroke-width:19.84px;"/><path d="M4106.6,1400.2l-6.5,-52.2" style="fill:none;fill-rule:nonzero;stroke:#f00;stroke-width:19.84px;"/><path d="M4180,1396.9l0.9,-57.1" style="fill:none;fill-rule:nonzero;stroke:#f00;stroke-width:19.84px;"/><path d="M4238,1396.9l-10.6,-60.4" style="fill:none;fill-rule:nonzero;stroke:#f00;stroke-width:19.84px;"/></g></g></g><g><g><path d="M3736.3,1546.3l47.9,470.1l430.9,-61l-8.7,-448.3l-470.1,39.2Z" style="fill:#ffce00;fill-rule:nonzero;stroke:#000;stroke-width:19.84px;"/><path d="M3853.9,1537.6l26.1,413.5" style="fill:none;fill-rule:nonzero;stroke:#000;stroke-width:19.84px;"/><path d="M3988.8,1528.9l4.3,404.8" style="fill:none;fill-rule:nonzero;stroke:#000;stroke-width:19.84px;"/><path d="M4088.9,1520.2l17.4,409.1" style="fill:none;fill-rule:nonzero;stroke:#000;stroke-width:19.84px;"/></g><g id="mirror"><path d="M3763.7,2010.3c27.2,27.2 27.2,71.3 -0,98.5c-27.2,27.2 -71.3,27.2 -98.5,0c-27.2,-27.2 -27.2,-71.3 -0,-98.5c27.2,-27.2 71.3,-27.2 98.5,-0Z" style="fill:#0062ff;fill-rule:nonzero;stroke:#000;stroke-width:19.84px;"/><path d="M4530,2555.1c27.2,27.2 27.2,71.3 0,98.5c-27.2,27.2 -71.3,27.2 -98.5,0c-27.2,-27.2 -27.2,-71.3 0,-98.5c27.2,-27.2 71.3,-27.2 98.5,0Z" style="fill:#0062ff;fill-rule:nonzero;stroke:#000;stroke-width:19.84px;"/><path d="M3691.8,2107.7c33.3,19.2 44.7,61.8 25.5,95.1c-19.2,33.3 -61.8,44.7 -95.1,25.5c-33.3,-19.2 -44.7,-61.8 -25.5,-95.1c19.2,-33.3 61.8,-44.7 95.1,-25.5Z" style="fill:#0062ff;fill-rule:nonzero;stroke:#000;stroke-width:19.84px;"/><path d="M3776,2665.9c27.2,-27.2 71.3,-27.2 98.5,0c27.2,27.2 27.2,71.3 0,98.5c-27.2,27.2 -71.3,27.2 -98.5,0c-27.2,-27.2 -27.2,-71.3 0,-98.5Z" style="fill:#0062ff;fill-rule:nonzero;stroke:#000;stroke-width:19.84px;"/><path d="M4320.7,1899.5c27.2,-27.2 71.3,-27.2 98.5,0c27.2,27.2 27.2,71.3 0,98.5c-27.2,27.2 -71.3,27.2 -98.5,0c-27.2,-27.2 -27.2,-71.3 0,-98.5Z" style="fill:#0062ff;fill-rule:nonzero;stroke:#000;stroke-width:19.84px;"/><g><path d="M3858.3,1934.8c19.2,33.3 7.8,75.9 -25.5,95.1c-33.3,19.2 -75.9,7.8 -95.1,-25.5c-19.2,-33.3 -7.8,-75.9 25.5,-95.1c33.3,-19.2 75.9,-7.8 95.1,25.5Z" style="fill:#0062ff;fill-rule:nonzero;stroke:#000;stroke-width:19.84px;"/><path d="M4457.5,2659.4c19.2,33.3 7.8,75.9 -25.5,95.1c-33.3,19.2 -75.9,7.8 -95.1,-25.5c-19.2,-33.3 -7.8,-75.9 25.5,-95.1c33.3,-19.2 75.9,-7.8 95.1,25.5Z" style="fill:#0062ff;fill-rule:nonzero;stroke:#000;stroke-width:19.84px;"/><path d="M4573,2435.5c33.3,19.2 44.7,61.8 25.5,95.1c-19.2,33.3 -61.8,44.7 -95.1,25.5c-33.3,-19.2 -44.7,-61.8 -25.5,-95.1c19.3,-33.3 61.8,-44.7 95.1,-25.5Z" style="fill:#0062ff;fill-rule:nonzero;stroke:#000;stroke-width:19.84px;"/><path d="M3700.5,2571.2c33.3,-19.2 75.9,-7.8 95.1,25.5c19.2,33.3 7.8,75.9 -25.5,95.1c-33.3,19.2 -75.9,7.8 -95.1,-25.5c-19.2,-33.2 -7.8,-75.8 25.5,-95.1Z" style="fill:#0062ff;fill-rule:nonzero;stroke:#000;stroke-width:19.84px;"/><path d="M4425.1,1972c33.3,-19.2 75.9,-7.8 95.1,25.5c19.2,33.3 7.8,75.9 -25.5,95.1c-33.3,19.2 -75.9,7.8 -95.1,-25.5c-19.3,-33.3 -7.9,-75.9 25.5,-95.1Z" style="fill:#0062ff;fill-rule:nonzero;stroke:#000;stroke-width:19.84px;"/><path d="M3873.4,2737.7c19.2,-33.3 61.8,-44.7 95.1,-25.5c33.3,19.2 44.7,61.8 25.5,95.1c-19.2,33.3 -61.8,44.7 -95.1,25.5c-33.3,-19.2 -44.8,-61.8 -25.5,-95.1Z" style="fill:#0062ff;fill-rule:nonzero;stroke:#000;stroke-width:19.84px;"/><path d="M4201.2,1856.5c19.2,-33.3 61.8,-44.7 95.1,-25.5c33.3,19.2 44.7,61.8 25.5,95.1c-19.2,33.3 -61.8,44.7 -95.1,25.5c-33.3,-19.2 -44.7,-61.8 -25.5,-95.1Z" style="fill:#0062ff;fill-rule:nonzero;stroke:#000;stroke-width:19.84px;"/><g><path d="M3969.2,1886.4c10,37.2 -12.1,75.3 -49.2,85.3c-37.2,10 -75.3,-12.1 -85.3,-49.2c-10,-37.2 12.1,-75.3 49.2,-85.3c37.2,-10 75.4,12.1 85.3,49.2Z" style="fill:#0062ff;fill-rule:nonzero;stroke:#000;stroke-width:19.84px;"/><path d="M4360.5,2741.4c10,37.2 -12.1,75.3 -49.2,85.3c-37.2,10 -75.3,-12.1 -85.3,-49.2c-9.9,-37.2 12.1,-75.3 49.2,-85.3c37.2,-10 75.4,12 85.3,49.2Z" style="fill:#0062ff;fill-rule:nonzero;stroke:#000;stroke-width:19.84px;"/><path d="M3647.6,2220.4c37.2,10 59.2,48.1 49.2,85.3c-10,37.2 -48.1,59.2 -85.3,49.2c-37.2,-9.9 -59.2,-48.1 -49.2,-85.3c10,-37.1 48.2,-59.2 85.3,-49.2Z" style="fill:#0062ff;fill-rule:nonzero;stroke:#000;stroke-width:19.84px;"/><path d="M4583.7,2309c37.2,10 59.2,48.1 49.2,85.3c-10,37.2 -48.1,59.2 -85.3,49.2c-37.2,-10 -59.2,-48.1 -49.3,-85.3c10,-37.2 48.2,-59.2 85.4,-49.2Z" style="fill:#0062ff;fill-rule:nonzero;stroke:#000;stroke-width:19.84px;"/><path d="M3652.1,2460.3c37.2,-10 75.3,12.1 85.3,49.2c10,37.2 -12.1,75.3 -49.2,85.3c-37.2,10 -75.3,-12.1 -85.3,-49.2c-10,-37.1 12.1,-75.3 49.2,-85.3Z" style="fill:#0062ff;fill-rule:nonzero;stroke:#000;stroke-width:19.84px;"/><path d="M4507.1,2069c37.2,-10 75.3,12.1 85.3,49.2c10,37.2 -12.1,75.3 -49.2,85.3c-37.2,10 -75.3,-12.1 -85.3,-49.2c-10,-37.1 12,-75.3 49.2,-85.3Z" style="fill:#0062ff;fill-rule:nonzero;stroke:#000;stroke-width:19.84px;"/><path d="M3986,2781.9c10,-37.2 48.1,-59.2 85.3,-49.2c37.2,10 59.2,48.1 49.2,85.3c-9.9,37.2 -48.1,59.2 -85.3,49.2c-37.1,-9.9 -59.1,-48.1 -49.2,-85.3Z" style="fill:#0062ff;fill-rule:nonzero;stroke:#000;stroke-width:19.84px;"/><path d="M4074.6,1845.9c9.9,-37.2 48.1,-59.2 85.3,-49.2c37.2,10 59.2,48.1 49.2,85.3c-10,37.2 -48.1,59.2 -85.3,49.3c-37.1,-10.1 -59.1,-48.3 -49.2,-85.4Z" style="fill:#0062ff;fill-rule:nonzero;stroke:#000;stroke-width:19.84px;"/><g><g><path d="M4088.9,1868.4c0,38.5 -31.2,69.6 -69.6,69.6c-38.5,0 -69.6,-31.2 -69.6,-69.6c0,-38.5 31.2,-69.6 69.6,-69.6c38.4,-0.1 69.6,31.1 69.6,69.6Z" style="fill:#0062ff;fill-rule:nonzero;stroke:#000;stroke-width:19.84px;"/><path d="M4245.6,2795.5c0,38.5 -31.2,69.6 -69.6,69.6c-38.5,0 -69.6,-31.2 -69.6,-69.6c0,-38.5 31.2,-69.6 69.6,-69.6c38.4,-0.1 69.6,31.1 69.6,69.6Z" style="fill:#0062ff;fill-rule:nonzero;stroke:#000;stroke-width:19.84px;"/><path d="M3634.1,2340.6c38.5,0 69.7,31.2 69.7,69.6c0,38.5 -31.2,69.6 -69.7,69.6c-38.5,0 -69.6,-31.2 -69.6,-69.6c-0.1,-38.4 31.1,-69.6 69.6,-69.6Z" style="fill:#0062ff;fill-rule:nonzero;stroke:#000;stroke-width:19.84px;"/><path d="M4561.2,2183.9c38.5,0 69.6,31.2 69.6,69.6c0,38.5 -31.2,69.6 -69.6,69.6c-38.5,0 -69.7,-31.2 -69.7,-69.6c0,-38.4 31.2,-69.6 69.7,-69.6Z" style="fill:#0062ff;fill-rule:nonzero;stroke:#000;stroke-width:19.84px;"/></g><g><path d="M4543.8,2338.5c0,244 -202.2,441.8 -451.6,441.8c-249.4,0 -451.6,-197.8 -451.6,-441.8c0,-244 202.2,-441.8 451.6,-441.8c249.4,0 451.6,197.8 451.6,441.8Z" style="fill:#0062ff;fill-rule:nonzero;stroke:#000;stroke-width:19.84px;"/><path d="M4498,2333c0,216.9 -182.2,392.8 -407,392.8c-224.8,0 -407,-175.9 -407,-392.8c0,-217 182.2,-392.8 407,-392.8c224.8,0 407,175.9 407,392.8Z" style="fill:#ffce00;fill-rule:nonzero;stroke:#000;stroke-width:19.84px;"/><path d="M3800.5,2607.2l1.7,-551.7" style="fill:none;fill-rule:nonzero;stroke:#000;stroke-width:19.84px;"/><path d="M3838.6,2031.6l-7,601.7" style="fill:none;fill-rule:nonzero;stroke:#000;stroke-width:19.84px;"/><path d="M3932.2,1981.5l10.3,713.9" style="fill:none;fill-rule:nonzero;stroke:#000;stroke-width:19.84px;"/><path d="M3978.5,2711.7l-9.8,-754.1" style="fill:none;fill-rule:nonzero;stroke:#000;stroke-width:19.84px;"/><path d="M4082.9,1941.3l9.8,778.6" style="fill:none;fill-rule:nonzero;stroke:#000;stroke-width:19.84px;"/><path d="M4128.1,1944.6l4.3,771.4" style="fill:none;fill-rule:nonzero;stroke:#000;stroke-width:19.84px;"/><path d="M4251,1975.6l-1.6,716.5" style="fill:none;fill-rule:nonzero;stroke:#000;stroke-width:19.84px;"/><path d="M4285.3,1995.1l0,675.8" style="fill:none;fill-rule:nonzero;stroke:#000;stroke-width:19.84px;"/><path d="M4414.3,2091.4l-3.3,484.8" style="fill:none;fill-rule:nonzero;stroke:#000;stroke-width:19.84px;"/><path d="M4443.6,2132.3l3.3,388.4" style="fill:none;fill-rule:nonzero;stroke:#000;stroke-width:19.84px;"/><g><g><circle cx="4115" cy="2038.1" r="67.5" style="fill:#fff;stroke:#000;stroke-width:19.84px;"/><path d="M4195.5,2638.8c0,37.3 -30.2,67.5 -67.5,67.5c-37.3,0 -67.5,-30.2 -67.5,-67.5c0,-37.3 30.2,-67.5 67.5,-67.5c37.3,0 67.5,30.2 67.5,67.5Z" style="fill:#fff;fill-rule:nonzero;stroke:#000;stroke-width:19.84px;"/></g><g><path d="M3707.2,2202.3c11.3,-30.8 26.4,-59.9 44.8,-86.6l676.5,-2.3c19.9,28.4 36,59.4 47.7,92.3l-769,-3.4Z" style="fill:#fff;fill-rule:nonzero;stroke:#000;stroke-width:19.84px;"/><path d="M4472.3,2470.8c-11.6,29.9 -26.9,58.1 -45.3,84c0,0 -677.1,-11.2 -681.3,-13.9c-17.2,-26.5 -31.2,-55.2 -41.5,-85.5l768.1,15.4Z" style="fill:#fff;fill-rule:nonzero;stroke:#000;stroke-width:19.84px;"/><path d="M3732,2503.9l711.6,10.3" style="fill:none;fill-rule:nonzero;stroke:#000;stroke-width:19.84px;"/><path d="M3732,2160l723.1,3.3" style="fill:none;fill-rule:nonzero;stroke:#000;stroke-width:19.84px;"/></g></g></g></g></g></g></g></g></g></g></g><path d="M2316.4,3537.9c-39.5,153 -68,261 -68.7,263c74,-4.3 97.9,-58.8 97.9,-58.8c0,0 37,97.9 100.1,117.5c2,-62.9 12.4,-166.5 27.9,-289.5l-157.2,-32.2Z" style="fill:#0062ff;fill-rule:nonzero;stroke:#000;stroke-width:19.84px;"/><g><g><g><path d="M2175.9,1298.2c0,116.6 -94.5,211.1 -211.1,211.1c-116.6,0 -211.1,-94.5 -211.1,-211.1c0,-116.6 94.5,-211.1 211.1,-211.1c116.6,-0 211.1,94.5 211.1,211.1Z" style="fill:#f00;fill-rule:nonzero;stroke:#000;stroke-width:19.84px;"/><g><path d="M2067.1,1241.6c0,-0 -4.4,-84.9 50.1,-104.5c54.4,-19.6 154.5,15.2 193.7,-8.7c76.2,-47.9 23.9,-158.9 -47.9,-156.7c-71.8,2.2 -91.4,80.5 -50.1,102.3c-34.8,-6.5 -104.5,-15.2 -148,13.1c-43.5,28.3 -56.6,106.6 -56.6,106.6l58.8,47.9Z" style="fill:#ffce00;fill-rule:nonzero;stroke:#000;stroke-width:19.84px;"/><path d="M2269.5,1043.6c0,0 -19.6,56.6 -56.6,30.5" style="fill:none;fill-rule:nonzero;stroke:#000;stroke-width:19.84px;"/><path d="M1947.4,1189.4c0,0 5.1,-185.7 2.2,-178.5c-8.7,21.8 -39.2,60.9 -71.8,23.9c-34.8,-41.3 2.2,-119.7 91.4,-93.6c89.2,26.1 52.2,263.3 52.2,263.3l-74,-15.1Z" style="fill:#ffce00;fill-rule:nonzero;stroke:#000;stroke-width:19.84px;"/><g><path d="M2086.7,1287.3c0,62.5 -50.7,113.2 -113.2,113.2c-62.5,0 -113.2,-50.7 -113.2,-113.2c0,-62.5 50.7,-113.2 113.2,-113.2c62.5,0 113.2,50.7 113.2,113.2Z" style="fill:#0062ff;fill-rule:nonzero;stroke:#000;stroke-width:19.84px;"/><path d="M1895.2,1363.5l39.2,-178.5" style="fill:none;fill-rule:nonzero;stroke:#000;stroke-width:19.84px;"/><path d="M1958.3,1396.1l60.9,-211.1" style="fill:none;fill-rule:nonzero;stroke:#000;stroke-width:19.84px;"/><path d="M2023.6,1387.4l43.5,-156.7" style="fill:none;fill-rule:nonzero;stroke:#000;stroke-width:19.84px;"/></g></g></g><path d="M1320.7,1859.7c-10.9,6.5 -47.9,13.1 -60.9,13.1c-13.1,0 -37,-95.8 -28.3,-115.3c8.7,-19.6 687.7,-285.1 705.1,-278.6c17.4,6.5 89.2,115.3 87.1,126.2c-2.2,10.9 -56.6,45.7 -65.3,39.2c-8.7,-6.5 -47.9,-102.3 -63.1,-106.6c-15.2,-4.3 -587.6,232.9 -591.9,245.9c-4.5,13 28.1,69.5 17.3,76.1Z" style="fill:#f00;fill-rule:nonzero;stroke:#000;stroke-width:19.84px;"/></g><path d="M1375.1,1857.5c-13.1,-4.3 -26.1,-41.3 -26.1,-54.4c-0,-13.1 509.3,-217.6 526.7,-208.9c17.4,8.7 28.3,23.9 21.8,28.3c-6.7,4.3 -509.4,239.4 -522.4,235Z" style="fill-rule:nonzero;"/></g></g></g><g id="ezpitzal"></g></svg>